<svg width="72" height="93" viewBox="0 0 72 93" fill="none" xmlns="http://www.w3.org/2000/svg">
<path fill-rule="evenodd" clip-rule="evenodd" d="M0.885483 8.80104L0 8.50698L0.468519 6.82005C0.590615 6.32392 0.631608 5.80348 0.79696 5.32415C0.940307 4.90874 1.13571 4.46664 1.43423 4.15716C2.30965 3.24964 3.41644 2.6773 4.63615 2.40229C5.23418 2.26742 5.88427 2.37208 6.50985 2.34614L11.4847 2.12139C11.8781 2.10434 12.2838 2.05069 12.6645 2.12001C13.7451 2.3168 14.8269 2.17704 15.9006 2.14257C17.2513 2.09933 18.5961 1.88636 19.9447 1.76139L24.3646 1.37833C24.6334 1.35489 24.9051 1.33872 25.1689 1.28619C27.9555 0.732283 30.7668 0.358998 33.5996 0.154054C34.7721 0.0691936 35.952 -0.0350958 37.123 0.0115336C38.5186 0.067188 39.8657 0.408761 41.0678 1.18316C41.5387 1.48638 41.9077 1.8465 42.108 2.39201C42.2415 2.75502 42.4878 3.07604 42.6738 3.42112C42.8013 3.6574 42.9824 3.89268 43.0187 4.14563C43.2746 5.92193 43.917 7.62453 43.9165 9.45674C43.9162 10.5595 44.1884 11.6602 44.2964 12.7659C44.3723 13.5436 44.4526 14.3331 44.3986 15.1083C44.2951 16.598 44.4618 18.0499 44.7638 19.5019L45.9728 25.6178C46.1246 26.4707 46.1172 27.3509 46.197 28.2173L46.4462 30.5515L47.0812 35.3833C47.1657 36.1008 47.1059 36.8372 47.2154 37.549C47.3702 38.5572 47.6765 39.5432 47.8175 40.5525C48.0127 41.9506 48.1871 43.359 48.2364 44.7677C48.2894 46.2819 48.5001 47.7608 48.8259 49.2328C48.9167 49.6431 48.9994 50.0653 49.004 50.4826C49.0187 51.8574 49.9162 53.0057 49.9781 54.3651C49.9833 54.4796 50.0405 54.6031 50.1055 54.7018C50.334 55.0476 50.5706 55.3885 50.8154 55.723C50.9718 55.9367 51.1483 56.1359 51.3703 56.4086L47.6729 59.6106C47.7018 59.6842 47.7166 59.7795 47.7688 59.8454L50.5243 63.3177C51.1566 64.1249 51.7889 64.934 52.3824 65.7696C53.3059 67.0692 54.2326 68.3696 55.0857 69.7152C55.5097 70.3838 55.9397 71.024 56.5165 71.5703C57.2287 72.2448 57.7381 72.355 58.6192 71.9412C59.7285 71.4205 60.6905 70.681 61.5149 69.7921C62.2305 69.0207 62.8619 68.1706 63.519 67.3463C64.8355 65.6945 66.4747 64.66 68.6598 64.8884C69.2831 64.9533 69.9232 65.2857 70.458 65.6414C70.9888 65.9942 71.4641 66.4229 71.5707 67.1953C71.7295 68.3455 72.241 69.488 71.8644 70.6422C71.5502 71.6059 71.0863 72.5403 70.5629 73.4128C69.4783 75.2207 68.3029 76.9739 67.1804 78.7593C66.7795 79.3969 66.4493 80.0794 66.0398 80.711C65.4347 81.6446 64.8154 82.5718 64.1441 83.4582C63.8999 83.7806 63.5108 84.0141 63.1509 84.2253C62.1561 84.8089 61.106 85.2594 59.9419 85.3908C58.2799 85.5783 57.0901 84.8157 56.3924 83.4063C55.7537 82.1164 55.3509 80.7127 54.7738 79.3896C54.4284 78.5976 53.9933 77.8333 53.5078 77.1178C53.2885 76.7947 52.8785 76.543 52.5013 76.3951C51.6598 76.0654 50.782 75.8284 49.9235 75.5399C49.2047 75.2984 48.4636 75.0581 47.972 74.4452C47.3167 73.6278 47.1069 72.7256 47.7415 71.776C46.3503 70.6431 45.6925 68.9973 44.4893 67.7851C43.7914 67.082 43.0378 66.4176 42.4404 65.6362C41.831 64.8393 41.1755 64.077 40.5825 63.2779C39.9014 62.3603 39.8206 62.1785 38.7165 62.3456C38.2991 62.4086 37.8812 62.4917 37.4761 62.6084C36.5223 62.8832 35.5651 62.89 34.6185 62.6316C33.0413 62.2013 31.4424 62.2988 29.8436 62.3833C29.0322 62.4263 28.2232 62.5142 27.2949 62.5915C27.1901 63.7096 27.051 64.8621 26.9816 66.0188C26.904 67.3114 26.9223 68.6152 26.5255 69.8646C26.171 70.9804 25.8159 72.0995 25.3804 73.185C24.6737 74.9463 23.3363 76.2128 21.8904 77.3759C21.5167 77.6764 21.1331 77.9649 20.7811 78.2381C20.7894 78.3559 20.7783 78.4198 20.7997 78.4705C21.4467 79.9957 21.1853 80.6009 19.5329 81.3457C19.2879 81.4562 19.02 81.5603 18.7568 81.5781C18.0259 81.6276 17.6845 82.2195 17.243 82.643C16.9469 82.9273 17.0602 83.5089 17.345 83.8894C17.7586 84.4423 18.2004 84.979 18.5632 85.5639C19.0657 86.3739 19.8628 86.1677 20.5828 86.2143C20.9688 86.2393 21.3629 86.1337 21.7498 86.154C23.1787 86.2283 24.1281 87.0352 24.829 88.2097C25.1189 88.6954 25.4305 89.1684 25.7863 89.7329C25.7875 89.7093 25.7975 89.8005 25.7761 89.884C25.6383 90.4221 25.7782 91.0422 25.248 91.4638C24.551 92.0175 23.7952 92.4677 22.9091 92.5792C21.4715 92.7602 20.0276 92.9306 18.5816 92.9925C17.561 93.0361 16.533 92.8792 15.507 92.8403C15.1177 92.8255 14.7224 92.8688 14.335 92.9223C12.6965 93.1494 11.0048 92.4867 10.2096 90.9238C9.3114 89.1581 7.93804 87.8397 6.43729 86.5996C5.4448 85.7794 4.76252 84.7001 4.44942 83.4432C4.17756 82.3517 4.63577 81.4951 5.52377 80.8658C6.21171 80.3784 6.89236 79.8479 7.8265 79.9491C7.9696 79.9645 8.13633 79.9255 8.26761 79.8616C9.19006 79.4123 10.1907 79.0633 11.0024 78.4621C11.9383 77.7688 12.7175 76.8666 12.7503 75.5582C12.757 75.2918 12.8978 74.9511 13.0953 74.7825C13.5279 74.4133 14.0255 74.1139 14.5175 73.8211C14.93 73.5758 15.3755 73.5553 15.8197 73.7762C16.1679 73.9494 16.5211 74.1121 16.9885 74.3352C17.4047 73.7697 17.9154 73.2394 18.2325 72.6121C18.9388 71.2142 19.5918 69.7852 20.1765 68.333C20.4183 67.7323 20.4631 67.0433 20.5372 66.3877C20.6318 65.5512 20.671 64.7083 20.7237 63.8674C20.7637 63.229 20.5586 63.0566 19.9247 63.1128C17.641 63.3158 15.3891 63.7324 13.1273 64.0877C12.5336 64.1808 11.9196 64.1604 11.3145 64.1663L6.90342 64.1897C6.37015 64.1961 5.83687 64.2823 5.30447 64.2738C4.79961 64.2655 4.28998 64.1925 3.9858 63.6105L4.72379 63.1553L4.39824 62.7144C4.9666 61.9187 4.93278 60.9503 4.8528 60.1025C4.68104 58.2803 4.94963 56.4927 4.99628 54.6904C5.00168 54.4818 5.08291 54.2741 5.07952 54.0664L4.90235 44.6535C4.8938 44.2656 4.83608 43.87 4.73737 43.4944C4.42741 42.316 4.38441 41.1168 4.34543 39.9081C4.30167 38.556 4.14738 37.2079 4.08552 35.856C4.05949 35.2894 4.07118 34.7003 4.19818 34.1517C4.50537 32.8247 4.20108 31.5093 4.21365 30.1898C4.22748 28.7277 3.81253 27.337 3.47076 25.9296C3.00916 24.0283 2.69807 22.0895 2.20277 20.198C1.51759 17.5824 1.20839 14.944 1.24146 12.2423C1.25567 11.1088 1.01462 9.97229 0.885483 8.80104ZM48.8034 54.9464C48.6181 54.3698 48.6098 53.9156 48.3797 53.7177C47.894 53.2995 47.8021 52.7694 47.7094 52.2213C47.584 51.4796 47.5142 50.7286 47.3862 49.9876C47.0805 48.2194 46.6194 46.4885 46.7017 44.6499C46.7548 43.4656 46.5496 42.2382 46.2655 41.0773C45.7476 38.9598 45.4951 36.8173 45.3325 34.6549C45.1091 31.6852 44.4711 28.7666 44.3287 25.7786C44.245 24.0196 43.8328 22.2564 43.3934 20.5395C42.871 18.4978 42.6996 16.4464 42.7418 14.3578C42.7548 13.7248 42.7694 13.0861 42.703 12.4583C42.5673 11.175 42.32 9.9016 42.2231 8.61628C42.0748 6.65008 41.6374 4.78916 40.7112 3.0284C40.3531 2.34764 39.8748 1.94715 39.1726 1.75825C38.2958 1.52248 37.4156 1.30399 36.4919 1.3797L30.4449 1.87909C28.5588 2.0913 26.6878 2.43588 24.807 2.69949C24.0603 2.80403 23.3054 2.85053 22.5537 2.91822L19.4005 3.19136C18.8879 3.23097 18.3716 3.22344 17.8589 3.26268C16.6865 3.35255 15.5166 3.51726 14.3431 3.54484L6.7089 3.61979C6.35128 3.6233 5.99178 3.69814 5.63706 3.67645C4.30016 3.5946 3.24317 4.15942 2.34662 5.07596C2.2254 5.1998 2.15109 5.5069 2.21911 5.65344C2.50669 6.27303 2.32876 6.90027 2.34737 7.52601C2.37252 8.36671 2.46871 9.20516 2.53159 10.0449C2.59446 10.8846 2.78999 11.7423 2.68411 12.5611C2.51034 13.906 2.68487 15.2088 2.90416 16.5078C3.18973 18.198 3.59462 19.8677 3.91639 21.5524C4.14198 22.7337 4.25942 23.9374 4.52449 25.1088C4.87016 26.6359 5.33515 28.1409 5.3974 29.7157C5.44606 30.9484 5.51824 32.1941 5.39538 33.4157C5.26159 34.7469 5.24298 36.0608 5.36634 37.3856C5.39677 37.7133 5.45926 38.0513 5.41211 38.3705C5.19256 39.8576 5.41865 41.31 5.66334 42.7699C5.817 43.6871 5.944 44.6159 5.98122 45.5434C6.04648 47.1717 6.04397 48.8034 6.05 50.4337C6.05516 51.7928 6.12293 53.1601 5.99895 54.5087C5.83913 56.2475 5.6558 57.9741 5.86089 59.7202C5.90263 60.0759 5.84014 60.4431 5.8375 60.8047C5.83611 60.9953 5.86013 61.186 5.87145 61.3585C5.98361 61.372 6.01744 61.3871 6.0412 61.3774C6.1814 61.3205 6.32098 61.2618 6.45741 61.197C9.49964 59.7479 12.7047 58.9693 16.0754 58.8614C16.4052 58.8508 16.7331 58.7866 17.062 58.7469C19.3431 58.4698 21.6245 58.207 23.9305 58.3734C24.2 58.393 24.5151 58.4376 24.7378 58.3274C25.5201 57.9405 26.3154 57.9395 27.1743 57.9039C28.6828 57.8413 30.1782 57.4638 31.679 57.2181L31.7052 56.9718C30.2503 56.8146 29.0321 55.7836 27.4707 56.0046C27.2669 56.0333 27.0373 56.0126 26.8419 55.9481C25.7752 55.5947 24.6991 55.5934 23.624 55.8635C23.1396 55.9851 22.7533 55.887 22.3277 55.5273C22.5069 55.3232 22.6353 55.0329 22.8146 54.9975C23.7001 54.8217 24.6087 54.5592 25.4913 54.6143C27.2593 54.7247 29.0448 54.8731 30.7013 55.6219C30.9195 55.7206 31.164 55.7603 31.3945 55.8334C32.2629 56.1085 33.0775 56.4605 33.7797 57.081C34.0955 57.3599 34.5581 57.5449 34.9806 57.6161C35.6297 57.7254 36.0803 58.0766 36.5006 58.5226C36.662 58.694 36.8071 58.972 36.9983 59.0101C38.35 59.2798 39.0325 60.5103 40.1418 61.1473C41.3863 61.8619 42.0033 63.294 43.0597 64.2637C43.1847 64.3785 43.2228 64.5841 43.3122 64.7414C43.4001 64.8959 43.4831 65.0595 43.6007 65.1904C44.4395 66.1228 45.3178 67.0219 46.1221 67.983C46.8877 68.8984 47.5788 69.8757 48.3241 70.8538C49.4182 69.7897 50.3732 68.5523 52.0369 68.0559C51.7777 67.5104 51.6306 67.0454 51.3623 66.6652C50.5965 65.5799 49.7907 64.5224 48.9818 63.468C48.6169 62.9921 48.185 62.5671 47.8234 62.0893C47.0085 61.012 46.2996 59.8429 45.395 58.8493C44.5499 57.9212 43.5373 57.134 42.5406 56.3582C42.0203 55.9532 41.4891 55.5768 41.0024 55.1216C40.5284 54.6781 39.9322 54.3609 39.3763 54.0095C39.0469 53.8011 38.6574 53.6764 38.3547 53.4385C37.7049 52.9287 37.0135 52.5218 36.218 52.2837C35.9312 52.1976 35.6732 52.0181 35.3875 51.9261C34.8777 51.7622 34.3622 51.6087 33.8394 51.4957C33.3703 51.3946 32.8583 51.4332 32.418 51.2694C31.5993 50.9626 30.7392 50.7796 29.8662 50.7265C28.603 50.6471 27.3421 50.4941 26.0894 50.31C25.6909 50.2515 25.2985 50.03 24.9508 49.8088C24.8091 49.7187 24.7934 49.4313 24.6802 49.1248C25.5867 49.1248 26.3633 48.9963 27.0794 49.1494C29.0209 49.5651 31.0901 49.2425 32.9413 50.1658C33.0921 50.2411 33.3029 50.1857 33.4787 50.2241C34.239 50.3894 35.0474 50.4545 35.7444 50.7648C37.0022 51.3253 38.3911 51.6683 39.4042 52.6991C39.4645 52.7604 39.5597 52.796 39.645 52.823C40.6623 53.1464 41.4159 53.8288 42.142 54.5738C42.4639 54.9038 42.8934 55.1297 43.3003 55.4216C43.6222 54.7873 44.1332 54.8003 44.5994 54.7594C45.9419 54.6426 47.2887 54.3421 48.8034 54.9464ZM15.0222 75.1865C14.6339 75.4424 14.1316 75.4862 13.9992 76.0229C13.8712 76.5425 13.6925 77.0501 13.5247 77.5591C13.1772 78.6118 12.457 79.373 11.514 79.8951C10.6727 80.3611 9.77929 80.7352 8.89959 81.1297C8.65565 81.2389 8.37198 81.3532 8.11835 81.331C7.297 81.2598 6.77152 81.7771 6.18782 82.1967C5.88566 82.4139 5.72496 82.7275 5.82568 83.0609C6.02196 83.7107 6.19851 84.3979 6.558 84.9582C6.92266 85.5269 7.46071 86.0059 7.98871 86.4457C9.46028 87.6719 10.7314 89.0513 11.6602 90.7399C12.1152 91.567 12.6123 91.7414 13.5305 91.6045C13.9995 91.5344 14.4798 91.4976 14.9536 91.5082C16.3956 91.5408 17.8285 91.8235 19.2813 91.517C20.4255 91.2757 21.6232 91.4093 22.7611 91.0288C23.8893 90.6516 24.1775 90.1013 23.696 89.0349C23.6343 88.898 23.6036 88.747 23.5382 88.6122C23.0751 87.6579 22.3482 87.2591 21.3103 87.3233C20.7074 87.3606 20.0856 87.4129 19.4984 87.3102C18.6049 87.154 17.7553 86.8604 17.2325 85.9961C16.8627 85.3846 16.5639 84.713 15.9606 84.2619C15.8521 84.1809 15.8046 84.0078 15.7486 83.8693C15.277 82.7044 16.4095 80.7824 17.726 80.5084C17.7553 80.5023 17.7899 80.5131 17.816 80.5021C18.3371 80.284 18.8837 80.1091 19.3695 79.8296C19.7819 79.5921 19.6845 79.0843 19.2267 78.9366C19.0657 78.8847 18.8657 78.9591 18.699 78.9161C18.3875 78.8358 17.8988 78.7891 17.8177 78.5918C17.5588 77.9619 17.0857 77.9926 16.5638 77.9481C15.837 77.8861 15.649 77.6633 15.4947 76.9031C15.4651 76.7573 15.4479 76.5657 15.3503 76.4844C14.932 76.1375 15.0557 75.6846 15.0222 75.1865ZM53.2367 69.084C51.3718 69.5533 49.3112 71.5414 48.6378 73.4453C49.0094 73.9403 49.2459 74.0666 49.7739 74.2393C50.9462 74.6227 52.1538 74.9439 53.2562 75.4773C53.9264 75.8018 54.5193 76.4032 54.9856 77.0044C56.0699 78.4026 56.6935 80.033 57.1437 81.7389C57.3402 82.4837 57.6883 83.1788 58.3875 83.8678C58.4859 82.5884 58.9111 81.5818 59.4129 80.5922C60.0934 79.2505 60.7006 77.8719 61.3766 76.5276C61.8208 75.6437 62.2267 74.7113 62.8314 73.9428C64.5236 71.7919 66.0786 69.5212 68.1235 67.662C68.5468 67.277 68.9906 67.036 69.5765 67.0751C69.83 67.092 70.0871 67.0555 70.4795 67.0365C70.2709 66.8046 70.1806 66.6262 70.0375 66.5582C69.1393 66.131 68.238 65.7072 67.2049 66.1509C66.2119 66.5776 65.1529 66.8788 64.4906 67.845C63.9327 68.6587 63.3891 69.4928 62.74 70.231C62.0482 71.0176 61.2928 71.7706 60.4647 72.4088C59.8794 72.8598 59.1413 73.131 58.4417 73.4089C58.1644 73.5193 57.7953 73.4874 57.4886 73.4226C56.0745 73.1245 55.2651 72.0839 54.5253 70.9629C54.1133 70.3381 53.6794 69.7277 53.2367 69.084ZM18.3157 77.7803C19.0711 77.7235 19.7237 77.1183 20.3962 76.5795C21.6885 75.5441 23.0566 74.5462 23.7759 72.9988C24.2552 71.9673 24.5855 70.8643 24.9386 69.7791C25.1232 69.2118 25.2658 68.6201 25.3355 68.0285C25.5389 66.3018 25.6979 64.5695 25.868 62.839C25.8792 62.7249 25.8376 62.6056 25.8099 62.4172C24.453 62.2111 23.137 62.1485 22.0475 62.9144L22.0568 65.3773C22.0243 66.5775 22.0038 67.7882 21.6264 68.941C21.3756 69.7074 21.0468 70.4512 20.7143 71.1879C19.7931 73.2287 18.7973 75.2188 16.7891 76.461C16.6828 76.5269 16.5537 76.7183 16.5821 76.8018C16.6307 76.9446 16.7746 77.0892 16.9153 77.1597C17.331 77.3676 17.7647 77.5399 18.3157 77.7803ZM62.0804 80.8773L62.5807 77.713C61.4554 79.4226 60.7825 81.119 60.2728 82.9218L62.0804 80.8773ZM7.92596 62.0682C7.39055 62.1598 6.90166 62.3383 6.4554 62.8378C7.17314 62.8438 7.52346 62.4074 7.92596 62.0682ZM10.086 62.0936C10.2526 61.8351 10.3435 61.7484 10.3264 61.7097C10.2867 61.6203 10.1944 61.5543 10.1235 61.4786C10.0563 61.5484 9.93672 61.6166 9.93433 61.6884C9.93069 61.7956 10.0098 61.9054 10.086 62.0936ZM25.2569 42.7175L21.7334 41.9894L20.7535 41.8096C20.2703 41.7028 19.7481 41.5418 19.5603 41.0742C19.2471 40.2942 18.6182 39.8449 18.0181 39.3522C16.9241 38.4538 16.4584 37.2031 16.2635 35.8948C15.9576 33.8413 16.1647 31.7795 16.8836 29.8353C17.4948 28.1828 18.4142 26.6913 20.1122 25.8661C20.5458 25.6556 20.9485 25.3805 21.36 25.1263C22.5633 24.3825 23.9176 24.0656 25.2745 23.7683C25.5604 23.7056 25.8794 23.7468 26.1764 23.7882C26.8938 23.8887 27.6203 23.9671 28.3178 24.1504C28.9208 24.3089 29.5325 24.5277 30.0627 24.8478C31.0137 25.4223 31.934 26.057 32.8147 26.7344C33.5182 27.2757 33.9686 28.0384 34.334 28.8469C34.5326 29.286 34.8066 29.693 34.9835 30.1395C35.1466 30.5513 35.2369 30.9936 35.3373 31.4276C35.4047 31.719 35.3869 32.0368 35.4895 32.3121C35.7772 33.0829 35.6501 33.8441 35.5781 34.6303C35.4549 35.9769 35.1504 37.2522 34.3861 38.3768C33.1919 40.1341 31.7355 41.636 29.5972 42.1458C28.2286 42.4718 26.7947 42.5252 25.2569 42.7175ZM18.5826 38.4836C19.0808 38.9102 19.6668 39.1831 19.8584 39.6256C20.2123 40.4441 20.8412 40.6019 21.5692 40.724C21.8661 40.7737 22.1582 40.8521 22.4526 40.917C24.1751 41.2969 25.8989 41.5662 27.6391 41.0058C27.7798 40.9605 27.9387 40.9712 28.0894 40.9566C29.5427 40.8157 30.7166 40.0787 31.769 39.1529C33.5166 37.6157 34.1155 35.5625 34.2439 33.3292C34.2592 33.0636 34.1923 32.7925 34.1542 32.5251C34.1117 32.2275 34.0443 31.9332 34.0124 31.6348C33.8284 29.9172 33.0535 28.4289 31.8556 27.2753C30.8728 26.3288 29.6248 25.6701 28.2123 25.3795C26.525 25.0324 24.9013 25.2883 23.3204 25.7986C22.4709 26.0728 21.7053 26.6048 20.9008 27.0187C19.0615 27.965 18.2262 29.6207 17.6682 31.4954C17.3092 32.7015 17.244 33.9152 17.3172 35.1608C17.3488 35.6982 17.489 36.1443 17.7851 36.5859C18.1788 37.1736 18.5901 37.7687 18.5826 38.4836ZM6.49639 11.6803L7.33648 11.3664C7.76313 11.2453 8.19417 11.1244 8.63176 11.0618C9.0315 11.0047 9.42206 11.0826 9.8433 10.9173C10.2276 10.7666 10.7246 10.9287 11.1674 10.8949L19.0147 10.264C19.2828 10.2418 19.548 10.183 19.8138 10.1374L22.9276 9.60239C23.0165 9.58722 23.1454 9.62846 23.1939 9.58096C24.0863 8.70703 25.2944 9.1564 26.3241 8.84554C26.8571 8.6846 27.4589 8.75291 28.0294 8.71255L32.9024 8.36985C33.382 8.34001 33.866 8.37975 34.348 8.38827C34.6465 8.39354 34.9463 8.41936 35.2433 8.40118C35.6855 8.37398 35.9796 8.56326 36.0051 8.92815C36.0284 9.26007 35.7183 9.5599 35.2883 9.53144C34.7183 9.49372 34.1481 9.41412 33.5866 9.30732C33.2071 9.23512 32.9939 9.35546 32.6556 9.56867C31.9396 10.0202 31.0827 10.282 30.1859 9.97066C30.0232 9.91401 29.8451 9.85434 29.6781 9.86424L25.3436 10.1547C25.1504 10.1695 24.9594 10.2789 24.7778 10.3663C24.52 10.4902 24.2856 10.682 24.0166 10.7601C23.3857 10.943 22.7322 11.0493 22.1024 11.2352C21.2649 11.4824 20.4535 11.6792 19.5465 11.5598C18.3714 11.405 17.2385 11.7554 16.1433 12.1824C16.0602 12.2148 15.971 12.2435 15.883 12.2502L10.9208 12.6173C10.687 12.633 10.3725 12.6472 10.2238 12.5167C9.65543 12.0185 9.11713 12.2635 8.55807 12.4824C8.38958 12.5483 8.21807 12.6132 8.0419 12.6517C7.05406 12.8682 7.00427 12.8386 6.60931 11.8929C6.57511 11.8108 6.52582 11.7352 6.49639 11.6803Z" fill="white"/>
</svg>
