<?xml version="1.0" encoding="UTF-8"?>
<svg xmlns="http://www.w3.org/2000/svg" viewBox="0 0 279.483 96.373" height="96.373px" width="279.483px">
  <g xmlns="http://www.w3.org/2000/svg" transform="matrix(-1 0 0 -1 279.483 96.373)">
    <path fill-rule="evenodd" clip-rule="evenodd" d="M259.912,95.64c-31.238-0.727-62.48-1.352-93.714-2.252  c-8.463-0.246-16.89-1.631-25.354-1.975c-26.23-1.068-52.465-2.27-78.708-2.66c-16.091-0.236-32.202,0.936-48.305,1.438  c-2.161,0.066-4.336,0.031-6.491-0.137c-5.523-0.436-7.541-2.361-7.326-7.885c0.909-23.375,2.106-46.743,2.969-70.121  C3.459-0.808,2.714,0.541,16.367,0.334c19.418-0.292,38.848-0.518,58.261-0.123c37.048,0.754,74.083,2.475,111.133,2.796  c21.377,0.185,42.771-1.703,64.165-2.404c7.425-0.243,14.89,0.048,22.307,0.525c5.632,0.363,7.945,3.515,7.071,9.312  c-2.107,13.982-2.197,27.93-1.289,42.06c0.753,11.7,0.039,23.544-0.766,35.276c-0.517,7.563-2.746,8.854-10.361,8.561  c-2.329-0.088-4.657-0.217-6.986-0.328C259.905,95.888,259.908,95.765,259.912,95.64z M86.952,4.398  c-13.471-0.64-26.438-1.719-39.407-1.739C35.459,2.642,23.376,4.006,11.283,4.214C7.558,4.277,6.088,5.25,5.89,8.767  c-0.178,3.155-0.68,6.297-0.777,9.451C4.695,31.846,4.502,45.483,3.959,59.106C3.701,65.567,2.655,71.999,2.31,78.458  c-0.29,5.414,1.892,8.355,6.284,8.426c6.447,0.107,12.9-0.289,19.352-0.42c13.717-0.279,27.437-0.791,41.153-0.713  c13.407,0.074,26.815,0.631,40.212,1.221c9.631,0.428,19.234,1.52,28.866,1.859c37.048,1.305,74.104,2.432,111.157,3.611  c5.765,0.186,11.539,0.227,17.303,0.496c4.698,0.221,7.235-1.977,7.342-6.547c0.269-11.641,0.328-23.291,0.489-34.938  c0.189-13.76-0.017-27.546,0.822-41.266c0.28-4.59-1.353-5.77-4.823-5.954c-7.139-0.379-14.305-0.743-21.441-0.546  c-18.586,0.517-37.163,1.927-55.742,1.919C157.678,5.591,122.073,4.839,86.952,4.398z"></path>
  </g>
</svg>
