<svg width="398" height="137" viewBox="0 0 398 137" fill="none" xmlns="http://www.w3.org/2000/svg">
<path d="M19.9805 117.286C19.9246 117.679 19.5875 118.58 18.9669 119.119C18.4199 119.594 17.6129 119.599 17.0752 120.106C16.5563 120.596 15.9193 120.954 15.3816 121.489C15.2394 121.631 15.0725 121.743 14.9582 121.577C14.1215 120.363 14.8998 118.424 15.0683 117.458C15.2003 116.701 15.7432 115.152 15.9439 112.496C15.9999 111.755 16.0853 109.795 16.1132 107.058C16.1391 104.526 16.8169 101.6 16.96 100.045C17.0724 98.8246 17.4367 96.0282 17.6654 94.0036C17.7008 93.6898 17.833 93.3016 17.8347 93.1839C17.8364 93.0662 17.7246 93.2338 17.5832 93.2923C17.2976 93.4103 16.822 92.9578 16.3986 92.4226C16.0881 92.0302 16.3105 91.3777 16.4231 89.3048C16.5174 87.5688 16.5358 84.4375 16.5925 82.6575C16.6835 79.802 16.8745 78.676 16.96 77.5481C16.9816 77.263 17.0438 77.04 17.0726 74.5217C17.1014 72.0034 17.1014 67.197 17.0735 64.6093C17.0273 60.336 17.0438 57.1711 17.1293 56.3201C17.2666 54.9545 17.7212 52.8221 17.8347 51.8627C18.0693 49.8791 18.2293 48.7575 18.2589 45.9962C18.2656 45.3728 17.894 47.8464 17.4418 49.2275C17.3379 49.5449 17.2166 49.7093 17.131 49.656C15.8817 48.8767 17.0438 46.0478 17.5231 44.1917C18.1535 41.7503 17.5536 39.8359 17.5527 39.6089C17.5525 39.5538 17.7754 39.8291 17.9177 40.0281C18.1771 40.3909 18.2869 37.3819 18.3148 32.3876C18.3268 30.2419 18.4004 29.7304 18.2039 29.4484C17.9741 29.1186 17.4418 28.8853 17.1598 28.2934C16.9879 27.2493 17.2132 26.0062 17.2428 23.7259C17.2149 23.1831 17.159 22.9036 17.1014 22.6157" stroke="#BCC9A9" stroke-width="21" stroke-linecap="round"/>
<path d="M28.1402 26.7327C25.8896 24.4821 20.8841 19.9489 19.5549 18.151C19.1076 17.5459 18.723 16.5999 18.1845 15.8253C17.8937 15.4069 25.0953 15.0471 34.754 14.8074C41.6041 14.6374 48.0478 15.5194 49.6615 15.938C51.3466 16.3752 56.8353 16.3566 61.7532 16.0597C70.4587 15.534 72.3779 16.8289 75.2903 17.3692C83.6878 18.9269 87.6271 16.3638 90.6862 16.1169C92.8683 15.9408 95.7418 18.4962 103.603 18.9793C107.309 19.207 110.182 19.5768 112.326 19.6358C114.005 19.6821 119.095 19.9346 126.009 19.8755C130.129 19.8404 131.536 19.219 135.631 18.625C141.777 17.7336 145.264 18.5034 144.96 18.3853C140.006 16.4618 157.876 18.2601 160.338 18.9184C160.875 19.0973 161.583 19.3335 162.184 19.4551C162.785 19.5768 163.258 19.5768 163.744 19.5768" stroke="#BCC9A9" stroke-width="21" stroke-linecap="round"/>
<path d="M21.342 124.053C22.5299 124.053 24.4334 123.817 37.9115 123.4C42.6449 123.253 47.8331 122.514 51.1588 122.21C54.4845 121.906 55.7833 121.906 66.7247 121.493C77.666 121.079 98.2106 120.253 108.971 119.768C120.091 119.267 121.396 119.044 123.063 118.985C126.291 118.87 130.341 118.45 138.131 118.387C141.21 118.362 143.815 118.922 145.491 119.103C145.854 119.142 146.205 119.28 149.753 119.341C153.3 119.401 160.03 119.401 163.911 119.46C169.837 119.551 173.14 120.589 176.317 120.892C180.648 121.304 186.275 121.072 193.257 120.893C199.175 120.742 209.921 120.833 215.869 120.715C222.652 120.58 224.44 119.999 229.355 119.82C233.322 119.676 240.291 119.759 244.588 119.877C248.885 119.995 250.302 120.232 254.161 120.353C258.019 120.475 264.277 120.475 267.796 120.593C271.918 120.731 273.576 121.19 275.836 121.308C282.403 121.652 288.843 122.142 291.64 122.561C295.209 123.095 298.15 122.504 300.933 122.325C311.25 121.662 313.646 121.906 315.852 122.083C317.561 122.22 318.662 123.573 320.866 123.754C322.24 123.867 323.553 124.053 324.684 124.112C325.71 124.165 331.26 124.411 340.487 124.588C347.726 124.727 352.642 125.484 355.561 125.425C358.566 125.364 363.952 123.108 367.857 122.563C370.642 122.173 374.478 122.028 380.009 121.729C381.173 121.666 381.398 121.198 381.46 120.838C382.254 116.282 381.519 107.845 381.7 104.981C381.823 103.027 382.357 100.925 382.654 97.5312C383.086 92.5947 383.43 86.3913 383.727 80.5539C384.118 72.8764 383.906 67.4067 384.085 66.396C384.616 63.3923 385.097 60.0147 385.455 52.7425C385.778 46.1856 385.577 33.7812 385.4 27.2175C385.212 20.2817 384.385 19.5804 384.029 18.9256C383.648 18.2235 380.829 18.4998 374.714 19.0365C370.853 19.3754 365.411 19.219 361.079 19.5732C356.746 19.9274 353.676 20.6359 349.733 21.0008C341.096 21.8002 335.729 21.4838 334.836 21.6627C334.074 21.8154 331.925 22.3139 328.179 23.2084C326.236 23.6725 324.079 23.5125 315.428 23.2174C306.776 22.9222 291.663 22.3318 281.87 22.1458C272.077 21.9597 268.063 22.1959 262.275 22.1994C256.488 22.203 249.05 21.9669 242.443 21.9043C235.836 21.8416 230.287 21.9597 226.306 22.1976C222.326 22.4356 220.082 22.7898 215.503 23.0313C210.923 23.2728 204.075 23.3909 199.72 23.5698C191.401 23.9116 188.332 23.8739 185.233 23.2191C184.014 22.9615 183.552 22.6825 185.493 22.856C191.823 23.4219 196.894 24.1101 198.556 23.695C201.193 23.0365 203.57 22.3211 206.476 22.1422C211.851 21.8112 215.739 21.8452 216.454 21.3103C216.763 21.0796 216.698 20.6573 216.58 20.2978C216.043 18.6634 211.603 16.7288 206.932 16.176C205.414 15.9963 204.536 17.1903 201.815 17.4282C195.101 18.0153 188.453 17.5517 184.997 17.1349C183.664 16.974 183.194 16.8361 169.727 16.5982C156.259 16.3602 129.811 16.006 115.773 15.9416C101.735 15.8772 100.908 16.1133 99.4199 16.7663C95.7566 18.3734 92.9081 19.8129 90.2407 20.2298C88.2971 20.5335 85.0938 20.5285 79.0829 21.652C73.072 22.7755 64.3346 24.9008 59.0071 26.527C51.8524 28.7108 49.1427 31.6094 46.1139 34.6399C44.3237 36.4313 41.7864 38.497 39.0332 40.4774C33.4902 44.4644 28.0435 46.6439 24.3493 47.5384C22.9085 47.8873 22.3081 47.8426 21.8269 47.5474C21.3456 47.2522 20.9914 46.6618 24.174 57.0432C27.3566 67.4246 34.0867 88.7957 37.7898 100.336C41.8464 112.978 42.8061 114.389 43.2838 114.453C44.5071 114.618 42.341 110.474 40.2622 106.61C37.7426 101.927 34.2369 98.8962 31.9131 97.5849C31.0174 97.0795 30.6519 96.982 29.6429 97.5706C28.6339 98.1592 26.9809 99.458 26.1884 100.363C25.3959 101.268 25.5139 101.741 26.1651 102.988C26.8163 104.235 27.997 106.242 28.9004 107.453C29.8039 108.664 30.3942 109.018 34.0044 108.61C37.6145 108.202 44.2266 107.022 56.0749 106.236C67.9233 105.451 84.8076 105.097 100.649 106.213C116.49 107.329 130.777 109.927 144.69 111.383C158.603 112.839 171.709 113.076 183.714 113.965C195.72 114.854 206.229 116.389 213.59 117.18C220.952 117.97 224.848 117.97 228.922 117.557C232.995 117.144 237.128 116.317 245.219 115.773C253.311 115.23 265.236 114.993 279.231 113.514C293.226 112.034 308.93 109.319 320.149 107.802C331.367 106.285 337.625 106.049 341.971 106.163C348.583 106.337 352.76 107.236 355.858 107.177C358.998 107.118 363.25 105.576 366.723 104.734C367.32 104.589 367.68 104.496 367.803 103.018C368.162 98.7216 367.451 95.3147 367.093 93.1232C366.34 88.5117 368.152 84.1122 370.118 81.731C371.534 80.0168 371.623 76.4912 371.091 71.2584C370.493 65.3652 368.166 60.741 367.809 57.5263C367.531 55.0324 368.041 53.4528 368.755 52.2059C369.734 50.4953 370.07 45.2593 370.487 38.9406C370.753 34.903 371.981 33.1766 371.744 32.5808C371.452 31.8423 364.292 32.0996 354.574 32.1586C349.202 32.1913 346.466 32.5755 340.668 32.6363C335.697 32.6884 326.605 32.3429 319.265 32.6935C311.925 33.0442 306.612 33.9888 290.65 34.3573C274.689 34.7258 248.241 34.4897 226.115 34.0138C203.989 33.5379 186.987 32.8295 177.46 32.5236C167.934 32.2177 166.399 32.3357 163.896 32.9869C161.393 33.6381 157.969 34.8188 154.966 35.6042C151.962 36.3896 149.483 36.7438 144.604 36.513C139.725 36.2822 132.523 35.4557 124.68 35.207C116.837 34.9584 108.572 35.3126 103.252 35.7903C95.7601 36.4628 93.0261 37.7027 91.2461 38.2966C88.3293 39.2699 81.6197 39.7314 73.6945 39.7922C69.4197 39.825 67.2685 39.2555 65.5422 39.3736C64.1283 39.4703 61.5545 41.0337 55.9157 43.5884C47.3059 47.489 41.146 49.034 40.1924 49.4491C36.3223 51.1336 37.085 59.6426 36.4911 65.3512C36.1928 68.2178 36.9633 69.4247 39.0922 72.856C40.9441 75.8407 44.5271 81.2462 46.8832 84.5755C52.0797 91.9184 57.8228 93.7547 60.5008 94.5294C61.7467 94.8897 62.8247 94.9498 87.2227 94.3022C111.621 93.6545 159.322 92.2377 184.486 91.6259C209.649 91.014 210.83 91.2502 214.98 91.3718C219.131 91.4935 226.215 91.4935 230.16 91.6706C234.104 91.8477 234.695 92.2019 238.482 93.447C242.269 94.6922 249.236 96.8175 260.912 98.5617C272.589 100.306 288.765 101.605 303.297 101.979C317.828 102.353 330.226 101.762 339.387 101.104C348.549 100.445 354.098 99.7371 356.957 99.195C359.816 98.6529 359.816 98.2987 357.985 97.2307C356.155 96.1627 352.495 94.3916 348.602 93.066C344.709 91.7403 340.695 90.9138 335.439 90.7242C330.183 90.5346 323.807 91.0069 317.157 92.1947C310.508 93.3826 303.778 95.2718 298.953 96.4811C294.128 97.6905 291.412 98.1628 285.172 98.4061C278.933 98.6494 269.251 98.6494 256.293 99.712C243.336 100.775 227.396 102.9 216.174 103.936C204.951 104.972 198.93 104.854 192.699 103.907C186.468 102.961 180.21 101.19 170.256 100.277C160.302 99.3649 146.842 99.3649 138.786 98.2433C130.731 97.1216 128.487 94.8782 126.977 93.1322C125.467 91.3861 124.759 90.2054 123.095 89.302C121.431 88.3985 118.834 87.8082 110.884 85.3197C102.933 82.8313 89.7094 78.4626 82.1886 76.094C74.6677 73.7254 73.2508 73.4893 70.7499 72.5411C68.2489 71.5929 64.7067 69.9399 62.0555 68.439C59.4042 66.938 57.7512 65.6392 55.5418 63.022C50.2743 56.782 47.4646 52.4939 46.5147 52.612C45.912 52.6869 45.0924 52.9662 44.3715 54.0914C43.6505 55.2167 43.0602 57.2239 43.2283 60.9146C43.3965 64.6052 44.3411 69.9185 45.6542 73.4821C46.9673 77.0457 48.6203 78.6987 51.2429 79.9635C57.1065 82.7914 63.1825 83.1425 67.5834 83.5003C72.2067 83.8762 75.0076 83.5039 75.6033 82.9708C75.9612 82.6506 75.9629 81.8473 75.9647 81.1282C75.9665 80.409 75.8484 79.7006 73.19 75.9706C70.5316 72.2406 65.3364 65.5104 62.5421 61.8663C59.7477 58.2222 59.5115 57.868 59.567 58.1578C59.8114 59.4352 60.932 61.0738 62.8301 62.0881C65.7585 63.6531 71.7553 60.8555 78.0668 58.7106C80.8085 57.7788 82.7252 57.5102 87.1816 57.7409C91.6379 57.9717 98.6042 58.7982 105.912 60.3457C113.22 61.8931 120.659 64.1365 125.789 65.5283C130.92 66.9202 133.518 67.3924 133.911 67.1635C134.305 66.9345 132.416 65.9899 124.004 63.7322C115.592 61.4745 100.715 57.9324 88.0922 55.9895C75.4692 54.0467 65.5511 53.8106 60.1466 53.748C54.7421 53.6853 54.1518 53.8034 53.7886 53.6871C53.4255 53.5708 53.3074 53.2166 81.2297 52.857C109.152 52.4975 165.118 52.1432 213.608 51.3114C262.098 50.4795 301.416 49.1807 322.852 48.7478C344.287 48.3148 346.649 48.7871 348.042 49.0304C349.781 49.3339 352.162 49.9822 355.263 51.2327C356.394 51.689 356.474 52.1289 355.885 52.7837C354.231 54.6235 351.361 57.0092 348.803 60.9897C345.658 65.8823 345.028 71.3174 345.321 74.5358C345.696 78.6435 352.173 77.654 353.49 79.0834C353.894 79.5223 354.32 80.1514 354.622 78.3892C354.924 76.6271 355.043 72.4946 351.856 69.7753C348.67 67.0561 342.176 65.8754 336.647 64.3816C331.117 62.8878 326.748 61.1167 321.9 60.2043C317.052 59.292 311.857 59.292 306.524 59.6462C301.191 60.0004 295.878 60.7088 290.484 61.7232C285.09 62.7375 279.777 64.0363 276.095 64.8235C272.414 65.6106 270.524 65.8468 252.667 65.8503C234.809 65.8539 201.041 65.6178 181.283 65.8503C161.526 66.0829 156.803 66.7913 147.109 67.2153C137.414 67.6393 122.891 67.7574 115.056 67.8773C105.417 68.0247 103.764 68.8308 100.368 69.2494C99.5881 69.3456 99.1122 69.3102 100.935 70.3138C102.758 71.3174 106.891 73.3247 109.787 74.4768C112.683 75.6289 114.218 75.865 123.983 75.9867C133.747 76.1083 151.694 76.1083 161.175 76.2264C170.657 76.3445 171.129 76.5806 174.147 77.1745C177.165 77.7685 182.714 78.7131 204.524 79.1406C226.333 79.5682 264.234 79.4501 283.995 79.3302C303.756 79.2104 304.229 79.0923 304.826 78.9725C307.31 78.4741 309.71 78.3767 315.784 77.8991C318.796 77.6622 322.104 78.0118 329.317 80.3339C331.535 80.7596 333.328 80.9958 335.292 81.3536C336.194 81.4752 336.902 81.4752 337.632 81.4752" stroke="#BCC9A9" stroke-width="21" stroke-linecap="round"/>
<path fill-rule="evenodd" clip-rule="evenodd" d="M27.8709 1.04411C72.3556 2.07758 116.846 2.96606 161.325 4.24546C173.377 4.59516 185.377 6.56402 197.431 7.05304C234.784 8.57127 272.144 10.28 309.515 10.8344C332.43 11.1699 355.373 9.50381 378.304 8.79019C381.382 8.69636 384.479 8.74612 387.548 8.98494C395.413 9.60474 398.287 12.3412 397.981 20.1939C396.686 53.4229 394.982 86.6419 393.753 119.875C393.075 138.151 394.136 136.233 374.693 136.527C347.041 136.942 319.371 137.264 291.726 136.702C238.967 135.63 186.227 133.184 133.466 132.727C103.024 132.464 72.5578 135.148 42.0915 136.145C31.5179 136.49 20.8873 136.077 10.325 135.399C2.30474 134.883 -0.989083 130.402 0.255544 122.161C3.25603 102.285 3.38416 82.4568 2.09111 62.3702C1.0188 45.738 2.03561 28.901 3.18197 12.2233C3.91821 1.472 7.09243 -0.363233 17.9366 0.053284C21.2533 0.178381 24.5685 0.361756 27.8851 0.519549C27.8808 0.691558 27.8766 0.866414 27.8709 1.04411ZM274.176 130.75C293.359 131.66 311.825 133.194 330.294 133.222C347.505 133.246 364.712 131.307 381.933 131.012C387.238 130.922 389.331 129.539 389.613 124.539C389.866 120.054 390.581 115.588 390.719 111.104C391.315 91.7311 391.589 72.3453 392.363 52.9794C392.73 43.7947 394.22 34.6512 394.711 25.4694C395.124 17.773 392.017 13.5922 385.762 13.4913C376.581 13.3392 367.392 13.9021 358.204 14.0883C338.67 14.485 319.132 15.2128 299.6 15.1019C280.507 14.9967 261.413 14.2049 242.335 13.3662C228.62 12.7578 214.945 11.2054 201.229 10.7235C148.47 8.86837 95.7001 7.26627 42.9345 5.59026C34.7248 5.32585 26.5023 5.26756 18.2941 4.88516C11.6039 4.57099 7.991 7.69559 7.83863 14.1921C7.45555 30.7405 7.37156 47.3017 7.14229 63.8586C6.87314 83.4192 7.16646 103.017 5.97168 122.521C5.57294 129.046 7.89843 130.723 12.8399 130.985C23.0063 131.523 33.211 132.041 43.3731 131.761C69.8407 131.026 96.2954 129.021 122.753 129.033C173.458 129.054 224.162 130.123 274.176 130.75Z" fill="black"/>
</svg>
