<?xml version="1.0" encoding="UTF-8"?>
<!-- Generator: Adobe Illustrator 16.0.0, SVG Export Plug-In . SVG Version: 6.00 Build 0)  -->
<svg xmlns="http://www.w3.org/2000/svg" xmlns:xlink="http://www.w3.org/1999/xlink" version="1.1" id="Layer_1" x="0px" y="0px" width="213.721px" height="78.09px" viewBox="0 0 213.721 78.09" xml:space="preserve">
<path fill-rule="evenodd" clip-rule="evenodd" d="M39.767,76.145c-10.941,0-21.889,0.192-32.816-0.194  c-1.767-0.063-4.563-2.458-4.94-4.196c-0.965-4.457-1.119-9.152-1.08-13.747c0.069-8.235,0.742-16.467,0.727-24.699  c-0.01-5.443-0.405-10.948-1.291-16.316C-1.314,6.806,2.764,0.42,12.982,0.138c12.253-0.339,24.541,0.399,36.809,0.804  c15.094,0.497,30.18,1.293,45.277,1.666c18.598,0.46,37.205,0.902,55.804,0.784c8.938-0.057,17.857-1.522,26.8-2.156  c8.761-0.622,17.548-1.404,26.303-1.204c2.254,0.051,6.125,3.348,6.354,5.468c1.114,10.289,1.226,20.686,1.727,31.042  c0.364,7.539,0.78,15.076,1.18,22.614c0.141,2.65,0.745,5.367,0.36,7.937c-1.033,6.899-6.072,11.02-13.212,10.998  c-9.104-0.028-18.208-0.235-27.312-0.408c-13.905-0.263-27.813-0.447-41.713-0.899c-6.292-0.204-12.563-1.368-18.848-1.413  c-24.246-0.173-48.495-0.07-72.743-0.07C39.768,75.582,39.767,75.863,39.767,76.145z M187.482,73.865  c0,0.242-0.001,0.483-0.002,0.726c3.995,0,8.021,0.294,11.974-0.113c2.276-0.234,4.685-1.234,6.597-2.533  c4.626-3.139,3.792-7.926,3.396-12.646c-0.621-7.421-1.68-14.927-1.145-22.295c0.756-10.403,0.424-20.588-2.242-30.628  c-0.391-1.469-2.41-3.493-3.753-3.554c-6.608-0.298-13.258-0.267-19.866,0.105c-12.902,0.728-25.777,1.964-38.684,2.572  c-5.941,0.281-11.929-0.642-17.895-0.629C112.948,4.897,100.029,5.46,87.12,5.276C72.921,5.073,58.733,4.182,44.535,3.77  C34.935,3.493,25.32,3.668,15.72,3.375C6.791,3.102,2.667,8.009,4.073,16.763c0.848,5.279,0.708,10.729,0.855,16.106  c0.324,11.913,0.42,23.836,0.985,35.736c0.067,1.405,2.407,3.78,3.813,3.872c9.726,0.632,19.491,1.166,29.229,0.983  c12.574-0.234,25.142-1.805,37.699-1.664c25.165,0.281,50.318,1.439,75.481,2.021C163.912,74.09,175.7,73.865,187.482,73.865z"></path>
</svg>
