<svg width="398" height="137" viewBox="0 0 398 137" fill="none" xmlns="http://www.w3.org/2000/svg">
<path fill-rule="evenodd" clip-rule="evenodd" d="M27.8703 1.04192C72.355 2.07539 116.845 2.96385 161.324 4.24327C173.376 4.59297 185.377 6.56183 197.43 7.05084C234.783 8.56906 272.143 10.2778 309.515 10.8322C332.429 11.1677 355.372 9.50161 378.304 8.78799C381.381 8.69417 384.479 8.74393 387.547 8.98274C395.413 9.60255 398.286 12.3391 397.98 20.1917C396.686 53.4207 394.981 86.6397 393.752 119.873C393.074 138.149 394.135 136.231 374.692 136.525C347.04 136.94 319.371 137.261 291.725 136.7C238.967 135.628 186.227 133.182 133.466 132.725C103.024 132.462 72.5572 135.146 42.0909 136.143C31.5173 136.488 20.8867 136.074 10.3245 135.396C2.30418 134.88 -0.989643 130.4 0.254986 122.159C3.25547 102.283 3.38359 82.4546 2.09056 62.368C1.01823 45.7358 2.03505 28.8988 3.18141 12.2211C3.91764 1.4698 7.09187 -0.365433 17.936 0.0510864C21.2527 0.176178 24.5679 0.359558 27.8845 0.517349C27.8802 0.689362 27.876 0.864212 27.8703 1.04192ZM274.175 130.748C293.359 131.658 311.825 133.192 330.293 133.22C347.504 133.244 364.711 131.305 381.932 131.009C387.237 130.92 389.33 129.537 389.612 124.537C389.866 120.052 390.581 115.586 390.719 111.102C391.314 91.7289 391.589 72.3431 392.362 52.9772C392.73 43.7925 394.219 34.649 394.71 25.4672C395.123 17.7708 392.016 13.59 385.762 13.4891C376.581 13.337 367.391 13.8999 358.203 14.0862C338.669 14.4828 319.131 15.2106 299.599 15.0997C280.507 14.9945 261.413 14.2027 242.335 13.364C228.62 12.7556 214.944 11.2032 201.228 10.7213C148.469 8.86618 95.6996 7.26408 42.9339 5.58806C34.7243 5.32365 26.5018 5.26537 18.2935 4.88297C11.6033 4.5688 7.99043 7.69339 7.83805 14.1899C7.455 30.7383 7.37098 47.2995 7.1417 63.8564C6.87257 83.417 7.1659 103.015 5.97111 122.518C5.57237 129.043 7.89787 130.721 12.8393 130.982C23.0057 131.521 33.2105 132.039 43.3726 131.759C69.8401 131.024 96.2948 129.019 122.752 129.031C173.457 129.052 224.161 130.121 274.175 130.748Z" fill="white"/>
</svg>
