<svg width="75" height="97" viewBox="0 0 75 97" fill="none" xmlns="http://www.w3.org/2000/svg">
<path fill-rule="evenodd" clip-rule="evenodd" d="M25.2691 43.6392L25.5834 39.2673C25.616 38.7587 25.5816 38.2459 25.608 37.7366C25.7002 35.958 25.755 34.1755 25.9242 32.404C26.0312 31.2815 25.9634 30.1781 25.9408 29.0613C25.9124 27.6697 26.1051 26.2732 26.2124 24.8796C26.2255 24.7092 26.3009 24.5438 26.3603 24.33C25.8069 23.8078 25.5825 23.1054 25.3886 22.3519C25.0832 21.1643 24.8022 19.9865 24.8224 18.7493C24.8257 18.5409 24.7147 18.3069 24.5966 18.1238C23.708 16.7434 23.6838 15.248 23.9932 13.708C24.0271 13.5394 24.1157 13.3643 24.2262 13.2318C24.8744 12.4547 25.4636 11.6078 26.2088 10.9367C27.8091 9.49542 29.22 7.92485 30.2675 6.02686C30.8903 4.89812 31.8195 4.00529 32.8163 3.22257C33.3831 2.77727 34.1086 2.53844 34.8824 2.71201L36.4407 3.04776L37.9313 3.32852C38.406 3.40985 38.8822 3.48225 39.3596 3.54569L41.3123 3.78549C41.7894 3.84519 42.264 3.93225 42.7427 3.96891C44.0809 4.07139 45.4197 4.21232 46.7598 4.23023C48.6346 4.25523 50.5108 4.18872 52.3862 4.14637C52.7537 4.13817 53.0967 4.15234 53.3847 4.41144C53.5995 4.60472 53.815 4.61014 54.0811 4.4867C56.7876 3.23216 59.6666 2.51414 62.5324 1.75184C63.9037 1.38707 65.2556 0.948431 66.6257 0.579775C67.4906 0.347056 68.3675 0.143775 69.2511 0.00811491C69.5329 -0.0352074 69.9271 0.0998971 70.1426 0.294986C70.6459 0.750426 71.0724 1.29154 71.5286 1.7996C71.5619 1.83682 71.5766 1.89125 71.6102 1.92832C73.3572 3.85589 73.8326 6.32359 74.4982 8.71715C74.8691 10.0511 75.112 11.3715 74.9477 12.7749C74.7973 14.0598 74.8146 15.3639 74.734 16.6582C74.679 17.5425 74.1837 18.115 73.3612 18.3919C72.7369 18.602 72.0601 18.6932 71.4771 18.9811C69.9215 19.7491 68.247 19.84 66.582 19.8992C64.755 19.964 62.9229 19.8757 61.0929 19.8701C59.9839 19.8668 58.947 19.5112 57.8944 19.2399C57.2374 19.0706 56.5938 19.074 55.9339 19.1774C55.211 19.2907 54.7059 19.7028 54.4835 20.3685C54.1579 21.3421 53.4984 21.9495 52.6901 22.542C51.839 23.1658 50.9465 23.563 49.9381 23.7471C48.4993 24.0098 47.0563 23.9966 45.6284 23.685C44.8624 23.5177 44.1137 23.2708 43.3571 23.0602C42.6957 22.8759 42.0397 22.6846 41.5122 22.2033C41.4368 22.1344 41.3026 22.1304 41.1252 22.1982C41.2073 22.2972 41.2786 22.4085 41.3736 22.4932C42.3021 23.3218 42.8349 24.3605 43.0372 25.5845L43.675 29.3427C43.747 29.7935 43.7706 30.2528 43.8026 30.7092C43.8595 31.5209 43.9473 32.3332 43.949 33.1455L43.9004 40.1614C43.8968 40.4891 43.8183 40.8155 43.7831 41.1435C43.7318 41.6217 43.8541 41.8182 44.2997 41.7564C45.8462 41.542 47.3021 42.0696 48.8009 42.2396C50.0045 42.3761 51.1928 42.696 52.4237 42.5646C52.6092 42.5449 52.8147 42.637 53.0003 42.7063C53.507 42.8955 53.9985 43.0184 54.4662 42.6039C54.5312 42.5463 54.6562 42.5444 54.7547 42.5396C56.5515 42.4513 58.3503 42.2733 60.1452 42.3069C61.9622 42.341 63.7904 42.4697 65.5502 43.0302C65.7872 43.1058 66.0532 43.1645 66.2947 43.1363C66.802 43.077 67.2249 43.3204 67.6709 43.4632C68.0715 43.5912 68.3748 43.8411 68.3805 44.3404C68.3915 45.3064 68.4946 46.2754 68.4446 47.2371C68.3669 48.7334 68.2081 50.2262 68.0554 51.7175C67.9596 52.6533 67.7874 53.5814 67.6937 54.5173C67.5876 55.5788 67.4977 56.644 67.4614 57.7098C67.4116 59.1628 67.4243 60.6177 67.3977 62.0718C67.3918 62.4004 67.3207 62.7273 67.3026 63.0565C67.2444 64.0971 67.2239 65.1406 67.1351 66.1785C67.0835 66.782 67.0285 67.4176 66.8022 67.9673C66.119 69.6275 66.0886 71.3848 65.8529 73.121C65.617 74.8598 66.0062 76.5173 66.2435 78.1964C66.5172 80.1343 66.7926 82.0776 67.211 83.9869C67.5311 85.4466 68.063 86.8609 68.5256 88.2873C68.7052 88.8412 68.9623 89.3693 69.1647 89.9162C69.234 90.1037 69.3033 90.3235 69.2709 90.5105C69.0648 91.6999 68.691 92.8518 67.9171 93.7774C67.5265 94.2447 66.8681 94.4559 66.2148 94.5013L64.1694 94.6553C60.0179 94.8656 55.8725 95.2106 51.709 95.1331C50.317 95.1071 48.9229 95.2222 47.5299 95.2192L40.6776 95.1433L33.7518 95.2737L29.2745 95.2766C27.2148 95.2765 25.155 95.2847 23.0954 95.2741C21.2403 95.265 19.4039 95.468 17.5662 95.6908C16.4359 95.828 15.2944 95.8712 14.1621 95.9955L9.64139 96.5466C8.28232 96.6931 6.91828 96.7918 5.55617 96.9098C5.30334 96.9319 5.04663 96.9261 4.79752 96.9679C3.74054 97.1453 3.37968 96.5634 3.3368 95.8139C3.28023 94.8255 3.21979 93.8301 3.04994 92.8571C2.78382 91.3332 2.88521 89.8067 2.87705 88.2793L2.85201 83.9951C2.82642 83.2114 2.69669 82.4291 2.58133 81.6507C2.35879 80.149 2.46819 78.6544 2.62034 77.157L2.86764 74.3461L3.56557 68.6712C3.58424 68.5203 3.6238 68.3697 3.62408 68.2189L3.61287 62.1691C3.58853 61.1226 3.27069 60.1205 2.86833 59.149L1.21937 55.0599C1.12393 54.8243 1.02863 54.5819 0.889489 54.3719C-0.00470534 53.0221 -0.158509 51.5479 0.136374 49.9958C0.231118 49.4965 0.307052 48.989 0.458505 48.5062C0.639142 47.9308 0.876211 47.3716 1.11867 46.8186C1.25311 46.5123 1.54316 46.4524 1.83071 46.5688C2.01259 46.6424 2.16183 46.7977 2.34454 46.9303C2.60678 46.5285 3.05934 46.3801 3.49517 46.2579C5.96212 45.5662 8.45023 44.9664 11.0078 44.7194L17.9689 44.0747C19.3586 43.9673 20.7564 43.9676 22.1501 43.9128L24.3511 43.7989C24.6745 43.776 24.9936 43.6892 25.2691 43.6392ZM1.83527 48.374C1.39488 49.6616 1.23403 50.9321 1.28659 52.2315C1.31383 52.906 1.55436 53.5091 1.91646 54.0819C2.17303 54.4876 2.3722 54.9352 2.55575 55.3811L4.05879 59.1282C4.5848 60.4134 4.91371 61.7342 4.89241 63.1344L4.83694 67.7966C4.80306 68.733 4.657 69.6654 4.56032 70.5995L4.14054 74.6877C4.04441 75.7773 4.05575 76.8792 3.909 77.9606C3.68729 79.5958 3.75644 81.2181 4.01108 82.8295C4.29918 84.6531 4.3061 86.4781 4.25962 88.3137C4.22809 89.5621 4.22366 90.8154 4.2996 92.0608C4.37055 93.2245 4.5617 94.3809 4.70596 95.5398C4.71758 95.6327 4.77705 95.7193 4.80997 95.7987C4.91606 95.8133 4.99268 95.8393 5.06613 95.8318L10.9576 95.2269L17.2907 94.4671C19.4778 94.2344 21.663 94.0789 23.8759 94.1242C27.7347 94.203 31.5975 94.1001 35.4585 94.0671L39.7867 94.0054L48.0898 94.0432C50.2462 94.0306 52.4025 93.9566 54.5584 93.8903L59.2659 93.6912C60.6817 93.6139 62.0962 93.5085 63.5099 93.3964C64.3918 93.3266 65.2705 93.2169 66.1517 93.1351C66.5136 93.1016 66.7687 92.9495 66.9125 92.6015C66.9796 92.4388 67.1114 92.3042 67.1885 92.1445C67.659 91.1703 68.0456 90.1993 67.5219 89.0973C67.2619 88.5502 67.1421 87.9375 66.9072 87.3764C66.3239 85.9846 65.9922 84.5267 65.7434 83.048L65.0662 78.6795C64.8959 77.5755 64.6217 76.4753 64.5802 75.3664C64.5253 73.8961 64.6329 72.4183 64.707 70.9456C64.7571 69.9499 64.9594 68.984 65.3977 68.0715C65.7427 67.3528 65.8925 66.5841 65.8842 65.7769C65.8757 64.962 65.904 64.1451 65.9524 63.3313C66.0082 62.3942 66.1358 61.4607 66.176 60.5231L66.39 54.2699C66.3943 54.1439 66.4307 54.0194 66.4468 53.8936L66.839 50.7955C66.9345 49.9117 67.021 49.0247 67.0542 48.137C67.091 47.1542 67.0628 46.1691 67.0628 45.0983C66.4261 45.0108 65.7784 44.8382 65.1351 44.8538C64.2277 44.8754 63.3261 45.0705 62.4179 45.1294C61.1633 45.2108 59.9348 45.3031 58.6983 45.6546C57.5214 45.9889 56.2463 45.9799 55.0128 46.1057C54.5349 46.1544 54.0507 46.199 53.5728 46.1755C52.4747 46.1215 51.3581 46.4581 50.275 46.0229C50.1753 45.9829 50.0343 46.0539 49.9117 46.0635C49.1574 46.1224 48.3877 46.2981 47.6526 46.2043C46.7855 46.0936 45.9447 46.094 45.0883 46.1989C44.4394 46.2783 43.7912 46.3673 43.1318 46.2665C42.6022 46.1855 42.2833 45.9063 42.2867 45.3935C42.2901 44.861 42.353 44.3291 42.3795 43.7966L42.5333 40.4413C42.5643 39.575 42.5793 38.7077 42.5826 37.8408L42.5811 32.6595C42.5806 32.5073 42.5515 32.3554 42.5382 32.2031L42.3808 30.3811C42.3527 30.0527 42.3461 29.7211 42.295 29.3965L41.6064 25.1831C41.4721 24.4097 41.0552 23.7879 40.487 23.2108L39.0217 24.4026C39.0693 24.5155 39.083 24.5985 39.1299 24.6528C40.0636 25.7389 40.3137 27.0371 40.2911 28.4187C40.282 28.9725 40.2963 29.5302 40.235 30.0791C40.1461 30.8755 39.9751 31.6627 39.8815 32.4589C39.7419 33.6454 39.6003 34.8341 39.5297 36.026C39.4047 38.1394 39.5708 40.2493 39.6653 42.3607C39.7221 43.6319 39.6418 44.9092 39.638 46.1837C39.6371 46.5409 39.468 46.7114 39.1685 46.8833C38.6942 47.1553 38.1873 47.0971 37.6898 47.1621L31.5171 47.9698C29.8827 48.15 28.2376 48.2324 26.5969 48.3561L25.4572 48.4297L22.0515 48.7084C21.0908 48.7689 20.1268 48.7785 19.1645 48.8154L16.664 48.9182L13.711 48.9507C13.1779 48.9543 12.6166 49.0567 12.1169 48.9265C10.3937 48.4774 8.68606 48.7428 6.97997 48.9464C5.24538 49.1531 3.55561 49.0874 1.83527 48.374ZM41.7663 21.1076C42.2643 21.3617 42.7762 21.704 43.3393 21.8923C44.2985 22.2126 45.2891 22.4389 46.2678 22.6994C47.0583 22.9101 47.8498 22.968 48.6749 22.8813C49.8839 22.7543 50.8913 22.2189 51.8609 21.5469C52.4541 21.1358 52.9486 20.6686 53.1971 19.9546C53.4706 19.1691 54.019 18.63 54.8165 18.3469C55.849 17.9803 56.8956 17.9237 57.9631 18.1389C59.276 18.4037 60.5499 18.8828 61.9205 18.8293C62.6811 18.7996 63.4431 18.8022 64.2044 18.8054C66.6431 18.8154 69.0769 18.8171 71.3694 17.7754C71.7812 17.5884 72.2527 17.5388 72.6794 17.3791C73.1211 17.2137 73.4921 16.9441 73.5231 16.4062L73.7077 12.9936C73.7268 12.6119 73.6731 12.2193 73.7434 11.8489C73.8707 11.1779 73.7944 10.5365 73.6384 9.8856C73.2282 8.17437 72.6328 6.52798 72.0249 4.87896C71.5576 3.61136 70.6637 2.69632 69.8405 1.70366C69.4647 1.25044 69.0564 1.30376 68.5527 1.44983L60.7232 3.6719C58.8056 4.24204 56.905 4.87521 55.0175 5.53907C54.5344 5.70902 54.1635 5.70653 53.7514 5.43882C53.5935 5.33634 53.3852 5.23137 53.2115 5.24817C52.2056 5.3462 51.2057 5.54393 50.1987 5.58642C48.8296 5.64418 47.4552 5.6178 46.0845 5.57864C45.2006 5.55337 44.319 5.44437 43.4371 5.36578C42.1259 5.24914 40.8062 5.18596 39.5068 4.98921C38.2073 4.79245 36.9306 4.45448 35.6418 4.18858C34.5286 3.95891 33.5621 4.13387 32.7334 5.03392C31.9005 5.93855 31.1287 6.87803 30.5466 7.95734C29.8101 9.32297 28.7688 10.4344 27.6341 11.4446C26.8557 12.1375 26.1614 12.8837 25.493 13.6788C24.6434 14.6895 24.708 15.769 25.0549 16.9074C25.1077 17.0806 25.2636 17.2221 25.3402 17.3323C26.7441 15.9629 28.1647 14.6865 29.4474 13.2832C30.1669 12.496 30.8276 11.6118 31.187 10.5517C31.3297 10.1305 31.626 9.76285 31.8415 9.3649C31.9892 9.09233 32.2049 9.03151 32.4803 9.12191C32.7416 9.20772 32.8723 9.37642 32.9449 9.66191C33.061 10.1185 32.8047 10.4542 32.6553 10.8173C31.9127 12.623 30.8842 14.2306 29.4417 15.571C28.3464 16.5888 27.3103 17.6708 26.2453 18.727C26.2482 18.7725 26.2427 18.8247 26.2557 18.8719C26.3623 19.2642 26.7871 19.6756 26.1735 20.0254C26.1363 20.0465 26.167 20.212 26.1868 20.3059C26.3643 21.1491 26.5037 22.0039 26.7459 22.8284C26.8593 23.2147 26.9692 23.6767 27.4535 23.858C27.9932 24.06 28.2463 23.8906 28.1558 23.3307C27.8882 21.6751 28.4352 20.2759 29.5345 19.0862C30.2737 18.2862 31.0377 17.5177 31.7325 16.6698C32.6285 15.5765 33.2666 14.394 33.472 13.0083C33.5595 12.4186 33.8513 12.1964 34.4109 12.0945C34.4892 12.254 34.6252 12.4057 34.6265 12.5585C34.6297 12.9537 34.6052 13.3551 34.5357 13.7439C34.2747 15.1999 33.6819 16.5104 32.7156 17.6318C32.0023 18.4597 31.2734 19.2757 30.5177 20.0644C29.7199 20.8971 29.2596 21.8731 29.326 23.0182C29.4022 24.3321 29.5197 25.6392 30.0345 26.8949C30.3434 27.6486 30.813 28.1846 31.4554 28.6108C31.5784 28.6923 31.759 28.6864 31.9615 28.7316C31.7466 27.0137 31.4269 25.3961 31.4002 23.739C31.3888 23.0256 31.5511 22.4117 31.9994 21.9074C32.5531 21.2842 33.1861 20.7327 33.7727 20.138C34.6072 19.292 35.5366 18.5173 35.9426 17.3368C36.0662 16.9773 36.1487 16.6 36.3054 16.2563C36.3886 16.0739 36.5842 15.8327 36.7408 15.8237C36.9198 15.8133 37.1791 15.991 37.2806 16.1608C37.3965 16.3548 37.4575 16.6508 37.4029 16.8669C37.0934 18.0917 36.6176 19.2314 35.6115 20.0738C35.2617 20.3667 34.9413 20.696 34.6164 21.0176C34.1467 21.4824 33.6668 21.9385 33.2251 22.4292C32.7854 22.918 32.5582 23.4777 32.6452 24.1784C32.7792 25.2609 32.7986 26.3581 32.9441 27.4385C33.0121 27.9435 32.9781 28.584 33.7145 28.7543C33.8343 28.7819 33.903 29.0318 34.0055 29.195L33.5915 29.6913C33.764 29.9685 33.8879 30.2593 34.0932 30.4699C34.2752 30.6568 34.5373 30.8444 34.7828 30.8739C35.3337 30.9398 35.9124 30.9954 36.4502 30.8947C37.2303 30.7488 37.9839 30.4612 38.7744 30.2265V28.0599C38.4306 27.8856 38.2357 28.0179 38.13 28.3444C38.0521 28.5846 38.0003 28.8365 37.8965 29.0645C37.692 29.5137 37.2337 29.6471 36.8411 29.3695C36.7032 29.2721 36.6155 29.1031 36.4888 28.9471C37.2463 27.2083 36.7779 25.5701 36.0738 24.0178C36.2402 23.5425 36.5884 23.5724 36.9207 23.5968C37.6768 23.6525 38.3051 23.384 38.8687 22.8937C39.9598 21.9448 40.5248 20.6887 40.9799 19.3487C41.7165 19.1799 41.9064 19.3267 41.8445 20.0294C41.8147 20.3547 41.7964 20.6809 41.7663 21.1076ZM38.3376 42.7925C38.2835 40.9101 38.1654 39.0871 38.1972 37.2668C38.2293 35.4337 38.4106 33.6032 38.5335 31.6631C37.2563 32.1916 36.0494 32.2456 34.8037 31.9789C34.1094 31.8302 33.482 31.6633 33.0991 30.9922C32.9238 30.6848 32.7 30.4019 32.4729 30.1289C32.3676 30.0023 32.2153 29.8812 32.0614 29.8354C31.4987 29.6678 30.9264 29.5331 30.3001 29.3711C30.4008 30.9897 30.291 32.5766 30.0939 34.1682C29.9601 35.2483 30.146 36.3707 29.9921 37.4457C29.7932 38.8339 30.1329 40.1818 30.0918 41.5512C30.0762 42.0735 30.1814 42.5994 30.2352 43.1598C30.4091 43.1742 30.5597 43.2124 30.7033 43.1946L34.6139 42.6961C35.8402 42.5422 37.0682 42.3537 38.3376 42.7925ZM37.8517 25.2077L38.0112 26.3972C38.066 26.7935 38.2918 26.8014 38.5976 26.6741C38.6737 26.0069 38.3181 25.5719 37.8517 25.2077ZM35.7229 45.7404C36.6062 45.7436 37.4864 45.723 38.3277 45.4007C37.4394 45.3584 36.5711 45.4713 35.7229 45.7404ZM23.4522 47.1837L23.4513 46.9496L21.2623 47.1261L21.2768 47.3229L23.4522 47.1837ZM30.3993 44.8866L30.4041 45.1236L31.5903 45.0033L31.5774 44.8867L30.3993 44.8866ZM13.8002 47.429L13.7966 47.3505H12.5648L12.5692 47.4891L13.8002 47.429ZM9.41054 46.6894L9.40681 46.5159L8.2548 46.7461L8.28025 46.8919L9.41054 46.6894ZM49.0729 43.6787L50.0028 43.4858C49.6758 43.3101 49.3559 43.1695 49.0729 43.6787ZM48.614 43.9347C48.5324 44.2709 48.5324 44.2709 48.7973 44.3482L48.614 43.9347ZM46.5827 70.2811C46.5056 71.8973 46.3267 73.0331 46.0256 74.179C45.7385 75.2713 44.9798 76.09 44.6512 77.1304C44.6367 77.1768 44.6007 77.2197 44.5663 77.2561C43.2396 78.6664 41.8519 80.0039 40.0455 80.7898C38.8895 81.2928 37.6611 81.4045 36.4142 81.3632C36.1862 81.3556 35.9539 81.3187 35.7308 81.3489C34.2173 81.5544 32.8777 81.0882 31.6513 80.2563C30.8575 79.7178 30.0914 79.1339 29.3445 78.5306C27.3568 76.9251 26.2865 74.8409 26.2117 72.2686C26.1867 71.4094 26.1542 70.5449 26.2172 69.6897C26.3406 68.0137 27.0964 66.5803 28.051 65.2382C28.3746 64.7834 28.6679 64.3049 29.0132 63.8678C29.7813 62.895 30.8365 62.3288 31.9719 61.9297C32.9247 61.5947 33.8951 61.3306 34.9228 61.2491C35.8245 61.1775 36.7119 60.9226 37.6048 60.7461C37.6784 60.7315 37.748 60.6731 37.8191 60.6739C38.3685 60.6813 38.9277 60.6378 39.4646 60.7267C40.2108 60.8503 40.9414 61.0708 41.6765 61.2575C42.7541 61.5312 43.4896 62.2587 44.0451 63.167C44.3609 63.6837 44.5652 64.2693 44.818 64.8244C44.8387 64.8704 44.8316 64.9367 44.8627 64.9689C45.6631 65.7983 45.7896 66.9373 46.1493 67.9507C46.4578 68.82 46.4975 69.7854 46.5827 70.2811ZM35.4765 80.2083C36.8972 80.1762 38.4992 79.8857 39.5651 79.3482C41.4575 78.3941 43.0741 77.1427 44.0065 75.1601C44.0494 75.069 44.1284 74.9949 44.1706 74.9034L44.8239 73.4532C45.2184 72.5191 45.2292 71.5088 45.2696 70.5295C45.3044 69.6819 45.2152 68.7924 44.9825 67.9786C44.6071 66.6657 43.8292 65.5153 43.2407 64.287C43.109 64.0122 42.9625 63.7443 42.832 63.4688C42.6267 63.0355 42.3163 62.6894 41.8663 62.5459C41.3658 62.3864 40.8398 62.3081 40.3256 62.1924C40.1141 62.1448 39.8187 62.1616 39.7101 62.0277C39.4432 61.6985 39.1144 61.7076 38.7597 61.6778C37.629 61.5829 36.5452 61.8824 35.4426 62.0343C33.8994 62.247 32.4229 62.6477 31.0329 63.3713C30.2392 63.7844 29.6445 64.3846 29.169 65.125C29.0316 65.339 28.9055 65.5606 28.7622 65.7703C27.9857 66.9071 27.3315 68.0677 27.1558 69.4958C26.9471 71.1933 26.941 72.8531 27.6096 74.434C28.1722 75.7643 28.8149 77.0578 30.1374 77.8633C30.889 78.3211 31.5561 78.9169 32.2748 79.4318C32.4773 79.5769 32.7168 79.7057 32.9572 79.7549C33.7926 79.9268 34.6361 80.0602 35.4765 80.2083Z" fill="white"/>
</svg>
