<svg width="979" height="688" viewBox="0 0 979 688" fill="none" xmlns="http://www.w3.org/2000/svg">
<path d="M487.949 11.3984C426.382 99.2541 401.974 232.054 414.51 337.828C337.316 255.497 204.895 200.258 153.293 179.482C153.438 237.333 252.423 354.951 356.092 421.856C273.265 404.494 153.87 409.442 102.32 409.571C145.918 444.751 262.963 479.746 356.976 496.177C306.098 509.466 275.591 549.589 231.615 576.491C311.271 576.291 433.918 547.969 482.028 511.519L476.813 588.693L502.144 588.693L496.929 511.519C545.221 547.725 667.461 575.397 747.117 575.197C703.007 548.516 672.298 508.547 621.354 495.514C715.284 478.611 832.15 443.031 875.573 407.63C824.022 407.76 704.604 403.411 621.865 421.189C725.197 353.766 823.591 235.652 823.445 177.801C746.172 198.9 639.806 254.738 563.026 337.455C575.031 231.619 549.959 98.9427 487.949 11.3984Z" fill="#638667"/>
<path d="M558.435 488.892C545.34 507.464 535.862 526.15 526.93 546.953C522.748 556.712 514.82 562.577 509.835 571.64C501.818 571.382 500.914 562.199 495.02 560.345C502.594 563.678 514.522 526.511 517.65 520.183C519.686 516.075 522.793 513.861 525.282 510.208C527.293 507.255 527.931 503.158 529.558 499.979C531.185 496.801 538.819 483.983 541.672 484.67C541.252 499.184 526.59 501.943 515.02 502.651C509.153 502.997 503.253 502.902 497.432 503.724C489.586 504.82 481.668 510.859 474.054 510.977C470.725 511.047 466.81 509.865 463.412 509.705C459.815 509.544 456.188 509.711 452.555 509.505C445.277 509.117 440.677 507.746 433.94 505.549C425.793 502.874 415.354 505.274 406.827 505.786C399.158 506.221 392.888 505.934 385.801 502.787C397.359 503.979 404.738 482.635 413.055 477.112C417.929 473.855 422.035 473.246 427.379 471.504C435.946 468.706 439.691 462.395 446.978 458.437C456.751 453.157 468.595 449.243 479.096 445.023C482.033 443.842 486.347 441.277 489.604 441.175C492.861 441.073 495.672 443.277 498.975 443.138C505.175 442.938 513.998 437.041 519.655 439.559C513.412 440.309 504.293 430.866 499.733 427.21C493.257 422.029 489.055 414.978 482.407 410.318C475.759 405.658 468.95 402.719 464.976 395.796C461.882 390.426 455.854 386.295 452.045 381.321C447.801 375.786 431.252 361.197 428.171 355.151C424.846 348.627 421.81 338.023 417.174 332.344C411.992 325.97 410.335 314.751 406.162 307.57C401.989 300.388 402.116 292.285 399.543 284.956C397.998 280.523 438.433 318.928 435.037 315.472C433.836 331.887 422.721 308.574 432.197 314.108C440.629 319.041 447.026 326.661 454.906 332.204C458.659 334.85 462.24 335.63 466.323 337.654C472.115 340.516 476.741 345.053 482.445 348.047C488.653 351.318 495.498 353.592 501.897 356.493C509.858 360.11 517.222 359.655 525.562 361.505C540.711 364.874 554.867 374.629 569.418 380.065C563.466 383.899 556.066 376.038 554.219 370.676C554.568 368.527 550.107 368.07 549.458 365.994C548.023 363.117 545.828 361.582 543.919 359.008C542.044 355.453 538.084 349.532 537.524 348.802C528.145 336.203 514.571 328.353 512.28 316.315C509.99 304.276 500.972 284.53 499.66 272.979C496.738 247.329 496.156 233.541 497.706 207.613C498.951 186.64 522.219 159.751 524.329 139.784C528.061 143.189 531.581 146.558 532.789 151.951C534.824 161.147 538.836 167.661 543.646 176.174C554.451 195.285 562.777 215.182 572.178 234.898C582.553 256.664 593.576 282.125 593.892 306.656C594.041 317.553 597.15 327.991 597.015 338.564C596.939 345.325 595.004 350.557 592.778 356.713C591.847 349.85 593.518 341.858 593.8 334.761C594.42 319.34 597.59 304.133 603.95 290.074C609.965 276.8 606.157 259.232 612.076 245.917C618.467 231.53 624.275 218.791 629.963 204.322C634.929 191.752 642.711 178.403 649.95 167.062C653.455 161.554 656.693 153.426 660.272 148.008C665.849 139.602 671.685 134.096 676.405 125.314C678.765 120.922 682.213 117.805 684.793 113.624C685.735 110.514 687.131 107.603 688.968 104.915C691.389 102.711 694.062 100.902 696.987 99.4882C702.02 95.6761 708.997 84.2192 715.554 83.9205C720.404 88.0162 719.005 96.8107 719.289 102.366C719.911 113.414 722.022 124.634 723.791 135.533C726.27 150.953 723.987 165.954 723.461 181.614C723.195 189.514 725.234 196.893 725.459 204.583C725.684 212.272 724.478 220.242 724.127 227.82C723.776 235.398 721.297 242.126 720.419 249.415C719.208 259.657 718.331 269.591 715.5 279.574C711.65 293.289 707.507 305.993 701.775 319.078C696.605 330.818 690.498 338.621 682.775 348.67C672.031 362.676 662.224 377.01 654.254 392.721C658.716 388.658 663.809 385.355 668.337 381.463C672.865 377.571 675.385 372.624 679.697 368.836C683.484 365.527 688.192 363.164 692.442 360.486C697.517 357.289 702.119 353.941 707.941 352.21C713.764 350.48 719.841 349.913 725.41 347.275C733.632 343.388 740.489 337.564 749.707 335.934C759.999 334.124 793.829 333.29 807.895 329.302C817.123 326.682 851.505 307.611 861.268 308.553C869.744 309.384 841.203 357.548 838.113 365.343C833.996 375.727 840.174 333.67 846.264 336.691C845.733 344.162 841.806 360.571 838.849 367.287C836.301 373.074 834.313 379.591 831.215 385.079C828.579 389.775 826.421 390.219 821.772 392.579C813.121 396.988 807.054 403.018 799.693 409.018C791.268 415.886 781.23 421.96 771.952 427.599C765.026 431.772 755.801 435.872 747.958 437.993C739.424 440.265 732.631 436.451 724.244 435.546C715.858 434.642 707.232 434.797 698.79 434.21C691.729 433.718 685.688 431.941 678.843 434.444C683.936 436.372 691.235 438.391 695.643 441.553C702.141 446.231 706.34 451.804 713.847 455.675C732.542 465.324 752.191 472.549 771.577 481.08L820.471 502.596C825.068 504.619 834.885 506.665 837.899 510.862C841.977 516.58 839.496 517.308 834.307 518.891C804.757 527.891 791.267 524.371 769.165 528.661C754.091 531.58 759.214 530.792 744.084 528.995C733.807 527.799 715.31 517.442 705.122 515.205C697.314 513.503 691.205 511.298 683.672 508.068C676.138 504.838 671.276 499.998 664.357 496.47C659.301 493.875 652.152 490.161 646.75 489.063C640.724 487.833 635.236 489.255 629.246 487.558C633.074 494.36 638.829 500.531 640.629 508.26C641.96 514.019 642.322 520.234 643.58 526.161C646.503 539.927 650.117 558.064 648.861 572.152C648.246 579.102 646.913 585.424 646.563 592.548C646.212 599.671 643.133 605.31 642.361 611.907C641.668 617.742 642.061 641 632.295 628.117C624.287 617.571 616.7 605.874 608.267 595.454C600.739 586.142 592.899 577.86 586.525 567.606C578.708 555.012 572.792 543.652 568.089 529.472C567.12 526.572 565.568 523.899 565.102 520.823C564.756 518.51 565.836 515.347 565.065 513.159C563.178 507.695 559.724 506.175 562.117 499.837C559.949 498.627 557.921 497.421 555.795 496.116C557.269 492.188 555.447 488.06 554.58 484.153" fill="#3E6443"/>
<path d="M420.565 488.892C433.66 507.464 443.138 526.15 452.07 546.953C456.252 556.712 464.18 562.577 469.165 571.64C477.182 571.382 478.086 562.199 483.98 560.345C476.406 563.678 464.478 526.511 461.35 520.183C459.314 516.075 456.207 513.861 453.718 510.208C451.707 507.255 451.069 503.158 449.442 499.979C447.815 496.801 440.181 483.983 437.328 484.67C437.748 499.184 452.41 501.943 463.98 502.651C469.847 502.997 475.747 502.902 481.568 503.724C489.414 504.82 497.332 510.859 504.946 510.977C508.275 511.047 512.19 509.865 515.588 509.705C519.185 509.544 522.812 509.711 526.445 509.505C533.723 509.117 538.323 507.746 545.06 505.549C553.207 502.874 563.646 505.274 572.173 505.786C579.842 506.221 586.112 505.934 593.199 502.787C581.641 503.979 574.262 482.635 565.945 477.112C561.071 473.855 556.965 473.246 551.621 471.504C543.054 468.706 539.309 462.395 532.022 458.437C522.249 453.157 510.405 449.243 499.904 445.023C496.967 443.842 492.653 441.277 489.396 441.175C486.139 441.073 483.328 443.277 480.025 443.138C473.825 442.938 465.002 437.041 459.345 439.559C465.588 440.309 474.707 430.866 479.267 427.21C485.743 422.029 489.945 414.978 496.593 410.318C503.241 405.658 510.05 402.719 514.024 395.796C517.118 390.426 523.146 386.295 526.955 381.321C531.199 375.786 547.748 361.197 550.829 355.151C554.154 348.627 557.19 338.023 561.826 332.344C567.008 325.97 568.665 314.751 572.838 307.57C577.011 300.388 576.884 292.285 579.457 284.956C581.002 280.523 540.567 318.928 543.963 315.472C545.164 331.887 556.279 308.574 546.803 314.108C538.371 319.041 531.974 326.661 524.094 332.204C520.341 334.85 516.76 335.63 512.677 337.654C506.885 340.516 502.259 345.053 496.555 348.047C490.347 351.318 483.502 353.592 477.103 356.493C469.142 360.11 461.778 359.655 453.438 361.505C438.289 364.874 424.133 374.629 409.582 380.065C415.534 383.899 422.934 376.038 424.781 370.676C424.432 368.527 428.893 368.07 429.542 365.994C430.977 363.117 433.172 361.582 435.081 359.008C436.956 355.453 440.916 349.532 441.476 348.802C450.855 336.203 464.429 328.353 466.72 316.315C469.01 304.276 478.028 284.53 479.34 272.979C482.262 247.329 482.844 233.541 481.294 207.613C480.049 186.64 456.781 159.751 454.671 139.784C450.939 143.189 447.419 146.558 446.211 151.951C444.176 161.147 440.164 167.661 435.354 176.174C424.549 195.285 416.223 215.182 406.822 234.898C396.447 256.664 385.424 282.125 385.108 306.656C384.959 317.553 381.85 327.991 381.985 338.564C382.061 345.325 383.996 350.557 386.222 356.713C387.153 349.85 385.482 341.858 385.2 334.761C384.58 319.34 381.41 304.133 375.05 290.074C369.035 276.8 372.843 259.232 366.924 245.917C360.533 231.53 354.725 218.791 349.037 204.322C344.071 191.752 336.289 178.403 329.05 167.062C325.545 161.554 322.307 153.426 318.728 148.008C313.151 139.602 307.315 134.096 302.595 125.314C300.235 120.922 296.787 117.805 294.207 113.624C293.265 110.514 291.869 107.603 290.032 104.915C287.611 102.711 284.938 100.902 282.013 99.4882C276.98 95.6761 270.003 84.2192 263.446 83.9205C258.596 88.0162 259.995 96.8107 259.711 102.366C259.089 113.414 256.978 124.634 255.209 135.533C252.73 150.953 255.013 165.954 255.539 181.614C255.805 189.514 253.766 196.893 253.541 204.583C253.316 212.272 254.522 220.242 254.873 227.82C255.224 235.398 257.703 242.126 258.581 249.415C259.792 259.657 260.669 269.591 263.5 279.574C267.35 293.289 271.493 305.993 277.225 319.078C282.395 330.818 288.502 338.621 296.225 348.67C306.969 362.676 316.776 377.01 324.746 392.721C320.284 388.658 315.191 385.355 310.663 381.463C306.135 377.571 303.615 372.624 299.303 368.836C295.516 365.527 290.808 363.164 286.558 360.486C281.483 357.289 276.881 353.941 271.059 352.21C265.236 350.48 259.159 349.913 253.59 347.275C245.368 343.388 238.511 337.564 229.293 335.934C219.001 334.124 185.171 333.29 171.105 329.302C161.877 326.682 127.495 307.611 117.732 308.553C109.256 309.384 137.797 357.548 140.887 365.343C145.004 375.727 138.826 333.67 132.736 336.691C133.267 344.162 137.194 360.571 140.151 367.287C142.699 373.074 144.687 379.591 147.785 385.079C150.421 389.775 152.579 390.219 157.228 392.579C165.879 396.988 171.946 403.018 179.307 409.018C187.732 415.886 197.77 421.96 207.048 427.599C213.974 431.772 223.199 435.872 231.042 437.993C239.576 440.265 246.369 436.451 254.756 435.546C263.142 434.642 271.768 434.797 280.21 434.21C287.271 433.718 293.312 431.941 300.157 434.444C295.064 436.372 287.765 438.391 283.357 441.553C276.859 446.231 272.66 451.804 265.153 455.675C246.458 465.324 226.809 472.549 207.423 481.08L158.529 502.596C153.932 504.619 144.115 506.665 141.101 510.862C137.023 516.58 139.504 517.308 144.693 518.891C174.243 527.891 187.733 524.371 209.835 528.661C224.909 531.58 219.786 530.792 234.916 528.995C245.193 527.799 263.69 517.442 273.878 515.205C281.686 513.503 287.795 511.298 295.328 508.068C302.862 504.838 307.724 499.998 314.643 496.47C319.699 493.875 326.848 490.161 332.25 489.063C338.276 487.833 343.764 489.255 349.754 487.558C345.926 494.36 340.171 500.531 338.371 508.26C337.04 514.019 336.678 520.234 335.42 526.161C332.497 539.927 328.883 558.064 330.139 572.152C330.754 579.102 332.087 585.424 332.437 592.548C332.788 599.671 335.867 605.31 336.639 611.907C337.332 617.742 336.939 641 346.705 628.117C354.713 617.571 362.3 605.874 370.733 595.454C378.261 586.142 386.101 577.86 392.475 567.606C400.292 555.012 406.208 543.652 410.911 529.472C411.88 526.572 413.432 523.899 413.898 520.823C414.244 518.51 413.164 515.347 413.935 513.159C415.822 507.695 419.276 506.175 416.883 499.837C419.051 498.627 421.079 497.421 423.205 496.116C421.731 492.188 423.553 488.06 424.42 484.153" fill="#3E6443"/>
<g clip-path="url(#clip0_223_129)">
<path d="M422.089 521.571C430.652 531.367 437.162 541.443 443.486 552.757C446.449 558.064 451.312 560.931 454.691 565.796C459.241 565.171 459.21 559.888 462.456 558.481C458.341 560.83 449.336 540.377 447.178 536.96C445.775 534.742 443.873 533.666 442.238 531.735C440.917 530.173 440.31 527.878 439.194 526.165C438.078 524.452 432.969 517.608 431.385 518.169C432.487 526.408 441.001 527.106 447.633 526.82C450.995 526.668 454.349 526.262 457.713 526.383C462.246 526.54 467.115 529.507 471.459 529.121C473.359 528.962 475.517 528.056 477.443 527.763C479.482 527.457 481.558 527.335 483.615 527.002C487.736 526.347 490.274 525.293 493.98 523.64C498.461 521.632 504.548 522.376 509.435 522.16C513.828 521.951 517.383 521.414 521.231 519.2C514.72 520.567 509.247 508.853 504.182 506.203C501.213 504.639 498.838 504.537 495.691 503.863C490.646 502.781 488.137 499.41 483.752 497.59C477.872 495.166 470.894 493.643 464.662 491.865C462.919 491.367 460.31 490.164 458.449 490.3C456.588 490.436 455.118 491.858 453.229 491.976C449.686 492.232 444.311 489.399 441.239 491.17C444.839 491.225 449.47 485.304 451.85 482.951C455.229 479.615 457.203 475.35 460.712 472.3C464.22 469.251 467.923 467.172 469.774 462.993C471.217 459.75 474.404 457.039 476.277 453.98C478.365 450.575 486.921 441.282 488.316 437.656C489.822 433.743 490.92 427.524 493.222 424.014C495.794 420.075 496.07 413.588 498.019 409.251C499.968 404.913 499.414 400.306 500.443 395.979C501.059 393.363 480.316 417.641 482.045 415.47C483.705 424.746 488.648 410.809 483.581 414.525C479.072 417.836 475.883 422.556 471.725 426.182C469.745 427.912 467.753 428.569 465.547 429.966C462.42 431.94 460.055 434.799 456.984 436.844C453.644 439.076 449.881 440.779 446.409 442.812C442.091 445.346 437.87 445.525 433.23 447.076C424.803 449.896 417.322 456.294 409.359 460.257C412.977 462.085 416.723 457.168 417.456 454.005C417.129 452.802 419.643 452.276 419.889 451.055C420.534 449.331 421.694 448.327 422.627 446.747C423.484 444.611 425.387 441.003 425.662 440.555C430.254 432.822 437.517 427.543 438.105 420.552C438.693 413.56 442.654 401.779 442.714 395.123C442.851 380.344 442.362 372.457 439.937 357.786C437.98 345.917 423.129 331.992 420.739 320.748C418.816 322.909 417.012 325.037 416.645 328.18C416.033 333.538 414.136 337.486 411.903 342.62C406.887 354.146 403.329 365.972 399.149 377.759C394.535 390.771 389.773 405.926 391.053 419.914C391.616 426.128 390.467 432.256 391.172 438.269C391.618 442.114 393.031 444.978 394.666 448.351C394.787 444.388 393.36 439.936 392.777 435.912C391.507 427.168 388.797 418.697 384.338 411.07C380.122 403.87 381.246 393.64 377.082 386.41C372.587 378.599 368.521 371.69 364.421 363.79C360.845 356.929 355.619 349.791 350.821 343.764C348.497 340.837 346.17 336.401 343.809 333.529C340.132 329.075 336.481 326.288 333.271 321.567C331.665 319.207 329.516 317.638 327.798 315.411C327.076 313.696 326.108 312.121 324.902 310.7C323.392 309.589 321.763 308.718 320.013 308.088C316.919 306.217 312.264 300.109 308.512 300.329C305.994 302.95 307.314 307.875 307.483 311.055C307.786 317.383 307.251 323.898 306.893 330.21C306.398 339.138 308.591 347.544 309.823 356.43C310.444 360.912 309.722 365.236 310.051 369.628C310.381 374.02 311.542 378.486 312.193 382.78C312.844 387.075 314.655 390.758 315.589 394.856C316.888 400.616 317.979 406.22 320.186 411.737C323.194 419.317 326.309 426.304 330.353 433.413C333.995 439.791 337.938 443.87 342.934 449.132C349.886 456.468 356.324 464.046 361.798 472.517C359.015 470.469 355.918 468.892 353.107 466.946C350.297 464.999 348.568 462.332 345.887 460.432C343.533 458.774 340.711 457.709 338.131 456.436C335.051 454.918 332.231 453.286 328.812 452.647C325.394 452.009 321.899 452.048 318.57 450.878C313.657 449.154 309.405 446.246 304.058 445.868C298.089 445.45 278.773 446.99 270.525 445.557C265.114 444.615 244.399 435.804 238.895 436.922C234.117 437.9 253.237 463.626 255.461 467.88C258.424 473.548 252.403 449.967 249.114 452.05C249.861 456.273 253.074 465.383 255.158 469.031C256.953 472.174 258.473 475.767 260.564 478.707C262.345 481.224 263.6 481.349 266.388 482.416C271.577 484.411 275.391 487.483 279.94 490.461C285.147 493.87 291.225 496.731 296.844 499.389C301.037 501.353 306.535 503.138 311.127 503.878C316.122 504.664 319.764 502.087 324.487 501.072C329.209 500.058 334.131 499.633 338.903 498.795C342.895 498.094 346.23 496.723 350.277 497.74C347.491 499.142 343.454 500.726 341.133 502.789C337.711 505.84 335.651 509.263 331.606 511.915C321.533 518.523 310.773 523.808 300.24 529.82L273.675 544.985C271.178 546.411 265.709 548.16 264.242 550.73C262.26 554.229 263.716 554.495 266.765 555.088C284.13 558.453 291.603 555.645 304.445 556.77C313.204 557.535 310.239 557.391 318.749 555.467C324.53 554.174 334.448 547.174 340.117 545.293C344.462 543.859 347.81 542.24 351.908 539.952C356.006 537.664 358.487 534.618 362.218 532.196C364.943 530.418 368.793 527.877 371.804 526.93C375.163 525.87 378.373 526.354 381.683 525.03C379.908 529.131 376.997 532.988 376.432 537.497C376.017 540.856 376.18 544.416 375.817 547.866C374.972 555.879 373.992 566.422 375.546 574.369C376.31 578.29 377.445 581.81 378.069 585.846C378.692 589.882 380.781 592.909 381.614 596.619C382.355 599.901 383.515 613.168 388.31 605.25C392.244 598.768 395.868 591.655 400.051 585.219C403.784 579.469 407.756 574.285 410.776 568.067C414.478 560.43 417.172 553.609 419.006 545.254C419.385 543.545 420.11 541.931 420.192 540.151C420.252 538.814 419.449 537.076 419.758 535.785C420.507 532.561 422.383 531.49 420.644 528.023C421.806 527.205 422.89 526.398 424.023 525.528C422.95 523.379 423.742 520.92 424.003 518.643" fill="#355139"/>
<path d="M420.961 523.502C429.214 532.994 435.986 543.469 442.181 554.376C443.636 556.925 445.504 559.083 447.581 561.157C448.464 562.043 449.373 562.913 450.25 563.819C451.22 564.826 452.111 566.325 453.181 567.207C453.796 567.713 453.733 567.783 454.539 567.512C455.103 567.327 455.62 567.032 456.08 566.666C456.655 566.201 457.11 565.615 457.524 565.019C458.667 563.354 459.418 561.364 461.335 560.425L463.591 556.564C461.663 557.544 459.531 554.472 458.622 553.242C456.431 550.307 454.649 547.036 452.922 543.802C451.5 541.131 450.22 538.38 448.72 535.754C447.619 533.826 445.99 532.475 444.41 530.941C442.33 528.921 441.648 526.256 440.084 523.907C438.992 522.266 437.738 520.7 436.428 519.218C435.659 518.353 433.899 515.962 432.494 516.266C432.158 516.338 430.192 519.776 430.238 520.127C432.401 533.799 451.549 526.677 460.284 528.963C463.108 529.702 465.851 530.898 468.791 531.089C471.986 531.306 475.175 529.829 478.352 529.474C481.768 529.085 485.107 528.654 488.353 527.487C491.599 526.32 494.409 524.751 497.852 524.38C505.494 523.551 513.047 525.089 520.079 521.178C520.519 520.927 520.965 519.695 521.227 519.253C521.379 518.978 522.037 517.367 522.335 517.317C517.907 518.096 514.391 513.653 511.832 510.705C510.371 509.017 508.952 507.254 507.282 505.772C505.233 503.957 502.684 503.13 500.019 502.61C496.626 501.956 493.742 501.202 490.813 499.288C487.884 497.375 485.164 495.737 481.831 494.587C478.231 493.331 474.54 492.367 470.876 491.388C469.176 490.935 467.457 490.509 465.76 490.003C464.199 489.522 462.68 488.845 461.055 488.554C459.161 488.212 457.83 489.006 456.111 489.661C454.523 490.276 453.023 490.172 451.384 489.856C448.538 489.319 445.123 487.906 442.337 489.308C441.908 489.518 441.433 490.819 441.189 491.233C441.061 491.46 440.301 493.163 440.081 493.169C442.818 493.064 445.118 490.722 446.926 488.901C449.095 486.719 451.326 484.468 453.201 482.042C455.531 479.031 457.535 475.932 460.497 473.486C463.094 471.334 465.937 469.403 467.786 466.512C468.567 465.294 469.271 464.034 469.983 462.787C470.238 462.333 470.494 461.879 470.721 461.406C471.324 460.118 469.027 463.607 470.383 462.045C470.702 461.673 470.993 461.25 471.292 460.874C473.117 458.631 474.75 456.292 476.505 453.987C479.677 449.809 483.321 445.944 486.147 441.518C487.308 439.706 488.564 437.789 489.394 435.788C490.694 432.627 491.3 429.211 492.471 426.003C492.708 425.336 494.108 422.65 492.698 424.93C491.289 427.209 492.606 425.068 492.882 424.62C493.614 423.378 494.387 422.148 495.01 420.866C496.478 417.849 496.979 414.459 497.815 411.236C498.651 408.014 500.138 404.85 500.559 401.35C500.752 399.765 500.863 398.158 501.076 396.578C501.104 396.356 501.698 394.061 501.497 393.919C500.92 393.511 497.285 397.781 496.945 398.147C493.882 401.405 490.911 404.765 487.96 408.131C486.799 409.463 485.617 410.789 484.456 412.121C484.011 412.632 483.314 413.185 482.994 413.796L480.78 417.581C480.941 417.352 480.852 417.437 480.965 417.905C481.096 418.465 481.216 419.065 481.465 419.592C481.715 420.119 482.051 420.767 482.714 420.697C483.165 420.646 483.494 420.2 483.742 419.853C484.574 418.726 485.247 417.381 485.92 416.157C486.431 415.248 487.328 413.604 486.788 412.539C485.895 410.734 482.716 414.212 482.088 414.794C478.83 417.802 476.183 421.458 472.79 424.321C471.101 425.749 469.106 426.613 467.213 427.745C465.23 428.929 463.525 430.451 461.808 431.98C458.219 435.16 454.166 437.286 449.973 439.559C447.997 440.636 446.101 441.821 443.96 442.58C442.023 443.274 440.01 443.685 438.009 444.176C427.684 446.708 419.727 453.686 410.424 458.396C409.995 458.607 408.373 462.346 408.168 462.257C411.095 463.537 413.604 461.11 415.064 458.801C415.887 457.507 416.642 456.185 417.389 454.849C417.99 453.768 418.21 452.682 418.595 451.553L416.339 455.414C416.81 454.768 417.522 454.481 418.086 453.937C418.65 453.392 419.016 452.651 419.419 451.975C419.883 451.195 420.381 450.414 420.789 449.597C421.396 448.376 419.952 450.864 419.952 450.864C420.04 450.9 421.007 449.438 421.1 449.3C423.234 446.126 424.787 442.598 426.474 439.182C426.72 438.681 425.106 441.472 425.178 441.448C425.314 441.387 425.793 440.514 425.843 440.451C426.232 439.869 426.648 439.306 427.077 438.735C427.909 437.608 428.796 436.518 429.671 435.436C431.139 433.62 432.655 431.828 433.962 429.881C435.992 426.887 438.411 423.31 439.044 419.672C439.757 415.543 440.405 411.45 441.36 407.354C442.315 403.258 443.498 398.689 443.741 394.279C444.279 384.795 443.652 375.015 442.444 365.6C441.834 360.837 441.442 355.794 439.671 351.282C438.031 347.089 435.584 343.254 433.121 339.513C430.513 335.547 427.762 331.663 425.418 327.528C424.413 325.769 423.492 323.945 422.766 322.044C422.469 321.253 422.358 319.978 421.908 319.309C421.645 318.91 422.107 318.937 421.636 319.104C421.479 319.159 421.209 319.587 421.109 319.713C420.708 320.182 420.314 320.664 419.928 321.159C418.772 322.711 417.827 324.451 416.886 326.138C415.822 328.032 415.565 329.894 415.208 332.002C414.297 337.137 411.898 341.799 409.899 346.56C405.291 357.51 401.815 368.878 397.867 380.051C394.323 390.069 391.026 400.339 389.971 410.959C389.45 416.265 390.089 421.441 390.021 426.729C389.953 432.017 389.147 437.606 390.445 442.852C391.091 445.486 392.287 447.942 393.482 450.364C393.386 450.196 394.503 448.667 394.631 448.439C394.912 447.97 395.729 447.058 395.738 446.503C395.776 443.686 395.204 440.942 394.619 438.205C393.975 435.125 393.57 432.011 392.905 428.925C391.521 422.476 389.28 416.208 386.071 410.44C384.647 407.857 383.521 405.344 382.834 402.459C382.148 399.575 381.734 396.688 381.168 393.804C380.602 390.919 379.95 388.187 378.674 385.621C377.2 382.62 375.342 379.787 373.687 376.889C370.436 371.197 367.431 365.365 364.206 359.658C360.981 353.952 357.362 348.967 353.462 343.972C349.913 339.41 347.17 334.217 343.289 329.915C341.334 327.754 339.22 325.736 337.292 323.56C335.221 321.226 333.575 318.615 331.389 316.38C330.434 315.399 329.36 314.45 328.694 313.253C327.866 311.804 327.227 310.024 325.949 308.867C324.101 307.195 321.514 306.75 319.592 305.188C317.887 303.795 316.364 302.211 314.648 300.858C313.58 300.009 311.263 298.055 309.72 298.507C309.128 298.674 308.649 299.788 308.344 300.305C307.763 301.271 307.162 302.232 306.65 303.227C305.698 305.075 305.704 307.129 305.89 309.167C306.384 314.838 306.378 320.416 306.059 326.105C305.692 332.524 305.531 338.671 306.464 345.052C307.398 351.432 308.957 357.318 308.887 363.533C308.862 366.464 308.643 369.385 308.912 372.319C309.197 375.433 309.867 378.498 310.437 381.569C311.007 384.64 311.583 387.811 312.587 390.892C313.592 393.972 314.387 396.897 315.079 400.002C317.945 412.861 323.035 425.377 329.865 436.676C333.061 441.971 337.253 446.456 341.491 450.933C346.169 455.879 350.688 460.967 354.824 466.377C356.853 469.027 358.78 471.77 360.603 474.571L362.859 470.71C360.433 468.956 357.811 467.52 355.305 465.896C352.979 464.377 351.176 462.421 349.175 460.51C347.174 458.599 344.831 457.261 342.303 456.079C339.775 454.898 337.424 453.666 334.952 452.522C332.48 451.377 330.092 450.802 327.464 450.466C324.836 450.131 322.169 449.938 319.645 449.063C314.87 447.432 310.559 444.541 305.441 444.083C302.316 443.808 299.124 444.018 296.012 444.096C291.828 444.221 287.643 444.345 283.467 444.362C279.803 444.377 276.079 444.376 272.428 443.871C269.851 443.506 267.351 442.583 264.882 441.745C258.115 439.45 251.329 436.702 244.288 435.369C242.73 435.075 240.18 434.335 239.158 435.879C237.937 437.708 236.593 439.35 237.215 441.551C237.837 443.752 239.093 445.951 240.24 447.99C241.829 450.771 243.534 453.486 245.27 456.166C248.137 460.584 251.342 464.844 253.997 469.402C254.152 469.673 254.523 470.714 254.859 470.762C255.371 470.847 256.485 468.29 256.721 467.863C257.592 466.354 257.216 465.214 256.836 463.527C256.258 461.043 255.495 458.597 254.576 456.206C253.874 454.376 253.093 451.957 251.597 450.599C251.196 450.227 250.724 449.913 250.194 450.216C249.767 450.459 249.295 451.707 249.046 452.141C248.826 452.506 247.86 453.641 247.938 454.077C249.108 460.391 251.608 466.631 254.648 472.255C255.749 474.302 256.746 476.409 257.919 478.433C258.895 480.14 259.999 482.014 261.738 483.046C263.179 483.887 264.883 484.287 266.415 484.956C268.438 485.825 270.355 486.927 272.215 488.112C275.952 490.508 279.52 493.12 283.404 495.294C287.48 497.564 291.697 499.6 295.936 501.554C299.846 503.353 303.98 504.733 308.192 505.588C312.403 506.443 315.978 505.432 320.072 504.038C324.985 502.366 330.23 501.996 335.326 501.214C339.873 500.523 344.492 498.727 349.101 499.767L351.357 495.906C348.161 497.49 344.66 498.751 341.978 501.174C339.11 503.754 336.891 506.959 333.797 509.292C330.331 511.905 326.404 514.044 322.639 516.193C318.874 518.343 314.921 520.496 311.047 522.605C303 526.992 295.057 531.561 287.112 536.096C283.231 538.312 279.349 540.528 275.467 542.744C272.879 544.221 269.994 545.148 267.529 546.812C265.374 548.265 264.207 550.698 263.036 552.945C262.607 553.756 261.881 554.977 262.451 555.886C263.124 556.943 265.33 557.022 266.402 557.216C273.126 558.473 279.879 558.941 286.702 558.751C292.7 558.586 298.619 558.346 304.602 558.877C306.574 559.055 308.64 559.368 310.615 559.132C312.591 558.896 314.549 558.207 316.486 557.753C322.389 556.373 327.517 553.034 332.8 550.207C338.861 546.97 345.504 545.202 351.42 541.62C354.739 539.621 357.405 536.779 360.594 534.581C363.526 532.564 366.667 530.463 370.014 529.204C371.571 528.624 373.192 528.368 374.837 528.183C375.805 528.077 376.768 527.99 377.72 527.824C378.03 527.767 380.487 526.931 380.62 527.043C380.851 527.237 376.546 535.201 376.176 536.236C374.916 539.768 375.127 543.593 374.95 547.279C374.774 550.965 374.222 554.866 373.963 558.65C373.705 562.434 373.545 566.539 373.79 570.482C374.034 574.426 374.813 578.012 375.726 581.745C376.703 585.768 377.271 589.766 378.818 593.617C379.83 596.11 380.558 598.525 381.01 601.149C381.305 602.868 381.944 610.085 384.753 609.716C386.516 609.499 387.792 606.386 388.543 605.117C390.551 601.723 392.504 598.293 394.437 594.857C398.601 587.488 403.673 580.716 407.969 573.426C411.643 567.211 414.789 560.733 417.196 553.921C418.489 550.267 419.371 546.555 420.339 542.812C420.746 541.241 421.414 539.677 421.391 538.043C421.367 536.41 420.663 535.027 421.094 533.409C421.409 532.217 422.077 531.133 422.391 529.941C422.75 528.587 422.431 527.397 421.855 526.148L419.599 530.009C420.735 529.205 421.863 528.356 422.978 527.514C423.362 527.226 425.372 523.985 425.234 523.653C424.268 521.391 424.908 519.087 425.214 516.768C425.042 518.119 423.136 519.258 422.958 520.629C422.66 522.961 422.019 525.265 422.978 527.514L425.234 523.653C424.127 524.508 423.004 525.337 421.855 526.148C421.489 526.408 419.462 529.709 419.599 530.009C420.893 532.786 419.727 534.379 418.912 537.039C418.467 538.512 418.888 539.729 419.089 541.193C419.323 542.895 418.71 544.496 418.259 546.109C417.306 549.518 416.582 552.967 415.454 556.339C414.325 559.711 412.892 563.239 411.368 566.579C409.749 570.145 407.922 573.435 405.733 576.692C403.544 579.949 401.417 583.015 399.409 586.289C397.401 589.562 395.678 592.553 393.871 595.729C393.002 597.271 392.133 598.814 391.256 600.343C390.289 602.045 389.458 604.406 387.745 605.521C384.859 607.409 383.854 600.572 383.561 599.007C383.267 597.442 383.065 595.705 382.649 594.106C381.63 590.279 379.787 586.872 379.082 582.934C378.378 578.996 377.178 575.273 376.536 571.385C375.971 567.933 375.869 564.389 375.929 560.89C376.063 553.523 377.006 546.192 377.367 538.833C377.546 535.06 378.406 531.91 380.143 528.551C380.812 527.26 381.517 526 382.158 524.69C382.308 524.381 382.567 523.993 382.643 523.676C382.787 523.027 383.214 523.264 382.286 523.382C381.358 523.5 380.366 523.895 379.386 524.042C376.03 524.535 373.008 524.801 369.945 526.378C366.882 527.955 363.76 529.909 361.029 532.068C358.024 534.436 355.271 536.917 351.883 538.765C348.688 540.503 345.389 542.026 341.951 543.217C336.489 545.099 331.623 548.357 326.488 550.963C322.346 553.053 317.71 554.55 313.103 555.225C311.408 555.472 309.646 555.242 307.937 555.103C304.919 554.836 301.91 554.615 298.881 554.629C293.442 554.629 288.021 555.081 282.593 554.921C279.191 554.822 275.803 554.508 272.425 554.001C270.588 553.729 268.756 553.436 266.945 553.029C266.019 552.82 264.766 552.609 264.527 551.528C264.408 550.961 264.776 550.493 264.862 549.982C264.337 553.3 262.974 552.535 263.881 551.811C264.105 551.631 264.307 551.413 264.53 551.234C265.693 550.296 267.078 549.626 268.423 548.978C271.512 547.506 274.468 545.922 277.444 544.223C284.988 539.916 292.517 535.584 300.075 531.304C307.634 527.023 315 523.247 322.331 518.959C325.88 516.882 329.72 514.861 332.833 512.141C335.532 509.777 337.607 506.74 340.398 504.477C342.966 502.394 346.212 501.227 349.142 499.778C349.687 499.501 350.985 495.826 351.398 495.917C347.275 494.977 343.382 496.393 339.336 497.09C334.767 497.862 330.123 498.232 325.594 499.256C321.567 500.166 317.74 502.419 313.51 502.192C309.28 501.965 304.904 500.432 301.021 498.892C292.589 495.574 284.571 491.059 277.103 485.974C273.566 483.567 270.011 481.548 265.997 480.048C261.983 478.549 260.522 475.3 258.722 471.816C255.151 464.934 251.681 457.927 250.255 450.232L247.999 454.093C250.156 452.913 252.416 460.115 252.813 461.26C253.509 463.23 254.107 465.239 254.6 467.273C254.818 468.195 255.412 469.777 255.085 470.736L255.407 470.158L255.383 470.206L257.317 466.923C257.126 467.1 255.56 464.358 255.399 464.107C253.983 461.896 252.488 459.73 251.032 457.542C247.482 452.227 243.784 446.893 240.938 441.159C240.262 439.795 238.662 437.175 239.407 435.565L237.994 438.019L238.05 437.936L237.207 439.343C238.207 438 242.213 439.247 243.47 439.525C247.214 440.372 250.871 441.578 254.49 442.806C260.691 444.892 266.828 447.616 273.426 448.052C281.946 448.609 290.498 447.93 299.016 447.854C303.245 447.807 306.978 448.455 310.895 450.147C313.349 451.199 315.755 452.467 318.339 453.205C321.092 454.001 323.973 454.089 326.788 454.54C329.952 455.033 332.753 456.333 335.575 457.758C338.397 459.184 341.538 460.358 344.245 462.124C346.952 463.889 348.884 466.611 351.456 468.591C354.363 470.826 357.708 472.416 360.682 474.56C360.481 474.418 363.151 471.041 362.938 470.699C359.364 465.192 355.366 459.995 351.088 455.027C346.809 450.059 342.45 445.823 338.31 441.067C334.17 436.312 331.117 431.176 328.322 425.652C325.528 420.128 322.739 413.984 320.603 407.93C318.466 401.876 317.705 395.587 315.776 389.535C313.846 383.483 312.665 377.81 311.703 371.738C310.74 365.666 311.74 360.087 310.945 354.279C310.15 348.471 308.785 342.355 308.238 336.32C307.612 329.456 308.547 322.592 308.708 315.724C308.782 312.698 308.736 309.704 308.41 306.7C308.145 304.312 307.865 301.779 308.943 299.551L307.262 302.466L307.482 302.101L306.907 303.046C307.539 302.171 308.175 302.322 309.134 302.65C310.032 302.961 310.862 303.482 311.627 304.04C313.384 305.284 314.91 306.815 316.518 308.247C317.149 308.813 317.796 309.404 318.502 309.859C319.677 310.595 321.061 311.005 322.262 311.726C325.134 313.449 325.774 316.583 327.952 318.925C331.891 323.178 335.399 327.728 339.416 331.937C341.421 334.034 343.288 336.193 344.897 338.62C346.506 341.046 347.844 343.388 349.562 345.615C353.408 350.607 357.247 355.586 360.54 360.962C363.834 366.338 366.682 372.225 369.838 377.783C372.81 383.016 376.607 388.191 378.205 394.054C379.804 399.918 379.885 405.618 382.177 410.982C383.527 414.157 385.463 417.066 386.82 420.254C388.27 423.663 389.413 427.196 390.291 430.778C391.104 434.122 391.531 437.515 392.225 440.893C392.873 444.039 393.633 447.173 393.584 450.392L395.84 446.531C393.581 441.885 392.15 437.607 392.102 432.386C392.059 427.504 392.58 422.678 392.19 417.789C391.411 408.164 393.283 398.553 395.931 389.339C398.579 380.126 402.228 370.323 405.477 360.869C407.195 355.857 408.955 350.856 410.932 345.936C412.708 341.474 414.925 337.155 416.422 332.596C417.102 330.543 417.489 328.487 417.819 326.36C417.952 325.512 418.516 324.487 418.544 323.664L417.611 325.244C417.821 324.952 418.039 324.673 418.258 324.394C418.376 324.241 419.546 322.715 419.663 322.769C419.861 322.845 420.128 324.545 420.239 324.859C420.534 325.736 420.868 326.592 421.241 327.425C422.05 329.262 423.029 331.036 424.066 332.761C428.303 339.879 433.742 346.398 437.066 354.021C438.763 357.924 439.272 362.059 439.856 366.237C440.441 370.415 440.951 374.704 441.24 378.964C441.809 387.2 442.34 395.851 440.768 404.004C439.894 408.603 438.669 413.128 437.762 417.728C437.375 419.664 437.229 421.601 436.895 423.541C436.721 424.498 436.433 425.434 436.055 426.336L435.854 426.794C435.088 428.278 435.334 427.897 436.566 425.667C436.037 426.364 435.584 427.103 435.055 427.799C432.163 431.628 428.948 435.162 426.487 439.294C424.66 442.344 422.905 445.49 421.545 448.788L423.752 444.99C422.008 447.735 419.848 450.323 418.677 453.41L420.933 449.549C420.196 450.571 419.033 451.029 418.347 452.141C417.532 453.447 416.662 454.749 416.316 456.216C416.241 456.534 416.104 456.835 416.007 457.147C415.663 457.927 415.83 457.677 416.534 456.417C417.381 455.076 417.453 454.932 416.73 455.98C416.233 456.641 415.64 457.254 414.98 457.751C413.621 458.767 412.105 459.117 410.525 458.424L408.269 462.285C416.366 458.195 423.459 452.019 432.141 449.104C436.013 447.803 440.148 447.381 443.854 445.608C445.85 444.657 447.76 443.464 449.712 442.436C451.806 441.326 453.934 440.214 455.902 438.885C459.711 436.299 462.693 432.898 466.782 430.684C470.87 428.47 473.599 425.317 476.654 422.013C478.014 420.55 479.395 419.092 480.919 417.794C481.505 417.288 482.949 415.76 483.937 415.899C485.094 416.062 484.702 417.779 484.456 418.519C484.393 418.71 484.31 418.894 484.234 419.092C483.638 420.873 487.118 415.73 485.811 416.356C485.597 416.461 485.479 416.735 485.229 416.809C484.565 416.999 484.192 416.526 483.902 415.988C483.562 415.393 483.589 414.657 483.289 414.073C482.877 413.262 483.36 413.656 483.094 413.791C482.716 413.972 482.147 415.378 481.977 415.681C481.61 416.301 481.244 416.922 480.906 417.561L480.876 417.629C481.078 417.652 481.769 416.639 481.895 416.499C482.781 415.496 483.659 414.48 484.544 413.477C487.063 410.616 489.581 407.754 492.141 404.938C494.129 402.739 496.103 400.429 498.351 398.476C498.581 398.277 499.134 397.653 499.394 397.898C499.577 398.068 498.874 400.923 498.835 401.305C498.633 403.085 498.505 404.873 498.229 406.643C497.719 409.867 496.253 412.797 495.466 415.957C495.096 417.472 494.78 418.99 494.369 420.494C494.169 421.226 493.969 421.957 493.721 422.665C493.571 423.094 493.381 423.511 493.231 423.94C492.75 425.381 495.078 421.015 494.1 422.637C492.75 424.9 491.352 427.139 490.427 429.606C489.253 432.746 488.581 436.046 487.427 439.192C487.369 439.362 487.219 439.671 487.164 439.874C486.703 441.681 488.142 437.532 488.325 437.942C488.423 438.143 487.38 439.322 487.269 439.488C486.426 440.655 485.548 441.792 484.649 442.922C482.971 445.03 481.249 447.093 479.585 449.227C478.126 451.089 476.897 453.111 475.39 454.949C473.452 457.325 471.725 459.649 470.17 462.303C469.817 462.917 469.451 463.537 469.105 464.164C469.009 464.356 468.905 464.535 468.816 464.74C468.337 465.734 470.281 462.978 469.051 464.16C467.626 465.54 466.298 466.881 464.746 468.127C463.193 469.374 461.503 470.682 460.12 472.226C458.737 473.77 457.663 475.344 456.496 476.936C454.497 479.656 452.149 482.094 449.794 484.519C447.875 486.507 445.388 489.213 442.424 489.31L440.168 493.17C442.589 491.943 445.505 492.902 447.985 493.459C449.201 493.726 450.473 494.029 451.733 494.013C453.6 493.977 455.009 492.778 456.783 492.4C459.613 491.797 463.098 493.753 465.794 494.478C469.473 495.482 473.175 496.406 476.821 497.532C480.135 498.557 483.38 499.672 486.288 501.58C489.196 503.487 491.792 505.299 495.248 506.002C498.218 506.606 501.347 506.947 503.913 508.707C505.702 509.916 507.134 511.671 508.538 513.288C511.346 516.523 515.211 522.088 520.168 521.213L522.424 517.352C516.24 520.796 509.558 520.151 502.743 520.387C499.239 520.501 496.315 521.329 493.114 522.694C489.912 524.058 486.803 524.924 483.423 525.344C481.726 525.558 480.017 525.659 478.331 525.952C476.645 526.245 474.961 526.932 473.22 527.188C470.341 527.614 467.488 526.584 464.766 525.754C461.65 524.805 458.791 524.395 455.529 524.542C452.267 524.689 448.984 525.07 445.709 524.984C439.729 524.847 433.625 522.963 432.575 516.288L430.319 520.149C431.5 519.904 432.877 521.623 433.564 522.345C434.896 523.746 436.102 525.288 437.229 526.84C438.617 528.759 439.335 531.007 440.637 532.957C442.167 535.275 444.726 536.661 446.206 539.042C449.619 544.538 451.938 550.642 455.639 556.009C456.61 557.409 459.163 561.579 461.409 560.434C461.838 560.223 462.313 558.923 462.557 558.509C462.801 558.095 463.236 556.783 463.665 556.573C462.06 557.369 461.263 558.887 460.363 560.345C459.812 561.243 459.24 562.135 458.41 562.815C458.015 563.143 457.575 563.394 457.078 563.575C456.196 563.924 456.15 563.933 455.51 563.355C454.526 562.442 453.748 561.17 452.8 560.202C451.852 559.233 450.871 558.267 449.911 557.306C447.834 555.232 445.961 553.093 444.511 550.525C438.316 539.617 431.544 529.142 423.291 519.65C423.583 519.981 420.693 523.123 421.035 523.511L420.961 523.502Z" fill="#355139"/>
</g>
<g clip-path="url(#clip1_223_129)">
<path d="M558.721 319.638C558.251 319.473 558.711 319.445 558.45 319.843C558 320.512 557.889 321.785 557.592 322.575C556.867 324.475 555.947 326.297 554.943 328.054C552.602 332.184 549.854 336.065 547.249 340.026C544.789 343.763 542.344 347.593 540.706 351.781C538.937 356.289 538.545 361.326 537.935 366.084C536.729 375.488 536.102 385.257 536.638 394.73C536.881 399.135 538.062 403.699 539.016 407.79C539.969 411.881 540.616 415.969 541.328 420.094C541.545 421.34 541.975 422.577 542.524 423.788C543.443 426.529 545.294 429.07 547.411 431.712C548.458 433.125 549.587 434.475 550.689 435.839C551.045 436.279 551.402 436.722 551.758 437.166C552.682 438.4 553.576 439.687 554.385 441.05C554.661 441.499 556.563 445.108 557.419 447.243C558.353 448.822 559.512 449.827 560.157 451.551C560.239 451.955 560.57 452.282 560.963 452.583L561.668 453.792C561.598 453.608 561.526 453.425 561.449 453.244C561.685 453.633 561.939 454.009 562.26 454.318C562.338 454.394 562.421 454.464 562.505 454.531C556.091 450.58 549.849 446.406 542.361 444.57C540.362 444.08 538.352 443.669 536.417 442.976C534.28 442.218 532.385 441.034 530.411 439.959C526.224 437.689 522.176 435.565 518.592 432.389C516.877 430.861 515.174 429.341 513.193 428.159C511.302 427.028 509.31 426.165 507.622 424.739C504.234 421.88 501.59 418.228 498.337 415.223C498.203 415.099 497.951 414.843 497.631 414.534C497.6 414.49 497.57 414.449 497.54 414.411L497.432 414.227C497.396 414.158 497.355 414.091 497.31 414.024C497.308 414.016 497.305 414.011 497.301 414.009C496.948 413.484 496.363 413.003 495.972 412.554C494.812 411.223 493.632 409.898 492.473 408.568C489.526 405.207 486.558 401.851 483.499 398.597C483.159 398.231 479.53 393.967 478.953 394.373C478.752 394.516 479.345 396.808 479.372 397.029C479.585 398.607 479.696 400.213 479.889 401.796C480.082 403.406 480.503 404.945 480.98 406.452C481.219 407.563 481.549 408.666 482.037 409.753C482.069 409.824 482.1 409.897 482.131 409.969C482.31 410.537 482.481 411.102 482.628 411.671C483.381 414.572 483.865 417.607 485.026 420.385C485.492 421.907 486.058 423.328 486.833 424.516C487.423 425.415 487.933 426.494 488.392 427.666C489.303 430.497 489.907 433.443 491.038 436.194C491.069 436.268 491.102 436.341 491.134 436.415C491.33 437.031 491.529 437.616 491.737 438.157C492.446 440.001 495.007 443.309 497.627 446.564C498.339 447.47 499.069 448.363 499.801 449.255C501.527 451.387 503.045 453.292 503.774 454.481C505.646 457.54 508.832 460.251 510.275 463.494C510.959 465.038 511.897 466.295 512.984 467.421C514.827 470.015 517.47 471.835 519.899 473.848C521.19 474.914 522.3 476.105 523.333 477.359C524.555 479.019 525.731 480.733 527.122 482.309C527.143 482.337 527.164 482.366 527.185 482.393C529.05 484.806 531.269 487.047 533.427 489.218C531.909 489.468 530.387 489.936 529 490.198C527.363 490.514 525.864 490.618 524.278 490.004C522.561 489.35 521.232 488.557 519.34 488.899C517.718 489.189 516.2 489.865 514.641 490.345C512.946 490.852 511.229 491.277 509.531 491.73C505.871 492.708 502.185 493.67 498.589 494.925C495.26 496.074 492.543 497.711 489.618 499.622C486.692 501.534 483.811 502.287 480.422 502.94C477.76 503.46 475.215 504.287 473.168 506.1C471.5 507.58 470.082 509.341 468.623 511.026C466.067 513.971 462.556 518.409 458.132 517.632C458.193 517.642 458.267 517.717 458.35 517.83C458.248 517.776 458.145 517.724 458.044 517.667L459.279 519.78C459.126 519.762 458.971 519.739 458.817 519.706C459.024 519.825 459.23 519.938 459.435 520.048L459.698 520.496C459.837 520.78 459.988 521.063 460.144 521.261L460.297 521.524C460.37 521.537 460.444 521.548 460.517 521.558C467.503 525.374 475 523.863 482.586 524.686C486.025 525.056 488.831 526.623 492.072 527.788C495.314 528.954 498.65 529.384 502.062 529.772C505.235 530.127 508.42 531.603 511.612 531.386C514.548 531.194 517.287 529.999 520.108 529.262C524.48 528.117 531.464 529.331 537.616 529.11C537.159 529.864 536.634 530.584 535.963 531.236C534.385 532.769 532.757 534.118 531.657 536.044C530.159 538.667 528.881 541.416 527.46 544.083C525.735 547.314 523.954 550.58 521.766 553.512C520.858 554.742 518.729 557.809 516.804 556.83L516.847 556.902C516.808 556.882 516.77 556.86 516.73 556.84C517.158 557.05 517.593 558.36 517.836 558.774C517.889 558.863 517.952 558.993 518.023 559.144C517.927 559.126 517.834 559.098 517.743 559.06C517.855 559.114 517.962 559.173 518.067 559.237C518.322 559.785 518.665 560.541 518.983 560.697C519.09 560.751 519.2 560.79 519.308 560.822C519.546 560.957 519.765 561.11 519.969 561.276C520.834 562.618 521.557 564.177 522.82 565.211C522.835 565.233 522.848 565.255 522.862 565.276C523.276 565.872 523.73 566.456 524.304 566.921C524.764 567.286 525.281 567.582 525.844 567.766C526.649 568.037 526.587 567.967 527.201 567.461C528.269 566.581 529.159 565.084 530.128 564.078C531.004 563.173 531.912 562.302 532.794 561.418C534.868 559.346 536.735 557.19 538.189 554.644C543.698 544.945 549.664 535.589 556.723 526.962C557.014 527.397 557.258 527.728 557.369 527.811C557.543 527.943 557.719 528.072 557.893 528.204C557.767 528.858 557.767 529.524 557.956 530.236C558.27 531.427 558.936 532.51 559.25 533.7C559.681 535.317 558.978 536.698 558.954 538.329C558.931 539.961 559.597 541.524 560.004 543.092C560.97 546.831 561.852 550.538 563.143 554.189C563.986 556.574 564.922 558.918 565.937 561.225C566.94 563.639 568.044 566.058 569.259 568.565C572.278 574.783 576.249 579.966 579.981 585.717C584.163 592.152 587.787 599.265 591.719 605.746C592.109 606.391 592.477 606.893 592.82 607.274C593.532 608.514 594.442 609.783 595.544 609.919C598.349 610.287 598.988 603.078 599.283 601.361C599.735 598.74 600.461 596.327 601.472 593.837C603.018 589.991 603.585 585.997 604.56 581.979C605.473 578.25 606.252 574.667 606.496 570.729C606.741 566.79 606.581 562.689 606.323 558.91C606.066 555.13 605.514 551.234 605.338 547.552C605.162 543.87 605.373 540.049 604.115 536.521C603.744 535.487 599.446 527.534 599.677 527.34C599.809 527.227 602.262 528.062 602.573 528.119C603.523 528.285 604.485 528.371 605.453 528.478C607.096 528.662 608.714 528.918 610.269 529.497C613.612 530.754 616.749 532.853 619.677 534.867C622.862 537.062 625.525 539.902 628.841 541.898C634.749 545.476 641.384 547.241 647.437 550.474C652.714 553.297 657.835 556.632 663.731 558.011C665.666 558.464 667.622 559.152 669.595 559.387C671.568 559.622 673.632 559.31 675.601 559.132C681.576 558.602 687.489 558.842 693.479 559.006C700.294 559.195 707.039 558.726 713.754 557.471C714.825 557.277 717.029 557.199 717.701 556.143C718.271 555.235 717.545 554.014 717.117 553.204C715.948 550.961 714.782 548.531 712.629 547.079C710.168 545.417 707.287 544.492 704.702 543.016L693.071 536.377C685.136 531.847 677.202 527.284 669.165 522.902C665.296 520.796 661.348 518.645 657.587 516.499C653.827 514.352 649.906 512.216 646.444 509.606C643.353 507.276 641.137 504.074 638.274 501.497C637.61 500.898 636.897 500.37 636.15 499.89C639.088 500.206 642.018 501.097 644.917 501.537C650.007 502.318 655.246 502.687 660.153 504.357C664.242 505.749 667.812 506.759 672.018 505.905C676.225 505.051 680.354 503.672 684.259 501.875C688.493 499.923 692.705 497.888 696.777 495.62C700.656 493.448 704.221 490.84 707.952 488.447C709.811 487.263 711.725 486.162 713.746 485.294C715.276 484.625 716.978 484.225 718.418 483.385C720.154 482.354 721.258 480.483 722.232 478.777C723.404 476.756 724.4 474.651 725.499 472.606C726.771 470.254 727.946 467.792 728.971 465.264C730.912 462.336 732.963 459.47 734.867 456.535C736.601 453.859 738.305 451.146 739.891 448.368C741.037 446.332 742.292 444.135 742.913 441.937C743.14 441.135 743.105 440.407 742.91 439.717C742.914 439.722 742.918 439.726 742.921 439.731L742.907 439.705C742.566 438.51 741.745 437.428 740.973 436.272C740.902 436.165 740.824 436.069 740.739 435.983L740.724 435.958C740.727 435.964 740.73 435.97 740.733 435.976C739.594 434.832 737.294 435.489 735.848 435.762C728.816 437.094 722.038 439.839 715.279 442.132C712.813 442.969 710.316 443.891 707.743 444.255C704.095 444.761 700.376 444.763 696.717 444.747C692.545 444.731 688.366 444.606 684.187 444.482C681.078 444.404 677.89 444.195 674.768 444.469C669.657 444.927 665.352 447.816 660.582 449.445C658.061 450.319 655.397 450.512 652.772 450.847C650.147 451.182 647.763 451.757 645.294 452.9C642.824 454.044 640.476 455.274 637.951 456.454C635.426 457.635 633.086 458.972 631.087 460.881C629.716 462.191 628.437 463.522 627.018 464.719C630.712 460.062 634.676 455.634 638.762 451.314C642.995 446.842 647.183 442.361 650.375 437.073C657.198 425.786 662.282 413.283 665.145 400.439C665.836 397.338 666.632 394.416 667.635 391.34C668.638 388.263 669.213 385.094 669.782 382.027C670.352 378.959 671.021 375.897 671.306 372.788C671.575 369.857 671.357 366.939 671.332 364.012C671.262 357.804 672.82 351.925 673.752 345.551C674.685 339.178 674.524 333.037 674.159 326.626C673.84 320.944 673.834 315.372 674.327 309.708C674.513 307.672 674.521 305.619 673.57 303.774C673.058 302.78 672.458 301.82 671.878 300.855C671.573 300.338 671.095 299.226 670.504 299.06C668.963 298.608 666.648 300.56 665.581 301.408C663.867 302.759 662.346 304.342 660.643 305.734C658.724 307.294 656.139 307.738 654.294 309.409C653.017 310.565 652.378 312.342 651.552 313.789C650.886 314.985 649.814 315.933 648.86 316.913C646.677 319.146 645.032 321.755 642.964 324.086C641.037 326.259 638.926 328.276 636.973 330.434C633.096 334.732 630.356 339.918 626.812 344.475C622.916 349.465 619.301 354.444 616.08 360.144C612.858 365.844 609.856 371.671 606.609 377.356C604.956 380.251 603.1 383.081 601.627 386.079C600.353 388.641 599.702 391.371 599.137 394.252C598.571 397.133 598.158 400.016 597.472 402.897C596.786 405.778 595.66 408.289 594.237 410.87C592.8 413.455 591.558 416.141 590.499 418.898C590.575 416.407 590.59 413.912 590.343 411.388C589.289 400.78 585.998 390.521 582.458 380.516C578.516 369.355 575.044 358.001 570.443 347.064C568.446 342.309 566.051 337.651 565.141 332.523C564.784 330.417 564.527 328.556 563.465 326.665C562.525 324.98 561.581 323.242 560.427 321.692C560.041 321.198 559.648 320.717 559.248 320.248C559.148 320.123 558.878 319.694 558.721 319.638ZM517.584 558.984C517.636 559.013 517.689 559.037 517.743 559.06C517.69 559.034 517.638 559.007 517.584 558.984ZM598.423 525.551C598.986 526.659 599.581 527.741 600.153 528.845C600.584 529.679 600.961 530.499 601.287 531.32C600.302 529.379 599.199 527.479 598.353 525.524C598.376 525.533 598.4 525.541 598.423 525.551ZM716.273 552.072C716.623 552.351 716.634 552.635 716.487 552.69C716.413 552.481 716.317 552.255 716.198 552.008C716.223 552.029 716.248 552.051 716.273 552.072ZM715.294 550.246C715.32 550.4 715.372 550.551 715.428 550.701C715.406 550.674 715.384 550.648 715.362 550.622C715.338 550.502 715.315 550.377 715.294 550.246ZM630.117 498.405C629.996 498.346 629.876 498.29 629.759 498.231C629.842 498.21 629.924 498.191 630.006 498.172C630.043 498.25 630.08 498.328 630.117 498.405ZM618.366 472.919C618.325 472.949 618.283 472.978 618.242 473.008C618.272 472.962 618.304 472.916 618.334 472.87C618.345 472.886 618.355 472.902 618.366 472.919Z" fill="#355139"/>
</g>
<defs>
<clipPath id="clip0_223_129">
<rect width="287.947" height="307.605" fill="white" transform="matrix(0.86846 -0.49576 0.495949 0.868352 163.195 382.1)"/>
</clipPath>
<clipPath id="clip1_223_129">
<rect width="287.909" height="307.628" fill="white" transform="matrix(-0.86846 -0.49576 -0.495949 0.868352 816.836 382.571)"/>
</clipPath>
</defs>
</svg>
