<svg width="88" height="83" viewBox="0 0 88 83" fill="none" xmlns="http://www.w3.org/2000/svg">
<path fill-rule="evenodd" clip-rule="evenodd" d="M62.169 31.4533C63.2003 32.4084 64.4159 32.4481 65.5941 32.6103C66.0432 32.6721 66.5059 32.6917 66.9373 32.8174C67.8361 33.0795 68.7164 33.3656 69.6687 33.424C70.0889 33.45 70.5277 33.702 70.8938 33.9477C71.3505 34.2544 71.3315 34.6948 70.9271 35.0891C70.7645 35.2477 70.5978 35.4026 70.4304 35.5559C69.6812 36.2405 69.0167 36.953 68.6058 37.9387C68.3222 38.6186 67.7004 39.161 67.2118 39.7499C66.7044 40.3615 66.1754 40.9554 65.6441 41.5708C66.0845 42.3725 66.9078 42.6279 67.591 43.0446C69.1174 43.9755 70.673 44.8584 72.2164 45.7612C72.6632 46.0227 72.9041 46.432 73.0227 46.9206C73.1028 47.2506 72.9998 47.4466 72.636 47.5399C71.7033 47.7788 70.7763 48.043 69.8557 48.3256C69.598 48.4045 69.3125 48.5303 69.1391 48.7241C68.22 49.75 67.1475 50.5799 65.9926 51.3134C65.9215 51.3585 65.856 51.4128 65.7116 51.519C68.0235 54.4853 69.3508 57.9146 70.9364 61.3887C70.5164 61.4065 70.2446 61.4487 69.9792 61.4235L66.3413 61.0449C66.1459 61.0233 65.9565 60.9522 65.7617 60.92L63.6698 60.5882C63.1656 60.5163 62.6469 60.5163 62.1542 60.4004C61.5885 60.2671 61.0461 60.2271 60.4122 60.463C60.6674 61.4241 60.8792 62.4027 61.2653 63.342C61.4339 63.7524 61.6208 64.2222 61.5748 64.64C61.4932 65.3801 61.3512 66.0935 61.8352 66.7565C61.2405 67.161 60.7021 67.3365 60.0773 67.1226C59.9191 67.0683 59.7417 67.034 59.5765 67.0447C58.6618 67.1036 57.8689 66.7637 57.0522 66.3982C56.1536 65.9964 55.1907 65.7391 54.2332 65.4112C53.9991 65.9928 54.0925 66.8043 53.137 66.5275C53.137 66.7983 53.0956 66.9791 53.1444 67.1303C53.3472 67.7591 53.236 68.3176 52.7986 68.7985C52.3597 69.2812 52.6448 69.8337 52.6337 70.3517C52.6268 70.6749 52.9065 71.1091 52.5096 71.2635C52.2187 71.3764 51.7385 71.3069 51.4788 71.1244C51.0271 70.8065 50.6727 70.3456 50.2912 69.9322L47.4728 66.8685C46.7249 66.1001 45.9089 65.3988 45.1159 64.6611C44.9757 64.7901 44.8886 64.8337 44.8613 64.9012C44.2447 66.4298 43.0846 67.5941 42.1834 68.9316C41.8049 69.4937 41.4477 70.0715 41.1023 70.6546C40.7556 71.2405 40.4497 71.3768 39.8579 71.1876C39.5555 71.091 39.3795 70.8993 39.3095 70.5969C39.2262 70.2367 39.178 69.8633 39.0517 69.5187C38.8406 68.9429 38.653 68.3459 37.9893 68.0801C37.5126 67.8891 37.2139 67.4897 37.1105 66.9904C36.9902 66.4081 36.8783 65.8169 36.846 65.2246C36.8014 64.4117 36.8349 63.5944 36.8349 62.7516C35.9513 62.6982 35.2565 62.9214 34.5981 63.4501C33.7808 64.1069 32.8894 64.6727 32.0127 65.2517C31.7815 65.4044 31.4948 65.5031 31.2203 65.5538C30.4943 65.6883 29.9205 66.0905 29.3552 66.5248C29.0865 66.7313 28.8064 66.9237 28.5231 67.1096C28.2103 67.3149 27.8763 67.3096 27.5466 67.1519C26.874 66.8304 26.7442 66.327 27.1902 65.7104C27.5071 65.2724 27.8599 64.8606 28.1794 64.4244C28.4881 64.0029 28.6647 63.6084 28.4059 63.023C28.2521 62.6749 28.3585 62.1014 28.5485 61.7332C28.99 60.8775 29.5374 60.0743 30.0748 59.272C30.2965 58.9409 30.4158 58.6262 30.2931 58.2474C30.2396 58.2087 30.1992 58.1588 30.1498 58.1469C28.5881 57.7739 27.2448 57.0192 26.1384 55.848C25.7663 55.4547 25.2867 55.4468 24.8871 55.6808C23.9908 56.2059 23.1714 55.8912 22.3644 55.5332C21.7511 55.2609 21.7377 54.9278 22.1987 54.4432C22.4889 54.1379 22.7249 53.7801 23.0171 53.4772C23.7646 52.7028 24.7339 52.2787 25.6923 51.8504C25.9168 51.7502 26.2044 51.6904 26.4397 51.7354C27.1456 51.8698 27.6339 51.5263 28.0984 51.0855L28.9691 50.255L28.4118 49.9757C27.802 49.6663 27.2545 49.3198 26.836 48.7234C26.4336 48.15 25.8425 47.7123 25.3535 47.1968C24.7479 46.5582 24.1595 45.903 23.5694 45.2498C23.4556 45.1237 23.3194 44.9876 23.2765 44.8331C22.973 43.7382 22.1012 43.2191 21.2057 42.7058C20.5996 42.3582 20.4442 42.0905 20.5599 41.7377C20.6834 41.361 21.0076 41.2877 21.7402 41.4344C23.1157 41.7104 24.4605 41.6589 25.7085 40.9411C26.2103 40.6525 26.7324 40.6361 27.2732 40.6923C28.0317 40.7708 28.7201 40.5189 29.5817 40.2702C29.3657 40.0134 29.2563 39.7678 29.074 39.686C28.1267 39.2599 27.5295 38.5566 27.2748 37.5568C27.0083 36.5112 26.6654 35.4751 26.5166 34.4122C26.3881 33.494 26.4695 32.5434 26.4998 31.6086C26.5042 31.4778 26.7371 31.2619 26.8821 31.2457C27.3223 31.1966 27.7872 31.1525 28.2125 31.2452C28.6742 31.3459 29.1025 31.6021 29.5834 31.8067C30.5241 31.1826 31.0907 32.1127 31.8773 32.4437L33.3002 31.9376C33.4966 31.1318 33.7041 30.3664 33.8604 29.5906C33.9131 29.3291 33.8668 29.0352 33.8122 28.7669C33.6993 28.2116 33.5018 27.6701 33.4267 27.1112C33.2665 25.9181 33.3304 24.7371 33.7744 23.5952C33.8655 23.3607 33.9134 23.0991 33.9288 22.8467C33.9804 22.0026 34.4423 21.4958 35.1705 21.2051C35.981 21.514 36.4284 22.1005 36.6167 22.9441C37.573 22.9773 38.196 23.48 38.5997 24.3149C38.6753 24.4717 38.8867 24.5677 39.0449 24.6784C39.4472 24.9601 39.7681 25.2866 39.9619 25.7653C40.3111 26.6281 40.7212 27.466 41.172 28.4597C41.4796 28.0704 41.7253 27.8123 41.9105 27.5164C42.6814 26.285 43.5531 25.1404 44.5223 24.0528C45.4645 22.9957 46.2884 21.8319 47.1495 20.7038C47.6105 20.1002 48.3279 19.9713 48.9103 20.491C49.2193 20.7666 49.4944 21.1268 49.6639 21.5033C49.9902 22.2278 50.2314 22.991 50.5067 23.7384C50.9373 24.9085 51.2798 26.1101 52.1772 27.0621C52.4688 27.3716 52.6389 27.4023 52.9441 27.1927C54.1852 26.34 55.4682 25.5419 56.6577 24.6221C57.456 24.0046 58.323 23.5475 59.2095 23.103C59.7923 22.8111 60.3976 22.56 60.9593 22.2328C61.4033 21.9743 61.8411 21.8964 62.333 21.9979C62.9204 22.1192 63.0658 22.2822 63.1292 22.8984C63.1524 23.1238 63.2291 23.3444 63.2415 23.5694C63.271 24.1053 63.3617 24.6566 63.2775 25.1773L62.169 31.4533ZM38.4678 57.6967C38.7185 57.9657 39.0104 58.3107 39.3354 58.6202C39.7538 59.0189 40.0158 58.9667 40.3204 58.4452C40.6349 57.9064 40.9121 57.3442 41.2548 56.8249C41.3758 56.6416 41.6706 56.4147 41.8371 56.4485C42.4347 56.5705 42.7208 56.2108 43.0347 55.8364C43.9826 54.7058 44.8574 53.4998 45.904 52.4699C47.7327 50.671 49.6666 48.9798 51.5612 47.2485C51.8305 47.0026 52.1544 46.8128 52.406 46.551C53.4627 45.4525 54.5633 44.3909 55.4123 43.1085C55.5517 42.8978 55.7229 42.7052 55.8973 42.5211L57.5524 40.7991L55.4536 38.4827L52.0092 41.9864L50.4462 43.5305C49.3583 44.5662 48.4915 45.8367 47.2059 46.6597C46.3713 47.1941 45.7992 47.9772 45.2154 48.7326C44.4732 49.6926 43.8362 50.7061 42.8925 51.5281C41.8997 52.3928 41.0251 53.4167 40.3296 54.5702C40.1139 54.9277 39.7734 55.2098 39.4886 55.5255C39.3574 55.6709 39.1692 55.7911 39.0997 55.961C38.8682 56.5248 38.6791 57.1058 38.4678 57.6967ZM60.8766 51.0872C60.7862 50.754 60.7013 50.2534 60.5145 49.7944C60.1685 48.9439 59.3707 48.4762 58.7281 47.8973C57.9619 47.2073 57.0671 46.8032 56.0349 47.4433C55.945 47.4992 55.8072 47.4723 55.7079 47.5187C55.2022 47.7544 54.6251 47.9126 54.2188 48.266C53.6494 48.761 53.2513 49.4492 52.7042 49.9752C51.664 50.9757 51.3865 52.2592 51.2605 53.6029C51.2374 53.8473 51.3411 54.2067 51.5177 54.348C52.1097 54.8224 52.7605 55.2233 53.3906 55.6496C53.8795 55.9805 54.4688 56.2243 54.8342 56.6584C55.2217 57.1189 55.607 57.1779 56.0928 57.0521C57.4502 56.7004 58.5499 55.8654 59.5237 54.9322C60.5271 53.9709 60.6876 52.5985 60.8766 51.0872ZM42.869 41.1211L42.8696 40.351C42.8858 39.2289 42.3063 38.5066 41.3678 37.9717C40.9533 37.7357 40.5307 37.6569 40.1474 37.8344C39.151 38.2962 38.0841 38.6979 37.2345 39.3656C35.3267 40.8649 34.7421 44.2644 36.7766 46.3651C36.9491 46.5434 37.1627 46.7365 37.3903 46.796C38.3399 47.0448 39.2912 47.1827 40.1284 46.4484C40.2743 46.3206 40.4827 46.2655 40.6319 46.1406C40.9762 45.852 41.4333 45.6037 41.6115 45.2278C42.2279 43.9275 43.0217 42.6636 42.869 41.1211ZM45.8364 63.708L47.2856 65.0325C47.2349 64.2081 46.8391 63.846 45.8364 63.708ZM28.2853 33.4378L29.1501 33.5414C29.2769 32.9728 28.9913 32.7612 28.4859 32.5911L28.2853 33.4378ZM35.7956 24.1703C35.3846 25.0061 35.3846 25.0061 36.0538 25.1914L35.7956 24.1703ZM36.2765 31.8745C36.4781 31.6153 36.6615 31.3552 36.2765 30.9225V31.8745ZM63.5582 33.6775L63.9974 34.3343L64.5587 33.9041L63.5582 33.6775ZM57.7456 29.7064C57.6415 30.1157 57.7826 30.2671 58.2823 30.2671L57.7456 29.7064ZM45.5803 30.5497L45.7672 30.6284L45.977 30.0608L45.8135 30.0009L45.5803 30.5497ZM37.2034 48.0548L37.2401 47.9214L36.6976 47.7377L36.6476 47.9182L37.2034 48.0548ZM68.1122 59.3026C68.0453 59.75 68.0453 59.75 68.4802 59.7097L68.1122 59.3026ZM25.1997 44.392L25.3147 44.2097L24.864 43.9636L24.8077 44.061L25.1997 44.392ZM49.7894 32.2377L49.59 32.2168L49.5685 32.5931L49.7031 32.6138L49.7894 32.2377ZM30.022 55.4713L29.9825 55.5956C30.0643 55.6394 30.142 55.7048 30.2287 55.7207C30.3039 55.7347 30.3894 55.6927 30.4704 55.6753L30.4654 55.5445L30.022 55.4713ZM6.70024 50.7642L6.26834 48.6093C6.02727 49.6279 6.1748 50.5933 6.45117 51.5816L6.79346 51.3842C6.82705 51.4345 6.89171 51.4909 6.88151 51.5226C6.7503 51.9299 6.63636 52.3237 6.9005 52.736C6.9843 52.8665 6.97206 53.0644 6.98697 53.2329C7.04002 53.8268 7.20276 54.3604 7.4964 54.9047C7.99956 55.8369 8.44103 56.8233 8.36492 57.9598L7.49672 55.5305L7.33836 55.5731C7.3754 56.1467 7.44728 56.7206 7.4421 57.2938C7.43268 58.2871 7.34856 59.2795 7.34747 60.2726C7.34668 61.0677 7.35484 61.8734 7.47741 62.6556C7.85674 65.0784 7.54866 67.477 7.36598 69.8891C7.21799 71.8421 7.22301 73.8071 7.17326 75.7672C7.16871 75.948 7.25911 76.1311 7.33836 76.4422L9.33387 75.6041L10.0321 75.2976C10.5439 75.0671 11.0466 74.8142 11.5684 74.6096C12.0667 74.4145 12.5832 74.2647 13.094 74.1026L14.8 73.5815C15.3439 73.4282 15.8919 73.2901 16.4435 73.1673C17.2167 72.9966 17.9889 72.8032 18.772 72.6998C19.8383 72.559 20.9168 72.5141 21.986 72.3928C24.479 72.1097 26.9801 72.1495 29.4782 72.2227C30.3778 72.249 31.2721 72.4627 32.1684 72.595C32.3081 72.6156 32.4454 72.6902 32.5822 72.6864C33.9363 72.6477 35.2116 73.0822 36.5183 73.327C36.7672 73.3738 37.0278 73.3538 37.2817 73.378L39.3951 73.5893C40.0635 73.6452 40.7342 73.6716 41.4028 73.7233C41.5977 73.7384 41.8661 73.7272 41.9694 73.8447C42.4736 74.417 43.119 74.215 43.7215 74.2161C44.1443 74.217 44.5696 74.1074 44.99 74.1267C46.4785 74.1956 47.9306 73.9495 49.394 73.7324C50.4806 73.5712 51.5913 73.5813 52.6891 73.4874C53.5364 73.415 54.3848 73.3294 55.2237 73.1936C55.7713 73.1052 56.1993 73.232 56.6147 73.59C57.1189 74.0244 57.1368 74.0033 58.0322 74.0101C57.6447 72.1555 57.6076 70.26 57.035 68.3735C57.26 67.9865 57.5841 67.6834 58.1844 67.8213C58.2048 67.9639 58.2437 68.1025 58.2411 68.2403C58.2233 69.2115 58.3583 70.1577 58.5193 71.1182C58.7064 72.232 58.6442 73.3873 58.7053 74.5237C58.7204 74.7989 58.7269 75.1083 58.8528 75.3384C59.4255 76.3848 58.9322 76.6889 58.1499 77.1579C57.9193 77.2957 57.6056 77.2976 57.3286 77.3542L54.1739 77.9963C53.8963 78.0527 53.6205 78.1283 53.3399 78.1604C51.8079 78.3357 50.3521 78.8052 48.8872 79.257C48.1607 79.4812 47.393 79.5714 46.6436 79.7195C46.2815 79.7912 45.911 79.8298 45.5574 79.9303L38.6938 81.8885C37.6835 82.1583 36.6258 82.2444 35.6004 82.4641C34.5038 82.699 33.3975 82.6506 32.2913 82.6926C30.8755 82.7465 29.4622 82.8702 28.0479 82.9654C26.0172 83.1018 24.039 82.8244 22.072 82.3132C20.7302 81.9646 19.3519 81.7577 17.9919 81.4779C17.4377 81.364 16.8884 81.2274 16.3375 81.0982C16.0339 81.0268 15.7343 80.9363 15.4284 80.8767L11.6064 80.158C11.1348 80.08 10.6437 80.1201 10.1632 79.9772L10.9105 79.9097L10.9232 79.7849C10.152 79.6606 9.38441 79.5048 8.60912 79.4202C7.5959 79.3091 6.83019 78.8974 6.45855 77.8944C6.42481 77.8032 6.33755 77.7193 6.255 77.6609C5.92197 77.426 5.88273 77.2145 6.21435 76.919C6.35293 76.7956 6.44521 76.5409 6.44081 76.3486C6.42104 75.4762 6.31212 74.6043 6.32421 73.7335C6.34006 72.5963 6.42512 71.4597 6.50689 70.3248C6.59681 69.0776 6.66712 67.8259 6.83552 66.5886C7.08537 64.7509 6.54157 62.9722 6.53137 61.1585C6.52713 60.3927 6.65127 59.6192 6.57892 58.8624C6.4416 57.4235 6.26865 55.9821 5.99463 54.5645C5.55739 52.3023 4.94814 50.0753 5.04278 47.7335C5.0795 46.829 4.89855 45.9173 4.89981 45.009C4.90106 44.0435 5.0478 43.0781 5.0467 42.1126C5.04482 40.7485 5.00433 39.3818 4.91032 38.0213C4.77284 36.0359 4.5809 34.0542 4.39791 32.0725L3.74535 25.1977C3.63925 23.979 3.59123 22.7551 3.52123 21.5334C3.4368 20.0613 3.47651 18.5711 2.73041 17.2141C2.58618 16.9516 2.55981 16.6125 2.52371 16.3036C2.35893 14.8928 1.81073 13.6035 1.18783 12.3609C0.698171 11.3833 0.362944 10.3677 0.113407 9.32094C-0.15559 8.19285 0.0631858 7.07421 0.671648 6.13101C1.50218 4.84384 2.43755 3.61646 3.41263 2.43361C4.55972 1.04242 6.13462 0.432669 7.89817 0.285068C8.37904 0.244785 8.87451 0.182944 9.34533 0.252338C11.1029 0.511819 12.8506 0.435344 14.6069 0.250135C15.2829 0.178853 15.9739 0.266028 16.6552 0.228735C17.6731 0.173031 18.6876 0.0347144 19.7058 0.00229903C20.3512 -0.0183146 21.0001 0.105682 21.6486 0.135265C22.2382 0.161858 22.8297 0.142661 23.4205 0.154148C24.0137 0.165635 24.6278 0.0989158 25.1947 0.230938C25.9962 0.417562 26.7608 0.338884 27.5534 0.245887C28.2207 0.167366 28.9037 0.232826 29.5781 0.201355C30.3975 0.163117 31.2143 0.0696476 32.0337 0.0392778C32.5639 0.0196082 33.1083 0.00859328 33.6257 0.104895C34.3208 0.234242 34.9957 0.382 35.7171 0.31056C36.2176 0.260835 36.7329 0.358396 37.2412 0.390969C37.6102 0.414573 37.9889 0.505997 38.3459 0.452338C40.1284 0.184518 41.9086 0.5403 43.6945 0.432669C45.0195 0.352731 46.3601 0.456587 47.6671 0.790654C48.3713 0.97067 48.9754 1.29482 49.5286 1.77224C51.0238 3.06272 51.8242 4.77995 52.5336 6.55886C52.5849 6.68727 52.5814 6.83738 52.6075 6.97649L52.9788 8.97774C53.035 9.33982 53.0317 9.71165 53.0461 10.0794C53.0623 10.4986 52.9934 10.9378 53.0962 11.3331C53.2615 11.9691 53.3279 12.5878 53.3219 13.2495C53.3162 13.8871 53.5344 14.5301 53.6805 15.1647C54.0184 16.6322 54.1829 18.1206 54.2478 19.6221C54.2551 19.7899 54.2441 19.9662 54.2003 20.1274C53.8961 21.257 53.8046 22.3927 53.9569 23.5611C54.0333 24.1463 53.9702 24.7497 53.9702 25.3308C53.2845 25.4786 52.6721 25.1334 52.618 24.5815C52.5408 23.7903 52.4672 22.9966 52.448 22.2026C52.4344 21.6369 52.5364 21.0695 52.5449 20.502L52.548 17.1691C52.5479 17.1123 52.5469 17.0536 52.5329 16.999L51.6213 13.4588C51.5579 13.2117 51.4174 12.9516 51.4521 12.7183C51.5806 11.8471 51.2487 11.041 51.1691 10.202C51.1486 9.98278 51.1705 9.7598 51.1561 9.53982C51.1249 9.0613 51.0957 8.58215 51.0411 8.10599C50.9922 7.68333 50.9593 7.24903 50.8323 6.84746C50.577 6.04069 50.2984 5.23691 49.9593 4.46256C49.7246 3.92614 49.4247 3.39978 49.0623 2.94171C48.3001 1.97791 47.1528 1.86618 46.0517 1.80277C44.7485 1.72771 43.4338 1.84384 42.1321 1.75651C41.0538 1.68412 39.9746 1.80828 38.9181 1.73542C37.1193 1.61142 35.2852 1.79931 33.5146 1.21945C33.0709 1.07405 32.5141 1.28727 32.0081 1.3189C31.3016 1.36312 30.5811 1.49057 29.8904 1.40009C29.167 1.30505 28.4726 1.31858 27.7822 1.48318C27.0706 1.65265 26.3804 1.5853 25.6726 1.48066C25.0315 1.38578 24.3794 1.35352 23.7307 1.32582C23.0856 1.29813 22.4228 1.39868 21.7964 1.28444C20.8835 1.11796 19.9905 1.22858 19.0878 1.26351L16.956 1.32315C15.5417 1.40135 14.1295 1.54124 12.7145 1.57618C11.8688 1.59695 11.0202 1.45218 10.1715 1.40781C7.81939 1.28444 5.63257 1.60623 4.10537 3.69734C3.45249 4.59128 2.74516 5.44635 2.11692 6.35635C1.3286 7.49828 1.1059 8.72818 1.65018 10.0679C2.21658 11.4621 2.73543 12.8761 3.26024 14.2869C3.38877 14.6322 3.46003 14.9987 3.55733 15.3557L4.24269 17.8975C4.3899 18.5028 4.54449 19.1175 4.58608 19.7354C4.68354 21.1839 4.69437 22.6382 4.78179 24.0877C4.82604 24.8232 4.98816 25.5511 5.04765 26.2863L5.46229 31.9022C5.53416 32.7782 5.68357 33.6476 5.76675 34.5228C5.85276 35.4284 5.91177 36.337 5.96324 37.2451C6.03088 38.4381 6.12018 39.6323 6.12332 40.8263C6.12552 41.7343 6.00467 42.6419 5.9441 43.5502C5.8661 44.7215 5.95147 45.8784 6.24636 47.0185L6.89343 49.6435C6.96767 49.9853 7.04802 50.3687 6.70024 50.7642ZM40.7284 76.0221C42.0434 76.1574 43.3264 75.9755 44.598 75.6819C43.3065 75.7867 41.9764 75.4214 40.7284 76.0221ZM30.5555 78.88C30.2135 78.2894 30.2135 78.2894 27.8051 78.6746C28.7651 78.9955 29.6341 78.9221 30.5555 78.88ZM15.2212 75.6521C14.6966 75.0438 14.2386 75.4971 13.829 75.5486C13.3947 75.6033 12.9835 75.843 12.5623 76.0019L12.6041 76.0864L15.2212 75.6521ZM56.8824 75.5568L56.0004 75.1289C55.6914 74.9779 55.4575 74.5819 54.9589 74.8612C55.1303 74.9232 55.2661 74.9465 55.3701 75.0172C55.4823 75.093 55.5743 75.2057 55.6587 75.3154C56.1021 75.8899 56.1412 75.8989 56.8824 75.5568ZM31.1065 75.4636C31.8454 75.9344 32.2778 75.9385 33.2561 75.4636H31.1065ZM38.1422 76.1783L38.1442 76.274H39.6843L39.6824 76.1783H38.1422ZM46.6558 11.2471C45.8196 11.2471 44.9713 11.2928 44.1298 11.236C43.008 11.1601 41.941 11.2673 40.8727 11.6646C40.2196 11.9074 39.4899 11.9928 38.7872 12.0423L31.8187 12.4555C31.6214 12.4671 31.4246 12.4953 31.2285 12.5224C27.589 13.0242 23.9296 13.16 20.2622 13.0704C19.2165 13.0448 18.1749 12.826 17.1299 12.8136C16.085 12.8012 15.04 12.9482 13.9938 13.0013C13.4605 13.0283 12.9228 12.9754 12.3898 13.0072C11.526 13.0582 10.6917 12.7283 9.81396 12.8744C9.26906 12.965 8.88188 12.7016 8.84594 12.3897C8.80828 12.0622 9.08779 11.858 9.7099 11.7607C9.82212 11.7433 9.93778 11.7128 10.0483 11.7241C11.8081 11.9063 13.5379 11.5933 15.2815 11.4536C16.3485 11.3681 17.4342 11.5433 18.512 11.5589C22.2046 11.6119 25.8961 11.7277 29.5705 11.1365C30.8201 10.9356 32.1111 11.0037 33.3798 10.9066L38.7976 10.4342C39.469 10.3796 40.1319 10.2541 40.8218 10.4673C41.1713 10.5754 41.6115 10.4649 41.9934 10.3773C42.8908 10.1711 43.7718 10.1406 44.6786 10.3455C45.0183 10.4223 45.4059 10.32 45.7661 10.2635C46.5006 10.1477 46.7012 10.332 46.6558 11.2471ZM32.011 24.1118L31.2894 23.9823C30.5707 23.8511 29.8569 23.6589 29.1325 23.6021C28.1427 23.5244 27.1439 23.5725 26.1508 23.5255C24.3813 23.4421 22.9647 24.2599 21.6847 25.3293C20.3816 26.4177 19.1178 27.5609 17.9124 28.7571C16.854 29.8075 16.2451 31.1289 16.2329 32.6451C16.2252 33.6086 16.3247 34.5751 16.4149 35.5363C16.5394 36.8635 16.683 38.1891 16.8498 39.5113C17.0475 41.0791 17.5275 42.542 18.4205 43.872C18.9445 44.6525 19.6908 44.9835 20.5368 45.1494C21.2829 45.2954 22.0442 45.3658 22.8005 45.4545C23.2343 45.5056 23.4975 45.751 23.4911 46.1403C23.4858 46.4671 23.1868 46.6669 22.737 46.603C21.815 46.4721 20.8859 46.3665 19.9775 46.1678C18.5338 45.8518 17.6609 44.7996 16.9441 43.604C16.0185 42.0599 15.6446 40.3535 15.5233 38.5736C15.4751 37.8657 15.3625 37.1625 15.2757 36.4575C15.2655 36.3736 15.2063 36.2885 15.2167 36.2103C15.3913 34.8772 14.9018 33.5773 15.0144 32.2511C15.1834 30.2611 16.0254 28.6138 17.5408 27.3017C18.7188 26.2816 19.7855 25.1116 21.048 24.2153C22.4931 23.1892 24.0247 22.2078 25.95 22.3271L30.7054 22.5683C31.5874 22.6275 32.1061 23.2457 32.011 24.1118ZM77.4672 37.821C78.8916 37.2673 80.3899 36.9776 81.9107 36.7741C82.4722 36.699 83.0271 36.5751 83.5859 36.4776L86.9314 35.9041C87.4905 35.8149 88.05 36.3173 87.9267 36.8723C87.7166 37.819 87.838 38.7333 87.9815 39.6633C88.0613 40.1809 87.8865 40.3867 87.3903 40.2994C86.1046 40.0729 84.853 40.3864 83.5862 40.46C83.2807 40.4778 82.9703 40.4032 82.6615 40.3864C82.1222 40.3568 81.5825 40.3222 81.0429 40.3212C80.3595 40.3203 79.6979 40.2962 79.0377 40.0339C78.67 39.8879 78.2131 39.9617 77.796 39.95C77.5125 39.942 77.2234 39.9941 76.946 39.9552C76.4965 39.8921 76.263 39.2169 76.6288 39.0802C77.2743 38.8389 77.1668 38.2304 77.4672 37.821ZM78.6651 38.7208C81.4315 39.6564 84.0356 39.1016 86.6927 38.9231L86.4472 37.2663C83.8395 37.6355 81.3089 37.9868 78.6651 38.7208ZM66.1726 16.267C64.9917 16.1976 64.8109 15.998 65.276 14.9307C65.8634 13.5821 66.6348 12.3113 67.18 10.9478C67.7208 9.59537 68.428 8.27735 68.4512 6.75383C68.4592 6.2292 68.7007 6.06728 69.2353 6.12865C69.431 6.15115 69.6841 6.14879 69.8043 6.26713C70.3301 6.78514 71.0304 6.7351 71.6605 6.91575C72.2325 7.07971 72.3465 7.30253 72.1787 7.84682C72.1203 8.03612 72.0681 8.23518 71.9665 8.40166C71.0337 9.93557 70.4331 11.6654 69.1138 12.9771C68.6091 13.4786 68.3443 14.2215 67.9661 14.852C67.7209 15.2605 67.535 15.7389 67.1958 16.0446C66.9705 16.2474 66.5213 16.2015 66.1726 16.267ZM67.7527 12.6723C68.5213 11.8048 69.428 11.0756 69.7992 9.91008C69.9693 9.3757 70.1528 8.78561 70.6316 8.379C70.7634 8.26728 70.8072 8.05139 70.9248 7.81646L69.7298 7.43471C68.985 9.17837 68.6573 11.0317 67.7527 12.6723ZM82.0494 22.0053C81.9585 22.05 81.8246 22.103 81.7044 22.1776C80.4291 22.9677 79.1703 23.7777 77.7501 24.3098C77.098 24.554 76.5086 24.9659 75.8894 25.2997C75.566 25.474 75.2512 25.6717 74.9114 25.805C74.6662 25.9011 74.3878 25.9151 74.1224 25.9527C73.9462 25.9777 73.7668 25.9878 73.5888 25.9908C73.3781 25.9943 73.0681 26.0657 72.9793 25.9587C72.8459 25.798 72.7534 25.4427 72.8434 25.2847C73.19 24.6764 73.546 24.0437 74.0314 23.5521C74.5881 22.9887 75.1754 22.475 75.6275 21.8056C75.8883 21.4196 76.2851 21.0835 76.6917 20.849C77.3065 20.4945 77.6761 20.0171 77.8044 19.3324C77.8306 19.1927 77.8371 19.0454 77.8876 18.9153C78.0861 18.4045 78.6357 18.2688 78.944 18.7228C79.4026 19.3979 80.2438 19.7307 80.5074 20.5796C80.5682 20.7743 80.8593 20.9288 81.077 21.0361C81.5841 21.2873 81.5921 21.2709 82.0494 22.0053ZM80.2308 21.8215C79.7915 21.041 79.5204 20.3408 78.7097 20.0539C78.6504 20.1645 78.568 20.2552 78.554 20.3554C78.4728 20.9489 78.1205 21.3496 77.6177 21.599C76.6776 22.0652 76.15 22.8449 75.7275 23.9367L80.2308 21.8215ZM65.3213 67.1615L66.3654 67.2745C66.4533 67.125 66.5525 66.748 66.7255 66.7102C66.9863 66.6534 67.3333 66.7763 67.5797 66.9272C67.8881 67.116 68.1824 67.3742 68.3931 67.6674C69.0017 68.5144 69.8626 69.0798 70.6146 69.7665C71.031 70.1467 71.439 70.5366 71.8447 70.9286C72.1511 71.2243 72.1423 71.5179 71.8201 71.8038C71.6074 71.992 71.4031 72.1895 71.1947 72.3826L69.8924 73.5909C69.3941 74.0737 68.8468 73.986 68.4961 73.3871C68.1973 72.8771 67.8029 72.4192 67.5397 71.8933C67.0389 70.8923 66.2277 70.051 66.034 68.8838C65.9886 68.6106 65.749 68.3239 65.5217 68.138C65.2027 67.8767 65.1314 67.6152 65.3213 67.1615ZM66.8367 67.7594L66.7522 67.845C67.1174 68.5656 67.4243 69.324 67.8642 69.9955C68.2982 70.6572 68.3366 71.6026 69.2042 71.9953C69.5672 71.6207 70.1418 71.5003 70.2661 70.9045L66.8367 67.7594ZM58.5309 52.2904C58.3437 52.8364 58.2411 53.4112 57.9645 53.8828C57.4782 54.7121 56.512 54.8167 55.7694 54.1975C55.5511 54.0158 55.3833 53.759 55.1444 53.6191C54.2191 53.0789 54.2086 52.2163 54.2864 51.3149C54.2985 51.1758 54.3177 51.0054 54.4018 50.9107C54.8858 50.3653 55.3612 49.8045 55.9066 49.3258C56.0655 49.1865 56.4672 49.2298 56.7183 49.3108C57.3343 49.5097 57.8311 49.9094 58.0551 50.5329C58.2541 51.0868 58.3672 51.672 58.5309 52.2904ZM41.126 41.8108C40.9431 42.9469 40.6126 43.9211 39.5927 44.4718C39.4177 44.5665 39.1361 44.5982 38.9578 44.5255C38.4084 44.3016 37.9939 43.9746 37.7153 43.3628C37.2082 42.2496 37.4714 41.3609 38.1871 40.5011C38.5702 40.0408 39.0776 39.7634 39.659 39.8451C40.2826 39.9327 40.7389 40.2981 40.8606 40.9895C40.9132 41.2894 41.0473 41.5747 41.126 41.8108Z" fill="white"/>
</svg>
