<svg width="53" height="51" viewBox="0 0 53 51" fill="none" xmlns="http://www.w3.org/2000/svg">
<path d="M2.20311 40.8893C-0.0196414 43.0475 -0.121688 46.5087 1.97518 48.6202C4.07205 50.7316 7.57379 50.6937 9.79654 48.5355L2.20311 40.8893ZM6.073 44.6413L3.14835 40.1201L2.67872 40.4275L2.27628 40.8182L6.073 44.6413ZM13.8097 39.5786L16.7344 44.0998L16.7344 44.0998L13.8097 39.5786ZM15.5764 38.1933L19.6371 41.7428L19.6371 41.7428L15.5764 38.1933ZM18.6923 34.746L14.6316 31.1964L14.6316 31.1964L18.6923 34.746ZM21.8081 31.2987L25.8688 34.8483L25.8688 34.8483L21.8081 31.2987ZM22.7954 30.1556L27.0279 33.5062L27.0279 33.5062L22.7954 30.1556ZM25.7445 26.5806L21.5121 23.23L21.5121 23.23L25.7445 26.5806ZM28.6937 23.0056L32.9261 26.3563L32.9261 26.3563L28.6937 23.0056ZM29.6863 21.8712L33.6959 25.4765L33.6959 25.4765L29.6863 21.8712ZM32.8347 18.4775L28.8251 14.8722L28.8251 14.8722L32.8347 18.4775ZM35.9831 15.0838L39.9927 18.6891L39.9927 18.6891L35.9831 15.0838ZM36.6352 14.4332L39.7202 18.8456L39.7203 18.8456L36.6352 14.4332ZM37.4926 13.8307L34.4786 9.36913L34.4429 9.39343L34.4076 9.41827L37.4926 13.8307ZM38.4168 13.2014L41.4308 17.6629L41.8606 17.3703L42.2319 17.0066L38.4168 13.2014ZM42.3047 16.9352C44.5179 14.7674 44.6039 11.3064 42.4969 9.20479C40.3899 7.10322 36.8877 7.15696 34.6746 9.32481L42.3047 16.9352ZM5.99982 44.7124L9.79654 48.5355L9.86972 48.4645L6.073 44.6413L2.27628 40.8182L2.20311 40.8893L5.99982 44.7124ZM6.073 44.6413L8.99765 49.1625L16.7344 44.0998L13.8097 39.5786L10.8851 35.0574L3.14835 40.1201L6.073 44.6413ZM13.8097 39.5786L16.7344 44.0998C17.6663 43.4899 18.7766 42.6948 19.6371 41.7428L15.5764 38.1933L11.5157 34.6437C11.5549 34.6003 11.5856 34.5691 11.6048 34.5501C11.6242 34.531 11.6354 34.5208 11.6366 34.5197C11.6375 34.5189 11.6113 34.5424 11.5497 34.5908C11.4222 34.6908 11.2089 34.8455 10.8851 35.0574L13.8097 39.5786ZM15.5764 38.1933L19.6371 41.7428L22.753 38.2955L18.6923 34.746L14.6316 31.1964L11.5157 34.6437L15.5764 38.1933ZM18.6923 34.746L22.753 38.2955L25.8688 34.8483L21.8081 31.2987L17.7474 27.7492L14.6316 31.1964L18.6923 34.746ZM21.8081 31.2987L25.8688 34.8483C26.2656 34.4092 26.652 33.9619 27.0279 33.5062L22.7954 30.1556L18.5629 26.8049C18.2987 27.1252 18.0269 27.4399 17.7474 27.7492L21.8081 31.2987ZM22.7954 30.1556L27.0279 33.5062L29.977 29.9312L25.7445 26.5806L21.5121 23.23L18.5629 26.8049L22.7954 30.1556ZM25.7445 26.5806L29.977 29.9312L32.9261 26.3563L28.6937 23.0056L24.4612 19.655L21.5121 23.23L25.7445 26.5806ZM28.6937 23.0056L32.9261 26.3563C33.1746 26.0551 33.4312 25.7619 33.6959 25.4765L29.6863 21.8712L25.6766 18.2659C25.258 18.7172 24.8528 19.1802 24.4612 19.655L28.6937 23.0056ZM29.6863 21.8712L33.6959 25.4765L36.8443 22.0828L32.8347 18.4775L28.8251 14.8722L25.6766 18.2659L29.6863 21.8712ZM32.8347 18.4775L36.8443 22.0828L39.9927 18.6891L35.9831 15.0838L31.9735 11.4785L28.8251 14.8722L32.8347 18.4775ZM35.9831 15.0838L39.9927 18.6891C40.0632 18.6132 40.1209 18.5518 40.1671 18.5035C40.2142 18.4542 40.2426 18.4254 40.2554 18.4126C40.2723 18.3958 40.25 18.4188 40.1992 18.465C40.1727 18.4891 40.1239 18.5328 40.0573 18.5882C40.0231 18.6166 39.9788 18.6526 39.9259 18.6938C39.8737 18.7343 39.8043 18.7866 39.7202 18.8456L36.6352 14.4332L33.5502 10.0208C33.0345 10.3832 32.6257 10.8011 32.5494 10.8772C32.3648 11.0613 32.1677 11.2691 31.9735 11.4785L35.9831 15.0838ZM36.6352 14.4332L39.7203 18.8456L40.5777 18.2431L37.4926 13.8307L34.4076 9.41827L33.5502 10.0208L36.6352 14.4332ZM37.4926 13.8307L40.5066 18.2922L41.4308 17.6629L38.4168 13.2014L35.4028 8.73985L34.4786 9.36913L37.4926 13.8307ZM38.4168 13.2014L42.2319 17.0066L42.3047 16.9352L38.4897 13.13L34.6746 9.32481L34.6017 9.39618L38.4168 13.2014Z" fill="black"/>
<path d="M12.7686 2.06464C9.78042 1.51932 6.91593 3.49968 6.37061 6.4879C5.82529 9.47611 7.80564 12.3406 10.7939 12.8859L12.7686 2.06464ZM11.8796 7.49324L10.8922 12.9039L11.174 12.9553L11.4597 12.9772L11.8796 7.49324ZM20.8981 8.18388L20.4781 13.6678L20.8981 8.18388ZM23.1034 8.21821L23.6828 13.6876L23.1034 8.21821ZM27.632 7.73846L27.0526 2.26907L27.632 7.73846ZM32.1606 7.25872L32.74 12.7281L32.1606 7.25872ZM33.6315 7.07033L34.4491 12.5092L33.6315 7.07033ZM38.1383 6.3928L37.3207 0.953918L38.1383 6.3928ZM42.6451 5.71528L43.4628 11.1542L42.6451 5.71528ZM43.6531 6.06619L48.3801 3.25447V3.25447L43.6531 6.06619ZM45.3383 8.89931L40.6114 11.711L40.6114 11.711L45.3383 8.89931ZM47.0235 11.7324L51.7505 8.92072V8.92071L47.0235 11.7324ZM47.1664 12.9209L52.5787 13.8992V13.8992L47.1664 12.9209ZM46.3589 17.3885L40.9466 16.4102V16.4102L46.3589 17.3885ZM45.5514 21.856L50.9637 22.8343V22.8343L45.5514 21.856ZM45.4666 23.3235L50.9557 22.9778V22.9778L45.4666 23.3235ZM45.7529 27.8702L40.2638 28.216V28.216L45.7529 27.8702ZM46.0393 32.417L51.5284 32.0713V32.0713L46.0393 32.417ZM46.0909 33.5049L51.5903 33.4262V33.4262L46.0909 33.5049ZM46.1215 35.6405L51.6214 35.6289L51.6214 35.5953L51.6209 35.5618L46.1215 35.6405ZM46.1265 38.0285L40.6265 38.0401L40.6283 38.893L40.8884 39.7054L46.1265 38.0285ZM40.9189 39.8006C41.845 42.6936 44.941 44.288 47.8339 43.3618C50.7268 42.4357 52.3212 39.3397 51.3951 36.4468L40.9189 39.8006ZM11.7812 7.47529L10.7939 12.8859L10.8922 12.9039L11.8796 7.49324L12.867 2.0826L12.7686 2.06464L11.7812 7.47529ZM11.8796 7.49324L11.4597 12.9772L20.4781 13.6678L20.8981 8.18388L21.3181 2.69993L12.2996 2.0093L11.8796 7.49324ZM20.8981 8.18388L20.4781 13.6678C21.5321 13.7485 22.6752 13.7943 23.6828 13.6876L23.1034 8.21821L22.524 2.74881C22.5775 2.74315 22.5104 2.7531 22.2691 2.74934C22.0429 2.74582 21.7304 2.73151 21.3181 2.69993L20.8981 8.18388ZM23.1034 8.21821L23.6828 13.6876L28.2114 13.2079L27.632 7.73846L27.0526 2.26907L22.524 2.74881L23.1034 8.21821ZM27.632 7.73846L28.2114 13.2079L32.74 12.7281L32.1606 7.25872L31.5812 1.78932L27.0526 2.26907L27.632 7.73846ZM32.1606 7.25872L32.74 12.7281C33.3112 12.6676 33.8809 12.5946 34.4491 12.5092L33.6315 7.07033L32.8139 1.63144C32.4039 1.69308 31.993 1.7457 31.5812 1.78932L32.1606 7.25872ZM33.6315 7.07033L34.4491 12.5092L38.956 11.8317L38.1383 6.3928L37.3207 0.953918L32.8139 1.63144L33.6315 7.07033ZM38.1383 6.3928L38.956 11.8317L43.4628 11.1542L42.6451 5.71528L41.8275 0.276396L37.3207 0.953918L38.1383 6.3928ZM42.6451 5.71528L43.4628 11.1542C43.1506 11.2011 42.3941 11.2688 41.4557 10.9421C40.3932 10.5722 39.4927 9.83044 38.9262 8.87791L43.6531 6.06619L48.3801 3.25447C47.6306 1.99447 46.4707 1.04046 45.0722 0.55361C43.7978 0.109951 42.6288 0.155936 41.8275 0.276396L42.6451 5.71528ZM43.6531 6.06619L38.9262 8.87791L40.6114 11.711L45.3383 8.89931L50.0653 6.08759L48.3801 3.25447L43.6531 6.06619ZM45.3383 8.89931L40.6114 11.711L42.2966 14.5442L47.0235 11.7324L51.7505 8.92071L50.0653 6.08759L45.3383 8.89931ZM47.0235 11.7324L42.2966 14.5441C41.5835 13.3454 41.6949 12.2701 41.7541 11.9426L47.1664 12.9209L52.5787 13.8992C52.8132 12.602 52.8294 10.7344 51.7505 8.92072L47.0235 11.7324ZM47.1664 12.9209L41.7541 11.9426L40.9466 16.4102L46.3589 17.3885L51.7712 18.3667L52.5787 13.8992L47.1664 12.9209ZM46.3589 17.3885L40.9466 16.4102L40.1391 20.8778L45.5514 21.856L50.9637 22.8343L51.7712 18.3667L46.3589 17.3885ZM45.5514 21.856L40.1391 20.8778C39.9723 21.8008 39.9186 22.7345 39.9774 23.6692L45.4666 23.3235L50.9557 22.9778C50.9524 22.9256 50.9553 22.881 50.9637 22.8343L45.5514 21.856ZM45.4666 23.3235L39.9774 23.6692L40.2638 28.216L45.7529 27.8702L51.2421 27.5245L50.9557 22.9778L45.4666 23.3235ZM45.7529 27.8702L40.2638 28.216L40.5502 32.7627L46.0393 32.417L51.5284 32.0713L51.2421 27.5245L45.7529 27.8702ZM46.0393 32.417L40.5502 32.7627C40.5805 33.2432 40.5902 33.4936 40.5915 33.5835L46.0909 33.5049L51.5903 33.4262C51.585 33.0525 51.5603 32.5777 51.5284 32.0713L46.0393 32.417ZM46.0909 33.5049L40.5915 33.5835L40.622 35.7191L46.1215 35.6405L51.6209 35.5618L51.5903 33.4262L46.0909 33.5049ZM46.1215 35.6405L40.6215 35.652L40.6265 38.0401L46.1265 38.0285L51.6265 38.0169L51.6214 35.6289L46.1215 35.6405ZM46.1265 38.0285L40.8884 39.7054L40.9189 39.8006L46.157 38.1237L51.3951 36.4468L51.3646 36.3515L46.1265 38.0285Z" fill="black"/>
</svg>
