<svg width="124" height="35" viewBox="0 0 124 35" fill="none" xmlns="http://www.w3.org/2000/svg">
<g clip-path="url(#clip0_198_110)">
<path fill-rule="evenodd" clip-rule="evenodd" d="M36.2327 10.1029C36.0755 20.109 23.9073 32.5595 13.7725 33.0813C5.71404 33.503 -2.13005 22.221 0.525151 13.9767C2.70863 7.20471 6.24651 2.05513 14.3229 1.75494C18.7327 1.58698 23.1354 0.375529 27.5238 0.47559C33.5775 0.607814 36.3256 4.02776 36.2327 10.1029Z" fill="black"/>
<path fill-rule="evenodd" clip-rule="evenodd" d="M105.675 34.9933C98.421 34.7968 93.568 30.4763 92.353 21.921C91.288 14.4236 95.4763 8.8273 100.819 4.14229C105.586 -0.03527 110.779 -1.39324 116.9 1.64433C122.386 4.36385 125.002 9.51701 123.154 15.4028C121.975 19.1622 120.763 22.9145 119.602 26.6739C117.951 32.0201 112.676 35.1863 105.675 34.9933Z" fill="black"/>
<path fill-rule="evenodd" clip-rule="evenodd" d="M48.3188 24.2149C49.9877 14.6519 52.4642 7.07583 59.5436 2.02631C60.9016 1.05786 62.9885 0.564705 64.6753 0.696929C70.1072 1.11147 78.423 8.28014 78.7017 12.4112C79.1806 19.537 73.5843 27.5348 66.6765 29.1536C61.9951 30.2472 57.1135 32.9238 52.5536 28.9249C50.7846 27.374 49.3802 25.4121 48.3188 24.2149Z" fill="black"/>
</g>
<defs>
<clipPath id="clip0_198_110">
<rect width="123.747" height="35" fill="white"/>
</clipPath>
</defs>
</svg>
