<svg width="155" height="135" viewBox="0 0 155 135" fill="none" xmlns="http://www.w3.org/2000/svg">
<path fill-rule="evenodd" clip-rule="evenodd" d="M26.0568 121.066C26.7078 121.277 27.3775 121.407 27.9612 121.705C28.8928 122.181 29.6572 121.968 30.4476 121.406C31.2659 120.834 31.9175 120.054 32.3357 119.148C33.2298 117.25 34.1598 115.366 35.1618 113.524C35.9848 112.011 36.4646 110.452 36.4216 108.718C36.3888 107.407 36.3736 106.085 36.5044 104.783C36.7384 102.456 37.7906 100.385 38.756 98.2978C38.844 98.1074 38.9858 97.9363 39.0449 97.739C39.5386 96.0981 40.8083 95.1963 42.1914 94.3954C42.5954 94.1617 42.987 93.9064 43.3902 93.6569C43.1379 92.7573 42.634 92.3097 41.7841 92.0522C40.8408 91.7669 39.9418 91.2999 39.0661 90.8322C38.0804 90.3059 37.1303 90.3951 36.2069 90.8838C34.4871 91.7934 32.8319 92.8186 31.5727 94.335C30.6722 95.4195 29.8369 96.5614 29.0212 97.7119C27.6632 99.6279 25.8584 101.042 23.8985 102.257C22.5217 103.111 21.068 103.846 19.62 104.577C17.8251 105.484 15.9748 105.466 14.1568 104.653C12.1936 103.774 10.2172 102.946 8.05226 102.741C6.16524 102.563 4.83346 101.588 3.8847 100.005C3.72327 99.7355 3.5541 99.4706 3.37086 99.1756L4.00806 97.2853C4.87044 97.0714 5.65196 96.9806 6.44866 97.4809C6.77015 97.6829 7.25225 97.7842 7.62728 97.7229C11.1339 97.1484 14.4317 96.065 17.3773 93.9644C19.0201 92.7932 19.8145 91.1181 20.5737 89.4069C21.6348 87.0143 22.4737 84.5201 23.6005 82.1615C24.3373 80.6192 25.2755 79.1221 26.373 77.814C28.1204 75.7316 30.683 74.9247 33.1653 74.0885C33.6151 73.9368 34.1753 74.1142 34.7915 74.1451C34.6612 72.8895 34.7043 71.7481 33.5425 70.6995C32.3716 69.6414 31.2622 68.6289 29.8181 67.944C29.2295 67.6647 28.7562 67.5461 28.2018 67.7856L21.0641 70.9131C18.1497 72.2669 15.1596 73.3506 11.9538 73.7301C10.7451 73.8736 9.54494 73.8029 8.39722 73.3021C7.82211 73.0515 7.22825 72.8274 6.62334 72.6618C4.29754 72.0238 2.73533 70.6068 1.74407 68.3842C0.994288 66.703 0.0836169 65.1375 0.325635 63.1771C0.411183 62.4841 0.120596 61.7492 0.0295286 61.0298C-0.164748 59.4957 0.633607 58.2967 1.42755 57.1205C1.80147 56.5667 3.26545 56.6086 3.68491 57.1581C4.02075 57.5982 4.30058 58.085 4.56881 58.5713C5.29597 59.8898 6.46852 60.6128 7.82874 61.1363C11.3812 62.504 14.4126 61.0723 17.2694 59.2418C18.7082 58.3199 19.8573 56.9536 21.1723 55.829C22.7637 54.468 24.3836 53.1395 26.0066 51.8166C27.4611 50.6308 29.1911 50.0358 30.9802 49.5871C31.6657 49.4152 32.2825 49.4971 32.9326 49.8763C33.7304 50.3413 34.6287 50.6338 35.6307 51.0643C35.7855 50.418 35.9456 49.98 35.9878 49.5311C36.1534 47.7564 36.7321 46.1966 37.9907 44.8709C38.6111 44.2177 39.3495 43.5858 39.2698 42.464C39.1707 41.0695 38.847 39.8037 38.0106 38.6563C36.4486 36.5129 34.1979 35.504 31.7584 34.8643C30.3433 34.4934 28.8663 34.3634 27.4236 34.0908C26.4075 33.899 25.3787 33.7232 24.3972 33.4114C22.3611 32.7645 20.3325 32.0826 18.3417 31.3107C17.4899 30.9804 16.6636 30.4812 15.9561 29.9C13.5265 27.9048 13.3088 25.2035 13.7293 22.3473C14.1262 19.6508 15.0465 17.1879 16.9274 15.1353C17.741 14.2472 18.4524 13.2668 19.2295 12.3442C19.4873 12.0382 19.8054 11.7826 20.1302 11.4711C21.3312 12.7093 22.1321 13.9429 21.8086 15.6615C21.7242 16.1108 21.8401 16.6029 21.8912 17.0723C22.0691 18.7046 22.434 19.1475 24.1022 19.3884L35.3247 20.9134C38.1624 21.3058 40.8709 22.0848 43.1103 23.9707C44.762 25.3616 46.2171 26.9202 47.0544 28.9858C47.8141 30.8612 48.687 32.6911 49.5916 34.7249C51.1002 34.029 53.1451 34.0684 54.2114 32.0542C54.4835 31.5406 55.2615 31.26 55.8495 30.9553C57.2889 30.2102 58.8793 29.6771 59.8195 28.2368C60.1415 27.7437 60.3521 27.1512 60.4986 26.5747C60.9531 24.7906 60.6675 23.0857 59.8063 21.4714C58.1905 18.443 57.6965 15.1916 57.8624 11.8044C57.927 10.4798 58.3735 9.27471 58.9464 8.09829C59.9583 6.02141 61.3516 4.40124 63.4487 3.23696C65.6663 2.0059 67.9195 0.974358 70.3593 0.325574C70.4095 0.312328 70.4539 0.27866 70.5033 0.262655C72.7284 -0.445461 73.8695 0.289147 75.2391 2.33429C75.7565 3.10671 75.4982 3.91031 74.5569 4.83422C73.8082 5.56911 73.0184 6.2626 72.2336 6.9594C71.6596 7.46882 71.2418 8.03454 71.3055 8.85746C71.3213 9.05863 71.2343 9.26781 71.196 9.4734C70.8171 11.5006 70.9485 13.4078 72.1917 15.1847C73.1503 16.5551 73.9407 18.0428 74.8166 19.4723C76.0717 21.5213 76.2742 23.7033 75.5117 25.9425C75.2217 26.7949 74.6665 27.5571 74.2407 28.3442C77.2186 28.3527 80.1446 27.8543 82.7952 26.2198C83.1967 25.972 83.6032 25.7234 84.0318 25.5302C84.6634 25.2457 84.9949 24.7757 85.1433 24.1101C85.2794 23.501 85.4165 22.873 85.6845 22.3163C86.3653 20.9032 86.6537 19.4988 86.3225 17.9076C86.1492 17.0753 86.365 16.134 86.5289 15.2655C86.8783 13.4152 87.3209 11.5831 87.7004 9.7386C87.8902 8.81551 88.3815 8.12313 89.1293 7.57258C92.9323 4.77268 97.1874 3.40116 101.913 3.40861C103.089 3.41026 103.994 4.03476 104.999 4.43656C105.527 4.64823 106.024 4.95316 106.506 5.26169C107.274 5.75317 107.275 7.01376 106.509 7.51988C106.251 7.69014 105.929 7.75941 105.648 7.89932C102.658 9.38896 100.515 11.6662 99.3581 14.8113C98.9422 15.9428 98.9568 17.1148 98.9891 18.3453C99.0719 21.4747 99.5021 24.6317 98.6635 27.7467C98.3412 28.9427 97.989 30.0231 96.8902 30.7677C96.2116 31.2274 95.6577 31.8704 94.9772 32.4963C96.1111 33.2822 97.3386 33.3327 98.5098 33.3655C100.724 33.4279 102.512 32.5112 103.561 30.5135C104.46 28.8017 105.245 27.0276 106.024 25.2564C107.64 21.5828 110.094 18.8207 114.058 17.6225C117.791 16.4941 121.402 16.8772 124.9 18.5026C126.189 19.1017 127.441 19.8349 128.922 19.6285C129.569 19.5385 130.283 19.3448 130.79 18.9634C131.565 18.3798 132.359 17.962 133.312 17.8218C133.509 17.7928 133.705 17.7122 133.884 17.6206C134.782 17.1597 135.173 17.2602 135.896 17.8968C136.584 18.5037 136.435 19.1064 136.008 19.7036C134.484 21.8348 132.986 23.9895 131.356 26.0377C130.834 26.6925 129.978 27.1385 129.196 27.5157C127.525 28.3215 125.681 28.4777 123.868 28.7117C123.628 28.7429 123.364 28.6673 123.122 28.6008C121.64 28.1918 120.214 28.7048 118.785 28.9256C118.288 29.0026 117.799 29.5244 117.426 29.9483C115.477 32.1582 114.244 34.7517 113.625 37.612C113.374 38.7733 113.275 39.9936 113.301 41.1827C113.347 43.2734 112.465 44.9186 111.166 46.44C110.516 47.2006 109.936 48.0202 109.324 48.813L108.956 48.5561C109.047 48.7876 109.123 49.0266 109.232 49.2493C109.981 50.7767 110.604 51.1347 112.281 51.0028C112.645 50.9741 113.007 50.9031 113.372 50.8849C115.367 50.7853 116.996 50.0176 118.238 48.4018C119.971 46.1475 121.839 44.0345 124.407 42.6536C126.845 41.3428 129.39 40.6338 132.103 41.4429C133.173 41.7619 134.171 42.4408 135.093 43.1064C136.189 43.8981 137.12 44.9173 138.21 45.7189C139.442 46.6246 140.776 47.2726 142.427 46.9574C145.306 46.4077 147.765 45.2098 149.648 42.8793C150.228 42.1607 151.012 41.5431 151.823 41.0952C152.413 40.7687 153.199 40.7972 153.772 40.6907C155.037 41.9648 154.562 43.2552 154.163 44.3885C153.674 45.7761 153.239 47.1415 152.968 48.5997C152.753 49.7516 152.143 50.8642 151.546 51.901C150.818 53.1657 149.949 54.3532 149.09 55.5379C147.479 57.7616 145.056 58.398 142.53 58.7581C140.636 59.0283 138.858 58.7746 137.056 57.9437C133.727 56.4086 130.42 57.0921 127.241 58.6088C126.592 58.9187 125.951 59.3042 125.407 59.7717C122.128 62.5901 118.484 64.8116 114.535 66.549C114.391 66.6122 114.26 66.7027 114.015 66.8418V70.389C114.622 70.8363 115.322 70.7334 115.938 70.4561C117.283 69.8509 118.59 70.1445 119.721 70.7875C122.261 72.2324 124.705 73.8479 127.188 75.3944C128.692 76.3313 130.143 77.3719 131.714 78.1783C133.477 79.0829 135.38 78.909 137.243 78.3817C139.257 77.8124 141.237 77.1868 143.148 76.2833C144.245 75.765 145.563 75.6397 146.799 75.5177C148.002 75.3991 150.048 77.1327 150.229 78.3066C150.281 78.6397 150.189 79.0484 150.029 79.352C148.248 82.7322 146.46 86.1213 143.967 89.0448C141.305 92.1665 137.783 93.363 133.772 93.115C132.811 93.0553 131.879 92.5467 130.932 92.2495C129.835 91.9054 128.712 91.6308 127.649 91.205C126.746 90.8435 125.901 90.3305 125.051 89.849C123.698 89.0823 122.417 88.1603 121.004 87.532C119.048 86.6619 116.984 86.9282 115.047 87.6512C113.374 88.276 111.722 88.8663 109.932 89.0735C108.807 89.2035 108.069 90.094 107.657 91.0091C107.143 92.1518 107.966 93.4657 109.431 93.8098C111.514 94.2985 113.643 94.5902 115.756 94.9457C116.632 95.0933 117.532 95.1256 118.397 95.3168C122.308 96.18 124.856 98.6389 126.271 102.299C126.799 103.662 127.067 105.123 127.534 106.512C127.9 107.598 128.272 108.714 128.856 109.688C129.537 110.822 130.865 110.916 132.04 111.112C132.704 111.222 133.403 111.132 133.926 111.132L135.314 112.448C135.429 112.554 135.596 112.612 135.69 112.731C136.164 113.327 136.923 113.839 136.538 114.763C136.197 115.58 135.341 115.221 134.736 115.443C134.6 115.492 134.421 115.457 134.27 115.423C131.494 114.801 128.738 115.375 125.975 115.547C124.427 115.644 122.953 115.448 121.599 114.592C120.631 113.979 119.564 113.516 118.623 112.867C117.727 112.249 116.842 111.561 116.122 110.752C114.697 109.152 113.438 107.404 112.009 105.809C111.433 105.167 110.658 104.565 109.855 104.289C105.704 102.862 101.403 102.277 97.0177 102.311C96.8234 102.313 96.6305 102.385 96.4897 102.413L97.2638 107.251C97.4203 108.427 97.8168 109.251 99.076 109.695C100.842 110.316 102.595 110.994 104.102 112.219C106.704 114.333 108.567 116.761 108.347 120.336C108.28 121.436 108.418 122.551 108.315 123.646C108.182 125.067 108.88 125.914 109.997 126.575C110.442 126.838 110.962 127.062 111.267 127.447C111.561 127.817 111.831 128.43 111.721 128.829C111.618 129.208 111.052 129.602 110.615 129.725C108.24 130.394 105.865 130.153 103.487 129.63C101.563 129.207 99.8421 128.362 98.2195 127.293C96.9183 126.436 95.9649 125.304 95.4982 123.774C95.0481 122.299 94.5274 120.846 94.0268 119.387C92.7952 115.802 89.9238 114.423 86.4906 113.844C84.6364 113.531 82.7298 113.45 80.9184 112.986C78.3552 112.33 76.3457 110.67 74.6251 108.722C74.0654 108.088 73.8102 107.186 73.4349 106.443C73.3068 106.431 73.24 106.402 73.2044 106.424C71.5525 107.438 70.0273 108.59 69.1754 110.403C68.4242 112.002 69.432 113.222 70.1404 114.486C70.4451 115.029 70.8781 115.499 71.1949 116.036C73.0242 119.137 75.6506 121.395 78.6652 123.282C79.8587 124.029 80.893 125.032 82.0929 125.767C82.9718 126.307 83.9757 126.839 84.9698 126.944C86.314 127.087 87.1841 127.92 88.1521 128.594C89.4908 129.526 89.4759 130.024 88.1623 130.932C85.2217 132.965 82.1602 134.49 78.355 133.881C74.2222 133.22 69.9972 133.074 66.0584 131.442C64.0569 130.612 62.2433 129.461 60.5952 128.078C59.6771 127.307 59.0015 126.357 58.7231 125.083C58.3668 123.455 57.7034 121.896 57.2594 120.283C56.5874 117.842 56.9539 115.4 57.4159 112.973L59.0394 104.536C57.4462 103.47 55.1773 103.604 53.9672 104.951C52.0391 107.097 50.7415 109.567 50.4843 112.516C50.399 113.498 50.1981 114.482 49.9302 115.431C49.4757 117.042 48.9326 118.628 48.4146 120.22C47.8271 122.026 46.7801 123.467 45.0501 124.337L39.9901 126.84C37.5144 127.995 34.9993 127.775 32.4858 126.935C31.3988 126.572 30.3452 126.193 29.1288 126.425C28.0139 126.637 27.0842 126.097 26.4373 125.16C25.6141 123.97 24.8718 122.756 26.0568 121.066ZM19.3382 18.4032C17.4661 19.9235 16.2814 22.9061 16.4155 24.9432C16.5118 26.4077 17.3599 27.6325 18.7612 28.0768C19.7577 28.3927 20.7774 28.6452 21.7546 29.0117C24.6499 30.0976 27.5828 30.8629 30.6996 31.1606C32.6122 31.3436 34.5539 32.1386 36.2919 33.03C39.1332 34.4873 40.9534 36.9354 41.8699 40.1031L46.9338 35.945C46.2243 35.0155 45.1403 34.2045 44.972 33.2342C44.7068 31.7076 44.0475 30.4373 43.4641 29.0697C42.7651 27.431 41.6044 26.5366 39.9851 25.985C37.1482 25.0183 34.2012 24.7158 31.2545 24.383C29.2356 24.1551 27.2017 24.0174 25.201 23.6807C23.9242 23.466 22.7099 22.972 21.7054 22.0387C20.611 21.0226 19.8361 19.82 19.3382 18.4032ZM109.55 85.0249C110.991 84.5936 112.22 84.3421 113.353 83.865C116.28 82.6337 119.152 82.6751 122.008 84.0143C122.859 84.4139 123.764 84.7917 124.475 85.3828C126.316 86.9113 128.508 87.5483 130.744 88.1283C131.2 88.2467 131.658 88.3775 132.094 88.555C134.198 89.411 136.207 89.1353 138.072 87.9498C139.814 86.8435 141.236 85.3767 142.345 83.6293C142.795 82.9201 143.19 82.175 143.782 81.1509C142.176 81.7208 140.989 82.2476 139.749 82.5614C136.519 83.3788 133.368 82.9201 130.546 81.2459C127.954 79.7093 125.552 77.8493 123.09 76.0992C120.974 74.5952 118.753 73.6746 116.072 74.2825C115.146 74.4923 114.151 74.3979 113.054 74.4487L109.55 85.0249ZM62.2609 104.935C62.211 105.734 62.243 106.312 62.129 106.861C61.5959 109.417 61.1532 112.003 60.4308 114.507C59.509 117.701 60.1482 120.731 60.9901 123.772C61.1218 124.247 61.4377 124.761 61.8219 125.06C63.893 126.669 66.0369 128.242 68.6709 128.731C71.651 129.284 74.6645 129.69 77.6791 130.013C79.0658 130.162 80.5265 130.473 81.9278 129.826C81.8395 129.655 81.8172 129.537 81.7462 129.484L73.4669 123.294C72.9315 122.888 72.397 122.416 72.0313 121.863C70.0411 118.855 68.0131 115.865 66.1796 112.761C64.8627 110.532 65.3172 108.506 67.1636 106.669C67.327 106.507 67.441 106.295 67.7073 105.927L62.2609 104.935ZM147.698 50.1064C146.466 50.5325 145.518 50.9639 144.523 51.175C143.572 51.3764 142.411 51.7037 141.628 51.348C139.984 50.6012 138.485 49.501 137.008 48.4336C135.956 47.6738 135.025 46.7433 134.062 45.8655C133.139 45.0249 132.026 44.9156 130.874 45.0158C128.203 45.249 125.996 46.472 124.162 48.3665C123.405 49.1483 122.747 50.0355 122.11 50.9222C119.789 54.1531 116.623 55.4054 112.727 55.0276C112.335 54.9896 111.932 55.0707 111.415 55.1046L113.525 62.4659C114.044 62.2918 114.418 62.2396 114.711 62.0569C117.104 60.5648 119.652 59.2562 121.819 57.484C124.274 55.4753 126.966 54.1319 129.941 53.2215C131.416 52.7706 132.908 52.6732 134.411 53.0432L138.661 54.1435C142.31 55.1894 145.719 53.769 147.698 50.1064ZM33.8171 124.087C34.5947 124.127 35.3191 124.246 36.0284 124.186C38.2711 123.996 40.2329 123.032 42.1671 121.939C43.6783 121.086 44.6855 119.906 45.1279 118.256L47.1176 110.52C47.5933 108.479 47.9079 106.407 49.806 105.064C50.1683 104.807 50.3888 104.33 50.6294 103.928C50.9923 103.32 51.3152 102.688 51.7079 101.969C49.7433 100.448 47.3761 99.2576 45.8156 97.0957C44.0596 97.9031 42.6522 98.965 41.8613 100.651C41.3293 101.786 40.9413 102.989 40.4939 104.164C39.8372 105.889 40.1358 107.69 40.0963 109.461C40.0588 111.156 39.9495 112.902 39.049 114.317C37.1686 117.274 36.3907 120.827 34 123.492C33.9087 123.595 33.9076 123.781 33.8171 124.087ZM34.98 54.1865C33.5262 53.5325 33.2331 53.4605 32.3741 53.7259C30.558 54.287 28.8705 55.1549 27.4214 56.3572C25.5736 57.891 23.8877 59.6185 22.076 61.1984C21.1367 62.0175 20.1664 62.8989 19.0512 63.3956C17.2015 64.2191 15.2375 64.8016 13.2919 65.3869C12.6106 65.5917 11.8004 65.6795 11.1196 65.5194C9.0449 65.0323 6.90703 64.6482 5.22615 63.1431C4.90907 62.8594 4.48988 62.6897 4.01082 62.4038C3.80992 63.3034 3.60626 63.9605 3.5243 64.6319C3.30215 66.4579 4.17998 67.8736 5.91495 68.5644L8.55065 69.5782C9.86671 70.0874 11.2059 70.0995 12.5697 69.8001C15.7587 69.1006 18.7676 67.9429 21.6938 66.4883C23.5097 65.5856 25.4475 64.9073 27.3734 64.2552C28.7587 63.7864 30.1427 63.8372 31.355 64.8957C32.2033 65.6367 33.1294 66.2882 34.0608 67.0113C34.1151 66.8211 34.1932 66.6804 34.1891 66.5424C34.122 64.3587 34.7346 62.18 34.2175 59.9886C34.1242 59.5926 34.1722 59.1453 34.2346 58.7338L34.98 54.1865ZM104.843 125.862L104.559 118.65C104.504 116.458 103.602 115.118 101.557 114.355C100.919 114.118 100.259 113.936 99.6343 113.67C97.5712 112.789 95.7242 111.623 94.7098 109.513C93.8943 107.817 93.2668 106.063 93.1633 104.146C93.1288 103.508 92.8675 102.883 92.6922 102.18C87.6168 104.366 82.6669 106.22 77.1429 106.57C79.2369 109.185 81.9096 109.968 84.8009 110.143C86.7621 110.261 88.5826 110.755 90.412 111.445C93.1305 112.473 94.8939 114.425 96.2698 116.854C97.205 118.505 97.8665 120.249 98.18 122.126C98.382 123.338 98.9704 124.266 100.184 124.719C101.066 125.048 101.91 125.502 102.813 125.74C103.477 125.916 104.209 125.833 104.843 125.862ZM39.2154 87.0858C37.1802 84.0563 36.5447 80.5728 35.0804 77.2869C34.1463 77.766 33.3648 78.3508 32.49 78.5795C30.3772 79.1306 29.0703 80.5173 28.1201 82.3525C26.5566 85.372 25.1607 88.4672 24.0701 91.6915C23.1788 94.327 21.6654 96.4314 19.1509 97.7497L13.5593 100.763C14.6969 101.282 15.8965 101.838 17.4192 101.541C18.9593 101.241 20.3135 100.585 21.573 99.762C23.1413 98.7368 24.7794 97.7155 25.7952 96.068C27.9587 92.5578 30.7473 89.759 34.4515 87.8568C35.9481 87.088 37.4079 86.6075 39.2154 87.0858ZM106.874 44.6893C107.48 44.1004 108.131 43.5703 108.657 42.9361C109.716 41.6565 110.467 40.2483 110.244 38.4816C110.174 37.9178 110.165 37.2974 110.324 36.7607C111.297 33.4621 112.219 30.168 114.503 27.4078C115.828 25.8053 117.306 24.7506 119.356 24.5831C120.87 24.4595 122.392 24.4564 123.91 24.38C125.24 24.3129 126.534 24.1156 127.674 23.2378L124.583 21.8616C122.568 20.9862 120.438 20.7729 118.275 20.8607C117.294 20.9004 116.287 20.9857 115.348 21.2506C112.795 21.9703 111.252 23.8706 110.117 26.1235C109.086 28.1689 108.17 30.2715 107.178 32.3373C106.277 34.2147 105.093 35.8183 102.995 36.5132C102.391 36.713 101.815 36.995 101.196 37.2516L106.874 44.6893ZM67.898 6.18229C67.529 6.28881 67.221 6.35311 66.9318 6.46432C63.0126 7.97356 60.9062 11.7294 61.5092 15.844C61.813 17.9178 62.7416 19.7416 63.5607 21.5922C64.3579 23.3945 64.6 25.1897 64.4515 27.1048C64.3919 27.8742 64.4416 28.6519 64.4416 29.5228C65.5123 29.3122 66.4873 29.1489 67.4448 28.9165C67.7782 28.8356 68.1516 28.6538 68.3674 28.3996C69.381 27.2042 70.3664 25.9839 71.3221 24.7415C72.2322 23.5584 72.6682 21.489 71.7032 20.0308C71.0735 19.0796 70.399 18.1565 69.8018 17.1857C67.9592 14.1912 67.1325 10.9835 67.8293 7.46523C67.9082 7.06426 67.8762 6.64066 67.898 6.18229ZM98.3941 98.5845L103.911 99.0213C106.913 99.3194 109.912 99.9717 112.309 101.775C114.192 103.192 115.699 105.177 117.139 107.086C118.023 108.258 118.979 109.198 120.265 109.841C121.014 110.216 121.815 110.517 122.502 110.985C123.791 111.863 125.135 111.685 126.713 111.475C125.117 108.798 124.063 106.065 123.448 103.2C122.988 101.06 121.795 99.9014 119.672 99.6177L118.431 99.4543C115.843 99.0829 113.242 98.7752 110.672 98.3044C109.563 98.1016 108.462 97.6785 107.706 96.6939L104.729 92.9179L98.3941 98.5845ZM84.5837 28.6985C84.9054 28.9005 85.1408 29.1367 85.4174 29.2071C87.1347 29.6437 88.8536 30.0827 90.5911 30.4238C90.9774 30.4994 91.4871 30.2637 91.8608 30.0394C94.7206 28.3226 95.6213 25.5746 95.6964 22.4571C95.7402 20.6222 95.565 18.7802 95.6475 16.9486C95.7129 15.4957 95.9422 14.0372 96.2444 12.6122C96.5041 11.3842 97.077 10.3063 98.1027 9.44387C99.0493 8.64856 99.8214 7.64544 100.766 6.63128C97.6957 6.3934 95.1406 7.30242 92.8261 8.91155C92.31 9.27057 91.8467 9.91384 91.672 10.5165C91.1496 12.3221 90.7453 14.1653 90.3717 16.0093C90.2091 16.8109 90.1093 17.665 90.2022 18.4697C90.3571 19.8128 90.1929 21.0593 89.6981 22.3111C89.2968 23.3269 88.9817 24.3833 88.7178 25.4444C88.5931 25.9469 88.3997 26.2504 87.9421 26.5201C86.8245 27.1791 85.7587 27.928 84.5837 28.6985ZM82.3122 69.719C80.9841 70.5598 80.4953 71.6874 80.2367 72.943C79.5361 76.3459 78.1 79.1342 74.9957 81.1388C72.5013 82.7496 68.5037 81.6584 67.5635 78.5387C66.9956 76.655 66.1051 74.8684 65.3751 73.0771C64.6174 72.8384 64.1849 73.0504 63.9724 73.7422C62.424 78.7876 64.1709 82.204 68.2427 84.6901C68.7341 84.9904 69.2427 85.2708 69.7682 85.5045C70.6504 85.8972 71.5233 86.1083 72.4856 85.6014C72.8854 85.3903 73.482 85.3671 73.9352 85.4783C75.0909 85.762 76.1545 85.6174 77.0477 84.8772C77.9661 84.1164 78.8448 83.2849 79.6236 82.3831C80.925 80.8755 81.281 78.9115 82.015 77.1238C82.8793 75.0188 82.5098 72.8233 82.7419 70.6757C82.7703 70.4147 82.5018 70.1224 82.3122 69.719ZM62.3688 63.0747C62.8587 62.8953 63.6772 62.6941 64.3952 62.3064C65.2504 61.8447 65.4866 60.838 65.1298 59.8492C64.5486 58.2376 63.6175 57.3377 62.6274 57.4315C62.5758 57.4365 62.5156 57.4404 62.4762 57.4685C61.5956 58.0933 60.7407 57.8673 59.8366 57.4829C59.5971 57.381 58.9938 57.5582 58.9138 57.7533C58.5079 58.7418 58.1516 59.7303 58.576 60.87C59.1939 62.5302 60.5238 62.8906 62.3688 63.0747ZM79.2618 57.6093C79.8211 57.9338 80.5188 58.0996 80.7649 58.5263C81.5213 59.8357 82.7314 59.4585 83.7977 59.4792C84.6687 59.4963 85.1925 58.7915 85.5217 58.069C85.775 57.5132 85.6047 57.038 85.047 56.597C84.5903 56.2355 84.3433 55.6003 84.0262 55.0729C83.5254 54.2409 83.1815 54.0985 82.2628 54.3838C80.6924 54.8723 79.4646 55.6897 79.2618 57.6093Z" fill="black"/>
</svg>
